<svg width="162" height="126" viewBox="0 0 162 126" fill="none" xmlns="http://www.w3.org/2000/svg">
<path d="M81.1705 107.21C70.1941 107.21 59.5573 103.512 51.0724 96.7458C42.5875 89.9797 36.7796 80.5643 34.6382 70.1038C32.4969 59.6433 34.1545 48.785 39.3288 39.379C44.5031 29.9729 52.8738 22.6011 63.0147 18.5197C73.1556 14.4382 84.4392 13.8996 94.943 16.9956C105.447 20.0916 114.521 26.6307 120.619 35.4987C126.717 44.3667 129.462 55.0148 128.386 65.6289C127.31 76.2429 122.48 86.1662 114.719 93.7077C110.323 98.0019 105.095 101.406 99.3365 103.724C93.578 106.042 87.4035 107.227 81.1705 107.21ZM81.1705 15.3648C55.211 15.3648 34.0912 35.8862 34.0912 61.1103C34.0912 86.3344 55.211 106.856 81.1705 106.856C107.13 106.856 128.25 86.3344 128.25 61.1103C128.25 35.8862 107.13 15.3648 81.1705 15.3648Z" fill="#CCCCCC"/>
<path d="M98.7871 114.123V67.6804H63.2128V114.123H98.7871Z" fill="#2F2E41"/>
<path d="M104.899 66.2623H57.1016V84.6977H104.899V66.2623Z" fill="#3F3D56"/>
<path d="M104.899 86.8249H57.1016V105.26H104.899V86.8249Z" fill="#3F3D56"/>
<path d="M104.899 107.387H57.1016V125.823H104.899V107.387Z" fill="#3F3D56"/>
<path d="M104.899 74.079H57.1016V76.9152H104.899V74.079Z" fill="#3DA6F4"/>
<path d="M104.899 94.6415H57.1016V97.4778H104.899V94.6415Z" fill="#3DA6F4"/>
<path d="M104.899 115.204H57.1016V118.04H104.899V115.204Z" fill="#3DA6F4"/>
<path d="M95.5946 69.9849C96.1991 69.9849 96.6892 69.5087 96.6892 68.9213C96.6892 68.3339 96.1991 67.8577 95.5946 67.8577C94.9901 67.8577 94.5 68.3339 94.5 68.9213C94.5 69.5087 94.9901 69.9849 95.5946 69.9849Z" fill="#3DA6F4"/>
<path d="M99.4256 69.9849C100.03 69.9849 100.52 69.5087 100.52 68.9213C100.52 68.3339 100.03 67.8577 99.4256 67.8577C98.8211 67.8577 98.3311 68.3339 98.3311 68.9213C98.3311 69.5087 98.8211 69.9849 99.4256 69.9849Z" fill="#3DA6F4"/>
<path d="M103.257 69.9849C103.861 69.9849 104.351 69.5087 104.351 68.9213C104.351 68.3339 103.861 67.8577 103.257 67.8577C102.652 67.8577 102.162 68.3339 102.162 68.9213C102.162 69.5087 102.652 69.9849 103.257 69.9849Z" fill="#3DA6F4"/>
<path d="M95.5946 90.1929C96.1991 90.1929 96.6892 89.7167 96.6892 89.1293C96.6892 88.5419 96.1991 88.0657 95.5946 88.0657C94.9901 88.0657 94.5 88.5419 94.5 89.1293C94.5 89.7167 94.9901 90.1929 95.5946 90.1929Z" fill="#3DA6F4"/>
<path d="M99.4256 90.1929C100.03 90.1929 100.52 89.7167 100.52 89.1293C100.52 88.5419 100.03 88.0657 99.4256 88.0657C98.8211 88.0657 98.3311 88.5419 98.3311 89.1293C98.3311 89.7167 98.8211 90.1929 99.4256 90.1929Z" fill="#3DA6F4"/>
<path d="M103.257 90.1929C103.861 90.1929 104.351 89.7167 104.351 89.1293C104.351 88.5419 103.861 88.0657 103.257 88.0657C102.652 88.0657 102.162 88.5419 102.162 89.1293C102.162 89.7167 102.652 90.1929 103.257 90.1929Z" fill="#3DA6F4"/>
<path d="M95.5946 110.401C96.1991 110.401 96.6892 109.925 96.6892 109.337C96.6892 108.75 96.1991 108.274 95.5946 108.274C94.9901 108.274 94.5 108.75 94.5 109.337C94.5 109.925 94.9901 110.401 95.5946 110.401Z" fill="#3DA6F4"/>
<path d="M99.4256 110.401C100.03 110.401 100.52 109.925 100.52 109.337C100.52 108.75 100.03 108.274 99.4256 108.274C98.8211 108.274 98.3311 108.75 98.3311 109.337C98.3311 109.925 98.8211 110.401 99.4256 110.401Z" fill="#3DA6F4"/>
<path d="M103.257 110.401C103.861 110.401 104.351 109.925 104.351 109.337C104.351 108.75 103.861 108.274 103.257 108.274C102.652 108.274 102.162 108.75 102.162 109.337C102.162 109.925 102.652 110.401 103.257 110.401Z" fill="#3DA6F4"/>
<path d="M44.1264 48.0498V81.0193C44.1262 81.709 43.8442 82.3705 43.3422 82.8582C42.8403 83.3459 42.1595 83.62 41.4497 83.6202H28.2638C27.5537 83.6202 26.8727 83.3463 26.3705 82.8585C25.8684 82.3708 25.5861 81.7092 25.5859 81.0193V48.0498C25.5861 47.3599 25.8684 46.6983 26.3705 46.2106C26.8727 45.7228 27.5537 45.4489 28.2638 45.449H29.8633C29.7848 45.6366 29.7549 45.8402 29.7762 46.0417C29.7976 46.2432 29.8696 46.4366 29.9859 46.6047C30.1022 46.7729 30.2592 46.9107 30.4432 47.0061C30.6272 47.1015 30.8324 47.1515 31.0409 47.1518H38.5587C38.7672 47.1515 38.9724 47.1015 39.1564 47.0061C39.3403 46.9107 39.4974 46.7729 39.6136 46.6048C39.7299 46.4366 39.8019 46.2432 39.8233 46.0417C39.8447 45.8402 39.8148 45.6366 39.7363 45.449H41.4497C42.1595 45.4491 42.8403 45.7232 43.3422 46.2109C43.8442 46.6986 44.1262 47.3601 44.1264 48.0498Z" fill="#E6E6E6"/>
<path d="M43.2486 51.7449H26.4648V74.4346H43.2486V51.7449Z" fill="white"/>
<path d="M37.9284 67.3471H31.2295V67.7191H37.9284V67.3471Z" fill="#E6E6E6"/>
<path d="M41.588 68.7128H31.2227V69.0848H41.588V68.7128Z" fill="#3DA6F4"/>
<path d="M39.357 69.9995H31.2227V70.3715H39.357V69.9995Z" fill="#E6E6E6"/>
<path d="M36.0076 71.2862H31.2227V71.6581H36.0076V71.2862Z" fill="#E6E6E6"/>
<path d="M38.4 72.5729H31.2227V72.9448H38.4V72.5729Z" fill="#E6E6E6"/>
<path d="M28.957 67.2402H28.1914V67.9841H28.957V67.2402Z" fill="#E6E6E6"/>
<path d="M28.957 68.5268H28.1914V69.2708H28.957V68.5268Z" fill="#3DA6F4"/>
<path d="M28.957 69.8135H28.1914V70.5574H28.957V69.8135Z" fill="#E6E6E6"/>
<path d="M28.957 71.1003H28.1914V71.8441H28.957V71.1003Z" fill="#E6E6E6"/>
<path d="M28.957 72.3869H28.1914V73.1308H28.957V72.3869Z" fill="#E6E6E6"/>
<path d="M38.2652 54.5811H31.5156V61.1395H38.2652V54.5811Z" fill="#E6E6E6"/>
<path d="M103.438 0.0247192H58.5811V27.9392H103.438V0.0247192Z" fill="#E6E6E6"/>
<path d="M99.1538 7.8342H61.9629V21.4897H99.1538V7.8342Z" fill="white"/>
<path d="M77.6641 10.2H68.7383V10.6956H77.6641V10.2Z" fill="#E6E6E6"/>
<path d="M82.5406 12.0197H68.7295V12.5153H82.5406V12.0197Z" fill="#3DA6F4"/>
<path d="M79.568 13.7342H68.7295V14.2298H79.568V13.7342Z" fill="#E6E6E6"/>
<path d="M75.1051 15.4486H68.7295V15.9442H75.1051V15.4486Z" fill="#E6E6E6"/>
<path d="M78.2929 17.163H68.7295V17.6586H78.2929V17.163Z" fill="#E6E6E6"/>
<path d="M65.7105 10.0575H64.6904V11.0487H65.7105V10.0575Z" fill="#E6E6E6"/>
<path d="M65.7105 11.7719H64.6904V12.7631H65.7105V11.7719Z" fill="#3DA6F4"/>
<path d="M65.7105 13.4864H64.6904V14.4776H65.7105V13.4864Z" fill="#E6E6E6"/>
<path d="M65.7105 15.2008H64.6904V16.192H65.7105V15.2008Z" fill="#E6E6E6"/>
<path d="M65.7105 16.9152H64.6904V17.9064H65.7105V16.9152Z" fill="#E6E6E6"/>
<path d="M97.3286 9.54517H88.1963V18.4187H97.3286V9.54517Z" fill="#E6E6E6"/>
<path d="M103.419 0H58.5615V1.8517H103.419V0Z" fill="#3DA6F4"/>
<path d="M59.9782 1.31837C60.1895 1.31837 60.3608 1.15196 60.3608 0.946678C60.3608 0.741396 60.1895 0.574982 59.9782 0.574982C59.767 0.574982 59.5957 0.741396 59.5957 0.946678C59.5957 1.15196 59.767 1.31837 59.9782 1.31837Z" fill="white"/>
<path d="M61.3191 1.31837C61.5303 1.31837 61.7016 1.15196 61.7016 0.946678C61.7016 0.741396 61.5303 0.574982 61.3191 0.574982C61.1078 0.574982 60.9365 0.741396 60.9365 0.946678C60.9365 1.15196 61.1078 1.31837 61.3191 1.31837Z" fill="white"/>
<path d="M62.6589 1.31837C62.8702 1.31837 63.0414 1.15196 63.0414 0.946678C63.0414 0.741396 62.8702 0.574982 62.6589 0.574982C62.4476 0.574982 62.2764 0.741396 62.2764 0.946678C62.2764 1.15196 62.4476 1.31837 62.6589 1.31837Z" fill="white"/>
<path d="M133.476 52.2585H122.53V57.7537H133.476V52.2585Z" fill="#E6E6E6"/>
<path d="M133.476 71.9348H122.53V77.4299H133.476V71.9348Z" fill="#E6E6E6"/>
<path d="M128.003 73.7074C133.041 73.7074 137.125 69.7392 137.125 64.8442C137.125 59.9492 133.041 55.9811 128.003 55.9811C122.966 55.9811 118.882 59.9492 118.882 64.8442C118.882 69.7392 122.966 73.7074 128.003 73.7074Z" fill="#E6E6E6"/>
<path d="M128.004 71.7575C131.933 71.7575 135.118 68.6623 135.118 64.8442C135.118 61.0261 131.933 57.931 128.004 57.931C124.074 57.931 120.889 61.0261 120.889 64.8442C120.889 68.6623 124.074 71.7575 128.004 71.7575Z" fill="white"/>
<path d="M131.192 62.9501H125.674V63.2564H131.192V62.9501Z" fill="#E2E2E2"/>
<path d="M134.206 64.075H125.668V64.3814H134.206V64.075Z" fill="#3DA6F4"/>
<path d="M132.368 65.1349H125.668V65.4413H132.368V65.1349Z" fill="#E2E2E2"/>
<path d="M129.609 66.1947H125.668V66.5011H129.609V66.1947Z" fill="#E2E2E2"/>
<path d="M131.58 67.2546H125.668V67.561H131.58V67.2546Z" fill="#E2E2E2"/>
<path d="M123.802 62.8619H123.171V63.4747H123.802V62.8619Z" fill="#E2E2E2"/>
<path d="M123.802 63.9218H123.171V64.5346H123.802V63.9218Z" fill="#3DA6F4"/>
<path d="M123.802 64.9817H123.171V65.5945H123.802V64.9817Z" fill="#E2E2E2"/>
<path d="M123.802 66.0415H123.171V66.6543H123.802V66.0415Z" fill="#E2E2E2"/>
<path d="M123.802 67.1014H123.171V67.7142H123.802V67.1014Z" fill="#E2E2E2"/>
</svg>
