<svg width="27" height="42" viewBox="0 0 27 42" fill="none" xmlns="http://www.w3.org/2000/svg">
<path d="M12.4038 0.457893V19.6023C12.4038 19.8795 12.2937 20.1454 12.0976 20.3415C11.9016 20.5375 11.6357 20.6477 11.3584 20.6477C11.0812 20.6477 10.8152 20.5375 10.6192 20.3415C10.4231 20.1454 10.313 19.8795 10.313 19.6023V0.457893C10.313 -0.119707 10.7808 0.327215 11.3584 0.327215C11.6472 0.327215 11.6263 0.00770554 11.8158 0.196537C12.0046 0.386017 12.4038 0.169091 12.4038 0.457893Z" fill="#A0616A"/>
<path opacity="0.1" d="M12.4038 0.947876H10.313V1.73195H12.4038V0.947876Z" fill="black"/>
<path opacity="0.1" d="M12.4038 3.43079H10.313V4.21486H12.4038V3.43079Z" fill="black"/>
<path opacity="0.1" d="M12.4038 5.9137H10.313V6.69777H12.4038V5.9137Z" fill="black"/>
<path opacity="0.1" d="M12.4038 8.39661H10.313V9.18068H12.4038V8.39661Z" fill="black"/>
<path opacity="0.1" d="M12.4038 10.8795H10.313V11.6636H12.4038V10.8795Z" fill="black"/>
<path opacity="0.1" d="M12.4038 13.3624H10.313V14.1465H12.4038V13.3624Z" fill="black"/>
<path opacity="0.1" d="M12.4038 15.8452H10.313V16.6293H12.4038V15.8452Z" fill="black"/>
<path opacity="0.1" d="M12.4038 18.3281H10.313V19.1122H12.4038V18.3281Z" fill="black"/>
<path d="M11.3584 0.65388C11.9358 0.65388 12.4038 0.507613 12.4038 0.327184C12.4038 0.146755 11.9358 0.000488281 11.3584 0.000488281C10.781 0.000488281 10.313 0.146755 10.313 0.327184C10.313 0.507613 10.781 0.65388 11.3584 0.65388Z" fill="#A0616A"/>
<path opacity="0.1" d="M11.3584 0.65388C11.9358 0.65388 12.4038 0.507613 12.4038 0.327184C12.4038 0.146755 11.9358 0.000488281 11.3584 0.000488281C10.781 0.000488281 10.313 0.146755 10.313 0.327184C10.313 0.507613 10.781 0.65388 11.3584 0.65388Z" fill="black"/>
<path d="M22.2005 4.52197L10.0865 19.3462C9.99967 19.4525 9.89271 19.5407 9.77177 19.6057C9.65082 19.6707 9.51825 19.7113 9.38164 19.725C9.24502 19.7388 9.10704 19.7255 8.97556 19.6859C8.84408 19.6463 8.72168 19.5813 8.61536 19.4944C8.50903 19.4075 8.42087 19.3005 8.3559 19.1795C8.29093 19.0586 8.25041 18.926 8.23668 18.7894C8.22296 18.6528 8.23627 18.5148 8.27588 18.3833C8.31548 18.2518 8.3806 18.1295 8.4675 18.0232L20.5815 3.19894C20.947 2.75168 21.0265 3.39378 21.4737 3.75927C21.6973 3.94201 21.8833 3.68137 21.9106 3.94749C21.9369 4.2137 22.3833 4.29834 22.2005 4.52197Z" fill="#A0616A"/>
<path opacity="0.1" d="M20.2715 3.57841L19.7754 4.18555L21.3944 5.50858L21.8906 4.90144L20.2715 3.57841Z" fill="black"/>
<path opacity="0.1" d="M18.7002 5.50102L18.2041 6.10815L19.8231 7.43119L20.3193 6.82405L18.7002 5.50102Z" fill="black"/>
<path opacity="0.1" d="M17.1294 7.4235L16.6333 8.03064L18.2523 9.35367L18.7485 8.74654L17.1294 7.4235Z" fill="black"/>
<path opacity="0.1" d="M15.5581 9.34624L15.062 9.95337L16.681 11.2764L17.1772 10.6693L15.5581 9.34624Z" fill="black"/>
<path opacity="0.1" d="M13.9873 11.2686L13.4912 11.8757L15.1102 13.1988L15.6064 12.5916L13.9873 11.2686Z" fill="black"/>
<path opacity="0.1" d="M12.4161 13.1913L11.9199 13.7985L13.5389 15.1215L14.0351 14.5144L12.4161 13.1913Z" fill="black"/>
<path opacity="0.1" d="M10.8448 15.1138L10.3486 15.7209L11.9677 17.044L12.4638 16.4368L10.8448 15.1138Z" fill="black"/>
<path opacity="0.1" d="M9.27397 17.0364L8.77783 17.6436L10.3969 18.9666L10.893 18.3595L9.27397 17.0364Z" fill="black"/>
<path d="M22.2833 4.42077C22.3974 4.28106 22.1276 3.87163 21.6805 3.50628C21.2334 3.14093 20.7784 2.95802 20.6642 3.09774C20.5501 3.23745 20.82 3.64688 21.267 4.01222C21.7141 4.37757 22.1691 4.56048 22.2833 4.42077Z" fill="#A0616A"/>
<path opacity="0.1" d="M22.2833 4.42077C22.3974 4.28106 22.1276 3.87163 21.6805 3.50628C21.2334 3.14093 20.7784 2.95802 20.6642 3.09774C20.5501 3.23745 20.82 3.64688 21.267 4.01222C21.7141 4.37757 22.1691 4.56048 22.2833 4.42077Z" fill="black"/>
<path d="M22.1012 22.281H19.3033L19.3238 21.7576L19.444 18.6658L19.5041 17.1296H0.0219727L0.0526816 17.9157L0.132398 19.9654L0.283984 23.855L0.385258 26.4444L0.515937 29.7937L0.627014 32.6542L0.659031 33.4768L0.659684 33.4866L0.675366 33.8963L0.715876 34.9228L0.719795 35.0371L0.747237 35.7337L0.751811 35.8591L0.791671 36.8712L0.826954 37.7833L0.839369 38.0983L0.845249 38.2414L0.850479 38.3799C0.849788 38.85 0.941243 39.3157 1.11967 39.7507C1.16649 39.8659 1.21949 39.9784 1.27845 40.0879C1.70911 40.8917 2.42701 41.5037 3.28893 41.8017C3.40271 41.8416 3.51853 41.8754 3.63588 41.903C3.90967 41.968 4.19016 42.0007 4.47157 42.0003H15.0539C15.5862 42.0011 16.1121 41.8842 16.5939 41.658C17.1303 41.4043 17.5968 41.0237 17.953 40.5492C18.1043 40.348 18.234 40.1314 18.3398 39.903C18.3483 39.8847 18.3568 39.8664 18.364 39.8481C18.5442 39.4444 18.6478 39.0109 18.6698 38.5694C18.673 38.5066 18.675 38.4433 18.675 38.3799L18.709 37.5076L18.7508 36.4367L18.7547 36.3302L18.7981 35.2181H22.1012C23.2719 35.2168 24.3943 34.7512 25.2222 33.9233C26.05 33.0955 26.5157 31.9731 26.517 30.8023V26.6968C26.5157 25.526 26.05 24.4036 25.2222 23.5758C24.3943 22.748 23.2719 22.2823 22.1012 22.281ZM23.9034 30.8023C23.9029 31.2801 23.7128 31.7382 23.375 32.0761C23.0371 32.414 22.579 32.604 22.1012 32.6046H18.9006L18.9011 32.5928L18.9311 31.8205L18.954 31.2311L19.0834 27.9158L19.2011 24.8945H22.1012C22.579 24.8951 23.0371 25.0851 23.375 25.423C23.7128 25.7609 23.9029 26.219 23.9034 26.6968L23.9034 30.8023Z" fill="#3F3D56"/>
<path d="M4.7089 5.14778C5.87652 5.14778 6.82307 4.20123 6.82307 3.03361C6.82307 1.86598 5.87652 0.919434 4.7089 0.919434C3.54127 0.919434 2.59473 1.86598 2.59473 3.03361C2.59473 4.20123 3.54127 5.14778 4.7089 5.14778Z" fill="#D0CDE1"/>
<path d="M6.03676 10.159C7.6403 10.159 8.94023 8.85905 8.94023 7.25551C8.94023 5.65197 7.6403 4.35205 6.03676 4.35205C4.43323 4.35205 3.1333 5.65197 3.1333 7.25551C3.1333 8.85905 4.43323 10.159 6.03676 10.159Z" fill="#D0CDE1"/>
<path d="M6.89133 4.00229L3.55454 5.05157C3.52989 5.05932 3.50932 5.07655 3.49737 5.09946C3.48542 5.12238 3.48306 5.1491 3.49082 5.17375L3.55074 5.36431C3.55458 5.37652 3.56078 5.38785 3.569 5.39766C3.57722 5.40747 3.58729 5.41556 3.59863 5.42148C3.60998 5.4274 3.62238 5.43102 3.63512 5.43215C3.64787 5.43327 3.66072 5.43188 3.67292 5.42804L4.24004 5.2497L4.31633 5.28727L4.61248 8.02319L5.08177 8.3537L4.76209 5.50681L6.91322 6.56624L7.37189 6.33336L4.81579 5.06865L7.00971 4.37876C7.02191 4.37492 7.03325 4.36872 7.04306 4.3605C7.05286 4.35228 7.06096 4.34221 7.06688 4.33087C7.07279 4.31952 7.07642 4.30712 7.07754 4.29437C7.07867 4.28163 7.07727 4.26879 7.07343 4.25658L7.01351 4.06601C7.00967 4.05381 7.00347 4.04248 6.99525 4.03267C6.98703 4.02286 6.97696 4.01476 6.96561 4.00885C6.95427 4.00293 6.94187 3.99931 6.92912 3.99818C6.91638 3.99706 6.90353 3.99845 6.89133 4.00229Z" fill="#3DA6F4"/>
<path d="M3.30208 2.38265C3.30208 2.38265 4.03027 1.67892 3.98175 1.52463C3.93324 1.37033 3.44823 1.01419 2.83105 1.20827C2.83105 1.20827 2.58942 0.979055 2.4722 1.25329C2.35497 1.52752 2.68122 1.59448 2.68122 1.59448C2.68122 1.59448 2.51644 2.25669 3.11692 2.44087L3.30208 2.38265Z" fill="#3DA6F4"/>
<path d="M3.82929 3.03614C3.9227 3.03614 3.99842 2.96042 3.99842 2.86701C3.99842 2.7736 3.9227 2.69788 3.82929 2.69788C3.73588 2.69788 3.66016 2.7736 3.66016 2.86701C3.66016 2.96042 3.73588 3.03614 3.82929 3.03614Z" fill="#3F3D56"/>
<path d="M5.33515 2.56263C5.42856 2.56263 5.50428 2.48691 5.50428 2.3935C5.50428 2.30009 5.42856 2.22437 5.33515 2.22437C5.24174 2.22437 5.16602 2.30009 5.16602 2.3935C5.16602 2.48691 5.24174 2.56263 5.33515 2.56263Z" fill="#3F3D56"/>
<path d="M4.84023 2.93335L4.54443 3.02637L4.83194 3.94065L5.12773 3.84764L4.84023 2.93335Z" fill="#FF6584"/>
<path d="M5.77753 6.41285C5.87094 6.41285 5.94667 6.33713 5.94667 6.24372C5.94667 6.15031 5.87094 6.07458 5.77753 6.07458C5.68412 6.07458 5.6084 6.15031 5.6084 6.24372C5.6084 6.33713 5.68412 6.41285 5.77753 6.41285Z" fill="#3F3D56"/>
<path d="M5.96357 7.00428C6.05698 7.00428 6.1327 6.92856 6.1327 6.83515C6.1327 6.74174 6.05698 6.66602 5.96357 6.66602C5.87016 6.66602 5.79443 6.74174 5.79443 6.83515C5.79443 6.92856 5.87016 7.00428 5.96357 7.00428Z" fill="#3F3D56"/>
<path d="M6.1496 7.59596C6.24301 7.59596 6.31874 7.52023 6.31874 7.42682C6.31874 7.33341 6.24301 7.25769 6.1496 7.25769C6.05619 7.25769 5.98047 7.33341 5.98047 7.42682C5.98047 7.52023 6.05619 7.59596 6.1496 7.59596Z" fill="#3F3D56"/>
<path d="M5.0854 4.23005C4.81608 4.31123 4.53072 4.32364 4.25537 4.26614L4.26592 4.21077C4.53184 4.26959 4.80855 4.25755 5.06835 4.17585C5.32815 4.09416 5.56195 3.94567 5.74634 3.74524L5.78671 3.7846C5.59382 3.98934 5.35271 4.14248 5.0854 4.23005Z" fill="#3F3D56"/>
<path d="M5.9178 2.88309C5.99564 2.88309 6.05875 2.81998 6.05875 2.74214C6.05875 2.6643 5.99564 2.6012 5.9178 2.6012C5.83996 2.6012 5.77686 2.6643 5.77686 2.74214C5.77686 2.81998 5.83996 2.88309 5.9178 2.88309Z" fill="#FF6584"/>
<path d="M3.5511 3.62735C3.62894 3.62735 3.69205 3.56425 3.69205 3.4864C3.69205 3.40856 3.62894 3.34546 3.5511 3.34546C3.47326 3.34546 3.41016 3.40856 3.41016 3.4864C3.41016 3.56425 3.47326 3.62735 3.5511 3.62735Z" fill="#FF6584"/>
<path d="M12.4656 25.198C12.6489 25.198 12.7975 25.0494 12.7975 24.8662C12.7975 24.6829 12.6489 24.5343 12.4656 24.5343C12.2824 24.5343 12.1338 24.6829 12.1338 24.8662C12.1338 25.0494 12.2824 25.198 12.4656 25.198Z" fill="#D0CDE1"/>
<path d="M13.5111 30.6864C13.6943 30.6864 13.8429 30.5378 13.8429 30.3546C13.8429 30.1713 13.6943 30.0227 13.5111 30.0227C13.3278 30.0227 13.1792 30.1713 13.1792 30.3546C13.1792 30.5378 13.3278 30.6864 13.5111 30.6864Z" fill="#D0CDE1"/>
<path d="M6.97687 32.0585C7.16015 32.0585 7.30873 31.9099 7.30873 31.7266C7.30873 31.5433 7.16015 31.3948 6.97687 31.3948C6.7936 31.3948 6.64502 31.5433 6.64502 31.7266C6.64502 31.9099 6.7936 32.0585 6.97687 32.0585Z" fill="#D0CDE1"/>
<path d="M10.3094 38.3312C10.4927 38.3312 10.6412 38.1826 10.6412 37.9993C10.6412 37.8161 10.4927 37.6675 10.3094 37.6675C10.1261 37.6675 9.97754 37.8161 9.97754 37.9993C9.97754 38.1826 10.1261 38.3312 10.3094 38.3312Z" fill="#D0CDE1"/>
<path d="M2.86066 33.3001C3.04394 33.3001 3.19251 33.1515 3.19251 32.9682C3.19251 32.7849 3.04394 32.6364 2.86066 32.6364C2.67738 32.6364 2.52881 32.7849 2.52881 32.9682C2.52881 33.1515 2.67738 33.3001 2.86066 33.3001Z" fill="#D0CDE1"/>
<path d="M2.59943 26.8967C2.78271 26.8967 2.93129 26.7482 2.93129 26.5649C2.93129 26.3816 2.78271 26.233 2.59943 26.233C2.41615 26.233 2.26758 26.3816 2.26758 26.5649C2.26758 26.7482 2.41615 26.8967 2.59943 26.8967Z" fill="#D0CDE1"/>
<path d="M16.3861 24.3485C16.5693 24.3485 16.7179 24.1999 16.7179 24.0167C16.7179 23.8334 16.5693 23.6848 16.3861 23.6848C16.2028 23.6848 16.0542 23.8334 16.0542 24.0167C16.0542 24.1999 16.2028 24.3485 16.3861 24.3485Z" fill="#D0CDE1"/>
<path d="M5.99689 38.0044C6.18017 38.0044 6.32875 37.8558 6.32875 37.6726C6.32875 37.4893 6.18017 37.3407 5.99689 37.3407C5.81361 37.3407 5.66504 37.4893 5.66504 37.6726C5.66504 37.8558 5.81361 38.0044 5.99689 38.0044Z" fill="#D0CDE1"/>
<path d="M4.36346 22.9637C4.61192 22.9637 4.81334 22.7623 4.81334 22.5138C4.81334 22.2654 4.61192 22.064 4.36346 22.064C4.115 22.064 3.91357 22.2654 3.91357 22.5138C3.91357 22.7623 4.115 22.9637 4.36346 22.9637Z" fill="#D0CDE1"/>
<path d="M8.80633 27.6682C9.05479 27.6682 9.25621 27.4668 9.25621 27.2183C9.25621 26.9699 9.05479 26.7684 8.80633 26.7684C8.55786 26.7684 8.35645 26.9699 8.35645 27.2183C8.35645 27.4668 8.55786 27.6682 8.80633 27.6682Z" fill="#D0CDE1"/>
<path d="M14.5563 37.1423C14.8048 37.1423 15.0062 36.9409 15.0062 36.6924C15.0062 36.444 14.8048 36.2426 14.5563 36.2426C14.3079 36.2426 14.1064 36.444 14.1064 36.6924C14.1064 36.9409 14.3079 37.1423 14.5563 37.1423Z" fill="#D0CDE1"/>
<path d="M9.76291 18.3137C15.1548 18.3137 19.5258 17.7835 19.5258 17.1296C19.5258 16.4757 15.1548 15.9456 9.76291 15.9456C4.371 15.9456 0 16.4757 0 17.1296C0 17.7835 4.371 18.3137 9.76291 18.3137Z" fill="#A0616A"/>
<path d="M10.0052 4.87418C10.0052 4.87418 10.3058 7.22079 7.40334 8.00849C4.5009 8.79619 3.75344 10.4985 3.75344 10.4985C3.75344 10.4985 0.649307 11.3502 2.54866 13.2784C2.54866 13.2784 -1.85876 16.3195 2.44617 17.5732C6.7511 18.8269 18.381 17.9785 17.8935 15.6024C17.8935 15.6024 18.4984 14.5003 17.0962 14.2792C17.0962 14.2792 19.0488 11.6173 14.1191 10.0735C14.1191 10.0735 14.9208 9.24188 12.7759 9.47844C12.7759 9.47843 14.113 4.03705 10.0052 4.87418Z" fill="#D0CDE1"/>
<path d="M3.70308 10.6326L3.69531 10.4436C7.14455 10.3021 9.03861 9.2262 10.0202 8.3485C11.0806 7.40029 11.3332 6.47315 11.3356 6.46387L11.5187 6.51151C11.5085 6.55115 11.2544 7.49381 10.1575 8.47954C9.15306 9.38224 7.21788 10.4885 3.70308 10.6326Z" fill="#A0616A"/>
<path d="M2.51519 13.41L2.47314 13.2255C2.48807 13.2221 4.01354 12.8756 8.22125 12.0235C11.1015 11.4402 11.7916 10.8408 11.9466 10.5355C11.9784 10.4845 11.9908 10.4237 11.9813 10.3644L12.1532 10.2852C12.1596 10.2992 12.2135 10.4278 12.1153 10.6211C11.9071 11.0314 11.069 11.6399 8.25882 12.209C4.05406 13.0605 2.53012 13.4066 2.51519 13.41Z" fill="#A0616A"/>
<path d="M4.4223 14.1895C4.40442 14.1895 4.39134 14.1894 4.3833 14.1894L4.38432 14.0001C4.44988 14.001 11.3097 14.0096 13.4208 11.7402C13.8694 11.258 14.0726 10.6997 14.0246 10.0809L14.2134 10.0663C14.2656 10.74 14.0455 11.3466 13.5593 11.8692C11.4527 14.1335 5.04239 14.1895 4.4223 14.1895Z" fill="#A0616A"/>
<path d="M12.4564 16.5149C12.4503 16.5149 12.4468 16.5148 12.4458 16.5148L12.4485 16.3256C12.4806 16.3252 15.7548 16.3471 17.0145 14.2308L17.1771 14.3277C15.898 16.4766 12.6676 16.5149 12.4564 16.5149Z" fill="#A0616A"/>
<path d="M10.4623 4.74368C10.4623 4.74368 10.7628 7.0903 7.86037 7.878C4.95793 8.6657 4.21047 10.368 4.21047 10.368C4.21047 10.368 1.10634 11.2197 3.00569 13.1479C3.00569 13.1479 -1.40173 16.1891 2.9032 17.4427C7.20813 18.6964 18.838 17.848 18.3505 15.4719C18.3505 15.4719 18.9554 14.3698 17.5533 14.1487C17.5533 14.1487 19.5059 11.4868 14.5761 9.94296C14.5761 9.94296 15.3778 9.11139 13.2329 9.34794C13.2329 9.34794 14.57 3.90656 10.4623 4.74368Z" fill="#D0CDE1"/>
<path d="M4.16059 10.5019L4.15283 10.3128C7.60207 10.1714 9.49612 9.09546 10.4777 8.21776C11.5381 7.26955 11.7907 6.34242 11.7931 6.33313L11.9763 6.38077C11.966 6.42042 11.712 7.36308 10.6151 8.3488C9.61058 9.2515 7.6754 10.3578 4.16059 10.5019Z" fill="#A0616A"/>
<path d="M2.97271 13.2795L2.93066 13.095C2.94559 13.0916 4.47106 12.7451 8.67878 11.893C11.559 11.3097 12.2491 10.7103 12.4041 10.405C12.4359 10.354 12.4483 10.2932 12.4388 10.2339L12.6107 10.1547C12.6172 10.1687 12.671 10.2973 12.5728 10.4906C12.3646 10.9009 11.5265 11.5094 8.71634 12.0785C4.51158 12.93 2.98764 13.2761 2.97271 13.2795Z" fill="#A0616A"/>
<path d="M4.87933 14.0589C4.86145 14.0589 4.84837 14.0588 4.84033 14.0588L4.84135 13.8695C4.90691 13.8704 11.7667 13.8789 13.8778 11.6096C14.3265 11.1273 14.5296 10.5691 14.4817 9.95027L14.6704 9.93567C14.7226 10.6094 14.5025 11.216 14.0163 11.7386C11.9098 14.0029 5.49942 14.0589 4.87933 14.0589Z" fill="#A0616A"/>
<path d="M12.9139 16.3841C12.9078 16.3841 12.9043 16.3841 12.9033 16.3841L12.906 16.1948C12.9382 16.1945 16.2123 16.2163 17.472 14.1001L17.6347 14.1969C16.3555 16.3459 13.1252 16.3841 12.9139 16.3841Z" fill="#A0616A"/>
</svg>
