<svg width="159" height="126" viewBox="0 0 159 126" fill="none" xmlns="http://www.w3.org/2000/svg">
<path d="M84.4924 108.365L49.9971 107.917L50.0979 107.022L51.7661 92.2476H82.06L84.289 107.022L84.4588 108.141L84.4924 108.365Z" fill="#D0D2D5"/>
<path opacity="0.1" d="M84.4588 108.141H67.2447L49.9971 107.917L50.0979 107.022H84.289L84.4588 108.141Z" fill="black"/>
<path d="M90.0207 107.246H44.248V108.365H90.0207V107.246Z" fill="#D0D2D5"/>
<path d="M133.692 3.50986C133.694 3.12724 133.621 2.74799 133.478 2.39377C133.335 2.03955 133.125 1.7173 132.859 1.44541C132.593 1.17353 132.277 0.957329 131.928 0.809169C131.58 0.661009 131.206 0.583786 130.828 0.581909H2.99861C2.6205 0.583551 2.24641 0.6606 1.89772 0.808656C1.54903 0.956711 1.23258 1.17287 0.966446 1.44478C0.700311 1.71669 0.48971 2.03902 0.346678 2.39336C0.203645 2.74769 0.130985 3.12709 0.132847 3.50986V81.9469H133.692V3.50986Z" fill="#444053"/>
<path d="M0.132812 81.1679V90.3547C0.132812 91.1241 0.434741 91.862 0.972176 92.4061C1.50961 92.9502 2.23853 93.2558 2.99858 93.2558H130.828C131.587 93.2553 132.316 92.9495 132.853 92.4055C133.39 91.8615 133.692 91.1238 133.692 90.3547V81.1679H0.132812Z" fill="#D0D2D5"/>
<path opacity="0.1" d="M128.827 5.50659H5.66113V76.0194H128.827V5.50659Z" fill="#3DA6F4"/>
<path d="M67.5756 89.7691C68.0279 89.7694 68.4743 89.6657 68.8813 89.466C69.2882 89.2662 69.6451 88.9755 69.9249 88.6158C70.0098 88.506 70.0872 88.3906 70.1566 88.2702L68.5185 87.998L70.2875 88.0123C70.4581 87.638 70.5512 87.2323 70.5609 86.8202C70.5707 86.4081 70.4969 85.9984 70.3441 85.6163L67.9684 86.8698L70.1602 85.2402C69.9542 84.8826 69.6779 84.5717 69.3483 84.3267C69.0188 84.0817 68.643 83.9079 68.2443 83.816C67.8456 83.7241 67.4325 83.7162 67.0306 83.7927C66.6288 83.8691 66.2467 84.0284 65.9082 84.2605C65.5697 84.4927 65.2819 84.7928 65.0627 85.1422C64.8435 85.4916 64.6976 85.8829 64.634 86.2918C64.5704 86.7007 64.5905 87.1185 64.693 87.5192C64.7955 87.9199 64.9783 88.295 65.2299 88.6212C65.5097 88.9796 65.8662 89.2691 66.2725 89.4679C66.6788 89.6668 67.1244 89.7697 67.5756 89.7691Z" fill="#3DA6F4"/>
<path opacity="0.1" d="M70.5625 93.2558L84.3235 107.246L82.2131 93.2558H70.5625Z" fill="black"/>
<path d="M89.6622 18.2285H9.73924C9.48522 18.2285 9.2793 18.4369 9.2793 18.6941V66.8308C9.2793 67.0879 9.48522 67.2964 9.73924 67.2964H89.6622C89.9163 67.2964 90.1222 67.0879 90.1222 66.8308V18.6941C90.1222 18.4369 89.9163 18.2285 89.6622 18.2285Z" fill="white"/>
<path d="M128.863 5.51379H5.74121V9.63263H128.863V5.51379Z" fill="white"/>
<path d="M9.67149 6.2301H6.40947C6.33326 6.2301 6.27148 6.29264 6.27148 6.36978V8.59754C6.27148 8.67469 6.33326 8.73722 6.40947 8.73722H9.67149C9.74769 8.73722 9.80947 8.67469 9.80947 8.59754V6.36978C9.80947 6.29264 9.74769 6.2301 9.67149 6.2301Z" fill="#3DA6F4"/>
<path opacity="0.3" d="M85.4202 6.2301H48.4766C48.42 6.2301 48.374 6.27661 48.374 6.33397V8.63336C48.374 8.69072 48.42 8.73722 48.4766 8.73722H85.4202C85.4769 8.73722 85.5228 8.69072 85.5228 8.63336V6.33397C85.5228 6.27661 85.4769 6.2301 85.4202 6.2301Z" fill="#3DA6F4"/>
<path d="M84.4205 7.74152H84.3302L84.2966 7.71286C84.4101 7.57649 84.4728 7.4041 84.4735 7.22576C84.4725 7.07929 84.4286 6.93641 84.3474 6.81516C84.2662 6.69391 84.1514 6.59972 84.0174 6.54448C83.8833 6.48924 83.7362 6.47543 83.5944 6.50479C83.4526 6.53414 83.3226 6.60535 83.2208 6.70943C83.119 6.8135 83.0499 6.94578 83.0223 7.08957C82.9946 7.23335 83.0097 7.3822 83.0656 7.51733C83.1214 7.65245 83.2156 7.7678 83.3361 7.84882C83.4567 7.92983 83.5982 7.97288 83.7429 7.97253C83.919 7.97145 84.0892 7.9081 84.2241 7.79345L84.2577 7.8221V7.91523L84.8238 8.48829L85.0007 8.3092L84.4205 7.74152ZM83.7411 7.74152C83.6399 7.74187 83.5408 7.71178 83.4565 7.65504C83.3721 7.59831 83.3063 7.5175 83.2674 7.42286C83.2285 7.32822 83.2182 7.22401 83.2379 7.12345C83.2575 7.02289 83.3063 6.93051 83.3779 6.85802C83.4495 6.78553 83.5407 6.7362 83.6401 6.71629C83.7394 6.69638 83.8424 6.70678 83.9358 6.74617C84.0293 6.78557 84.1092 6.85218 84.1652 6.93756C84.2212 7.02295 84.251 7.12325 84.2506 7.22576C84.2511 7.29363 84.2382 7.36091 84.2128 7.4237C84.1874 7.48649 84.1499 7.54353 84.1025 7.59152C84.0551 7.63951 83.9987 7.67748 83.9367 7.70323C83.8747 7.72898 83.8082 7.74199 83.7411 7.74152Z" fill="#444053"/>
<path d="M127.094 8.73722C127.778 8.73722 128.332 8.17599 128.332 7.48366C128.332 6.79134 127.778 6.2301 127.094 6.2301C126.41 6.2301 125.855 6.79134 125.855 7.48366C125.855 8.17599 126.41 8.73722 127.094 8.73722Z" fill="#3DA6F4"/>
<path d="M107.028 14.1096H96.3889C96.1514 14.1096 95.959 14.3045 95.959 14.5448V21.554C95.959 21.7943 96.1514 21.9891 96.3889 21.9891H107.028C107.265 21.9891 107.457 21.7943 107.457 21.554V14.5448C107.457 14.3045 107.265 14.1096 107.028 14.1096Z" fill="white"/>
<path d="M125.216 14.1096H110.573C110.513 14.1096 110.465 14.1585 110.465 14.2189V15.254C110.465 15.3143 110.513 15.3632 110.573 15.3632H125.216C125.276 15.3632 125.324 15.3143 125.324 15.254V14.2189C125.324 14.1585 125.276 14.1096 125.216 14.1096Z" fill="white"/>
<path d="M125.216 16.7958H110.573C110.513 16.7958 110.465 16.8447 110.465 16.905V17.9401C110.465 18.0005 110.513 18.0494 110.573 18.0494H125.216C125.276 18.0494 125.324 18.0005 125.324 17.9401V16.905C125.324 16.8447 125.276 16.7958 125.216 16.7958Z" fill="white"/>
<path d="M125.216 19.482H110.573C110.513 19.482 110.465 19.5309 110.465 19.5913V20.6263C110.465 20.6867 110.513 20.7356 110.573 20.7356H125.216C125.276 20.7356 125.324 20.6867 125.324 20.6263V19.5913C125.324 19.5309 125.276 19.482 125.216 19.482Z" fill="white"/>
<path d="M107.028 26.4661H96.3889C96.1514 26.4661 95.959 26.661 95.959 26.9013V33.9105C95.959 34.1508 96.1514 34.3456 96.3889 34.3456H107.028C107.265 34.3456 107.457 34.1508 107.457 33.9105V26.9013C107.457 26.661 107.265 26.4661 107.028 26.4661Z" fill="white"/>
<path d="M125.216 26.4661H110.573C110.513 26.4661 110.465 26.515 110.465 26.5754V27.6105C110.465 27.6708 110.513 27.7197 110.573 27.7197H125.216C125.276 27.7197 125.324 27.6708 125.324 27.6105V26.5754C125.324 26.515 125.276 26.4661 125.216 26.4661Z" fill="white"/>
<path d="M125.216 29.1523H110.573C110.513 29.1523 110.465 29.2012 110.465 29.2616V30.2967C110.465 30.357 110.513 30.4059 110.573 30.4059H125.216C125.276 30.4059 125.324 30.357 125.324 30.2967V29.2616C125.324 29.2012 125.276 29.1523 125.216 29.1523Z" fill="white"/>
<path d="M125.208 31.8385H110.582C110.517 31.8385 110.465 31.8914 110.465 31.9567V32.9739C110.465 33.0392 110.517 33.0921 110.582 33.0921H125.208C125.272 33.0921 125.324 33.0392 125.324 32.9739V31.9567C125.324 31.8914 125.272 31.8385 125.208 31.8385Z" fill="white"/>
<path d="M107.028 38.8227H96.3889C96.1514 38.8227 95.959 39.0175 95.959 39.2578V46.267C95.959 46.5074 96.1514 46.7022 96.3889 46.7022H107.028C107.265 46.7022 107.457 46.5074 107.457 46.267V39.2578C107.457 39.0175 107.265 38.8227 107.028 38.8227Z" fill="white"/>
<path d="M125.208 38.8227H110.582C110.517 38.8227 110.465 38.8756 110.465 38.9409V39.958C110.465 40.0233 110.517 40.0762 110.582 40.0762H125.208C125.272 40.0762 125.324 40.0233 125.324 39.958V38.9409C125.324 38.8756 125.272 38.8227 125.208 38.8227Z" fill="white"/>
<path d="M125.208 41.5089H110.582C110.517 41.5089 110.465 41.5618 110.465 41.627V42.6442C110.465 42.7095 110.517 42.7624 110.582 42.7624H125.208C125.272 42.7624 125.324 42.7095 125.324 42.6442V41.627C125.324 41.5618 125.272 41.5089 125.208 41.5089Z" fill="white"/>
<path d="M125.208 44.1951H110.582C110.517 44.1951 110.465 44.248 110.465 44.3132V45.3304C110.465 45.3957 110.517 45.4486 110.582 45.4486H125.208C125.272 45.4486 125.324 45.3957 125.324 45.3304V44.3132C125.324 44.248 125.272 44.1951 125.208 44.1951Z" fill="white"/>
<path d="M107.028 51.1792H96.3889C96.1514 51.1792 95.959 51.374 95.959 51.6143V58.6235C95.959 58.8639 96.1514 59.0587 96.3889 59.0587H107.028C107.265 59.0587 107.457 58.8639 107.457 58.6235V51.6143C107.457 51.374 107.265 51.1792 107.028 51.1792Z" fill="white"/>
<path d="M125.208 51.1792H110.582C110.517 51.1792 110.465 51.2321 110.465 51.2974V52.3146C110.465 52.3798 110.517 52.4328 110.582 52.4328H125.208C125.272 52.4328 125.324 52.3798 125.324 52.3146V51.2974C125.324 51.2321 125.272 51.1792 125.208 51.1792Z" fill="white"/>
<path d="M125.208 53.8653H110.582C110.517 53.8653 110.465 53.9182 110.465 53.9835V55.0007C110.465 55.066 110.517 55.1189 110.582 55.1189H125.208C125.272 55.1189 125.324 55.066 125.324 55.0007V53.9835C125.324 53.9182 125.272 53.8653 125.208 53.8653Z" fill="white"/>
<path d="M125.208 56.5515H110.582C110.517 56.5515 110.465 56.6045 110.465 56.6697V57.6869C110.465 57.7522 110.517 57.8051 110.582 57.8051H125.208C125.272 57.8051 125.324 57.7522 125.324 57.6869V56.6697C125.324 56.6045 125.272 56.5515 125.208 56.5515Z" fill="white"/>
<path d="M107.028 63.5357H96.3889C96.1514 63.5357 95.959 63.7305 95.959 63.9709V70.9801C95.959 71.2204 96.1514 71.4152 96.3889 71.4152H107.028C107.265 71.4152 107.457 71.2204 107.457 70.9801V63.9709C107.457 63.7305 107.265 63.5357 107.028 63.5357Z" fill="white"/>
<path d="M125.208 63.5357H110.582C110.517 63.5357 110.465 63.5886 110.465 63.6539V64.6711C110.465 64.7364 110.517 64.7893 110.582 64.7893H125.208C125.272 64.7893 125.324 64.7364 125.324 64.6711V63.6539C125.324 63.5886 125.272 63.5357 125.208 63.5357Z" fill="white"/>
<path d="M125.208 66.2219H110.582C110.517 66.2219 110.465 66.2748 110.465 66.3401V67.3573C110.465 67.4226 110.517 67.4755 110.582 67.4755H125.208C125.272 67.4755 125.324 67.4226 125.324 67.3573V66.3401C125.324 66.2748 125.272 66.2219 125.208 66.2219Z" fill="white"/>
<path d="M125.208 68.9081H110.582C110.517 68.9081 110.465 68.961 110.465 69.0263V70.0435C110.465 70.1088 110.517 70.1617 110.582 70.1617H125.208C125.272 70.1617 125.324 70.1088 125.324 70.0435V69.0263C125.324 68.961 125.272 68.9081 125.208 68.9081Z" fill="white"/>
<path opacity="0.1" d="M39.131 31.2314H20.9404V32.1859H39.131V31.2314Z" fill="#3DA6F4"/>
<path opacity="0.1" d="M24.3079 26.185H22.5566V31.2315H24.3079V26.185Z" fill="#3DA6F4"/>
<path opacity="0.1" d="M26.8675 26.185H25.1162V31.2315H26.8675V26.185Z" fill="#3DA6F4"/>
<path opacity="0.1" d="M29.4281 26.185H27.6768V31.2315H29.4281V26.185Z" fill="#3DA6F4"/>
<path opacity="0.1" d="M31.9876 26.185H30.2363V31.2315H31.9876V26.185Z" fill="#3DA6F4"/>
<path opacity="0.1" d="M34.5473 26.185H32.7959V31.2315H34.5473V26.185Z" fill="#3DA6F4"/>
<path opacity="0.1" d="M37.1087 26.185H35.3574V31.2315H37.1087V26.185Z" fill="#3DA6F4"/>
<path opacity="0.1" d="M24.3079 27.1395H22.5566V27.6857H24.3079V27.1395Z" fill="#3DA6F4"/>
<path opacity="0.1" d="M26.8675 27.1395H25.1162V27.6857H26.8675V27.1395Z" fill="#3DA6F4"/>
<path opacity="0.1" d="M29.4281 27.1395H27.6768V27.6857H29.4281V27.1395Z" fill="#3DA6F4"/>
<path opacity="0.1" d="M31.9876 27.1395H30.2363V27.6857H31.9876V27.1395Z" fill="#3DA6F4"/>
<path opacity="0.1" d="M34.5473 27.1395H32.7959V27.6857H34.5473V27.1395Z" fill="#3DA6F4"/>
<path opacity="0.1" d="M37.1087 27.1395H35.3574V27.6857H37.1087V27.1395Z" fill="#3DA6F4"/>
<path opacity="0.1" d="M24.3079 29.5947H22.5566V30.1409H24.3079V29.5947Z" fill="#3DA6F4"/>
<path opacity="0.1" d="M26.8675 29.5947H25.1162V30.1409H26.8675V29.5947Z" fill="#3DA6F4"/>
<path opacity="0.1" d="M29.4281 29.5947H27.6768V30.1409H29.4281V29.5947Z" fill="#3DA6F4"/>
<path opacity="0.1" d="M31.9876 29.5947H30.2363V30.1409H31.9876V29.5947Z" fill="#3DA6F4"/>
<path opacity="0.1" d="M34.5473 29.5947H32.7959V30.1409H34.5473V29.5947Z" fill="#3DA6F4"/>
<path opacity="0.1" d="M37.1087 29.5947H35.3574V30.1409H37.1087V29.5947Z" fill="#3DA6F4"/>
<path opacity="0.1" d="M79.0128 33.6866H60.8223V34.6411H79.0128V33.6866Z" fill="#3DA6F4"/>
<path opacity="0.1" d="M64.1898 28.6402H62.4385V33.6866H64.1898V28.6402Z" fill="#3DA6F4"/>
<path opacity="0.1" d="M66.7503 28.6402H64.999V33.6866H66.7503V28.6402Z" fill="#3DA6F4"/>
<path opacity="0.1" d="M69.3099 28.6402H67.5586V33.6866H69.3099V28.6402Z" fill="#3DA6F4"/>
<path opacity="0.1" d="M71.8714 28.6402H70.1201V33.6866H71.8714V28.6402Z" fill="#3DA6F4"/>
<path opacity="0.1" d="M74.431 28.6402H72.6797V33.6866H74.431V28.6402Z" fill="#3DA6F4"/>
<path opacity="0.1" d="M76.9906 28.6402H75.2393V33.6866H76.9906V28.6402Z" fill="#3DA6F4"/>
<path opacity="0.1" d="M64.1898 29.5947H62.4385V30.1409H64.1898V29.5947Z" fill="#3DA6F4"/>
<path opacity="0.1" d="M66.7503 29.5947H64.999V30.1409H66.7503V29.5947Z" fill="#3DA6F4"/>
<path opacity="0.1" d="M69.3099 29.5947H67.5586V30.1409H69.3099V29.5947Z" fill="#3DA6F4"/>
<path opacity="0.1" d="M71.8714 29.5947H70.1201V30.1409H71.8714V29.5947Z" fill="#3DA6F4"/>
<path opacity="0.1" d="M74.431 29.5947H72.6797V30.1409H74.431V29.5947Z" fill="#3DA6F4"/>
<path opacity="0.1" d="M76.9906 29.5947H75.2393V30.1409H76.9906V29.5947Z" fill="#3DA6F4"/>
<path opacity="0.1" d="M64.1898 32.0499H62.4385V32.596H64.1898V32.0499Z" fill="#3DA6F4"/>
<path opacity="0.1" d="M66.7503 32.0499H64.999V32.596H66.7503V32.0499Z" fill="#3DA6F4"/>
<path opacity="0.1" d="M69.3099 32.0499H67.5586V32.596H69.3099V32.0499Z" fill="#3DA6F4"/>
<path opacity="0.1" d="M71.8714 32.0499H70.1201V32.596H71.8714V32.0499Z" fill="#3DA6F4"/>
<path opacity="0.1" d="M74.431 32.0499H72.6797V32.596H74.431V32.0499Z" fill="#3DA6F4"/>
<path opacity="0.1" d="M76.9906 32.0499H75.2393V32.596H76.9906V32.0499Z" fill="#3DA6F4"/>
<path opacity="0.1" d="M79.0128 40.6421H60.8223V41.5966H79.0128V40.6421Z" fill="#3DA6F4"/>
<path opacity="0.1" d="M64.1898 35.5956H62.4385V40.6421H64.1898V35.5956Z" fill="#3DA6F4"/>
<path opacity="0.1" d="M66.7503 35.5956H64.999V40.6421H66.7503V35.5956Z" fill="#3DA6F4"/>
<path opacity="0.1" d="M69.3099 35.5956H67.5586V40.6421H69.3099V35.5956Z" fill="#3DA6F4"/>
<path opacity="0.1" d="M71.8714 35.5956H70.1201V40.6421H71.8714V35.5956Z" fill="#3DA6F4"/>
<path opacity="0.1" d="M74.431 35.5956H72.6797V40.6421H74.431V35.5956Z" fill="#3DA6F4"/>
<path opacity="0.1" d="M76.9906 35.5956H75.2393V40.6421H76.9906V35.5956Z" fill="#3DA6F4"/>
<path opacity="0.1" d="M64.1898 36.5501H62.4385V37.0963H64.1898V36.5501Z" fill="#3DA6F4"/>
<path opacity="0.1" d="M66.7503 36.5501H64.999V37.0963H66.7503V36.5501Z" fill="#3DA6F4"/>
<path opacity="0.1" d="M69.3099 36.5501H67.5586V37.0963H69.3099V36.5501Z" fill="#3DA6F4"/>
<path opacity="0.1" d="M71.8714 36.5501H70.1201V37.0963H71.8714V36.5501Z" fill="#3DA6F4"/>
<path opacity="0.1" d="M74.431 36.5501H72.6797V37.0963H74.431V36.5501Z" fill="#3DA6F4"/>
<path opacity="0.1" d="M76.9906 36.5501H75.2393V37.0963H76.9906V36.5501Z" fill="#3DA6F4"/>
<path opacity="0.1" d="M64.1898 39.0053H62.4385V39.5515H64.1898V39.0053Z" fill="#3DA6F4"/>
<path opacity="0.1" d="M66.7503 39.0053H64.999V39.5515H66.7503V39.0053Z" fill="#3DA6F4"/>
<path opacity="0.1" d="M69.3099 39.0053H67.5586V39.5515H69.3099V39.0053Z" fill="#3DA6F4"/>
<path opacity="0.1" d="M71.8714 39.0053H70.1201V39.5515H71.8714V39.0053Z" fill="#3DA6F4"/>
<path opacity="0.1" d="M74.431 39.0053H72.6797V39.5515H74.431V39.0053Z" fill="#3DA6F4"/>
<path opacity="0.1" d="M76.9906 39.0053H75.2393V39.5515H76.9906V39.0053Z" fill="#3DA6F4"/>
<path opacity="0.1" d="M32.0993 42.0246C31.9636 41.8486 31.8395 41.6637 31.7278 41.4713L34.3476 41.0361L31.5173 41.0576C31.2458 40.4592 31.0976 39.8111 31.0818 39.1528C31.066 38.4945 31.1828 37.8399 31.4253 37.2288L35.2198 39.2202L31.7154 36.6128C32.0414 36.0338 32.4822 35.5292 33.01 35.1308C33.5378 34.7324 34.1413 34.4488 34.7825 34.2977C35.4238 34.1466 36.0889 34.1314 36.7363 34.253C37.3836 34.3746 37.9991 34.6304 38.5442 35.0042C39.0892 35.3781 39.552 35.862 39.9036 36.4256C40.2551 36.9891 40.4877 37.6202 40.5868 38.2791C40.6859 38.938 40.6494 39.6105 40.4796 40.2545C40.3097 40.8984 40.0102 41.4999 39.5998 42.021C39.813 42.2934 39.9957 42.5889 40.1446 42.9021L36.7446 44.6929L40.3693 43.4626C40.6228 44.2234 40.6853 45.0361 40.5509 45.8274C40.4166 46.6187 40.0897 47.3637 39.5998 47.9951C40.1552 48.708 40.5011 49.5648 40.5979 50.4675C40.6947 51.3701 40.5385 52.2821 40.1472 53.099C39.7558 53.916 39.1452 54.6049 38.3852 55.0869C37.6251 55.5689 36.7464 55.8245 35.8495 55.8245C34.9526 55.8245 34.0739 55.5689 33.3138 55.0869C32.5538 54.6049 31.9432 53.916 31.5519 53.099C31.1605 52.2821 31.0043 51.3701 31.1012 50.4675C31.198 49.5648 31.5439 48.708 32.0993 47.9951C31.4377 47.1431 31.0781 46.0909 31.0781 45.0072C31.0781 43.9235 31.4377 42.8712 32.0993 42.0192V42.0246Z" fill="#3DA6F4"/>
<path opacity="0.1" d="M40.6222 45.0117C40.6224 46.0942 40.2622 47.1453 39.5998 47.9951C40.1552 48.708 40.5011 49.5648 40.5979 50.4675C40.6947 51.3701 40.5385 52.2821 40.1472 53.099C39.7558 53.916 39.1452 54.6049 38.3852 55.0869C37.6251 55.5689 36.7464 55.8245 35.8495 55.8245C34.9526 55.8245 34.0739 55.5689 33.3138 55.0869C32.5538 54.6049 31.9432 53.916 31.5519 53.099C31.1605 52.2821 31.0043 51.3701 31.1012 50.4675C31.198 49.5648 31.5439 48.708 32.0993 47.9951C31.4571 47.1767 40.6222 44.4691 40.6222 45.0117Z" fill="#3DA6F4"/>
<path opacity="0.2" d="M36.6133 57.1067C36.6216 57.1194 36.6293 57.1326 36.6363 57.1461H35.0159C35.0247 57.1336 35.0301 57.1192 35.0389 57.1067C34.8994 56.8611 34.8274 56.5823 34.8302 56.299C34.8294 56.1049 34.8623 55.9122 34.9274 55.7296C35.0177 55.7439 35.1291 55.76 35.2583 55.7743C35.6341 55.8124 36.0128 55.8124 36.3886 55.7743C36.4971 55.7636 36.6086 55.7493 36.723 55.7313C36.7221 55.7343 36.7221 55.7374 36.723 55.7403C36.7874 55.9199 36.8197 56.1097 36.8185 56.3008C36.8221 56.5831 36.7512 56.8613 36.6133 57.1067Z" fill="#3F3D56"/>
<path opacity="0.1" d="M30.7894 57.1461H21.7676C21.7481 57.0942 21.7304 57.0387 21.7145 56.985C21.3966 55.9502 21.4334 54.837 21.8189 53.826C20.9381 53.2096 20.2875 52.3114 19.9715 51.2758C19.6555 50.2401 19.6925 49.127 20.0764 48.1151C19.8951 47.9888 19.7231 47.8493 19.5616 47.6979L21.9356 46.4998L19.2361 47.3666C18.8021 46.8763 18.4715 46.3014 18.2646 45.6773C18.0578 45.0531 17.979 44.3927 18.0332 43.7366L22.2452 44.5066L18.1376 43.0615C18.2793 42.4098 18.5527 41.7949 18.9405 41.2555C19.3284 40.716 19.8224 40.2637 20.3914 39.9269C20.9604 39.5901 21.5921 39.3762 22.2467 39.2986C22.9014 39.221 23.5648 39.2814 24.1952 39.476C24.8257 39.6706 25.4095 39.9952 25.91 40.4294C26.4105 40.8635 26.8168 41.3978 27.1034 41.9987C27.39 42.5996 27.5506 43.254 27.5751 43.9207C27.5997 44.5875 27.4877 45.2522 27.2461 45.873C27.531 46.0737 27.7938 46.3049 28.0298 46.5625L25.302 49.2863L28.4066 47.0263C28.8719 47.678 29.1692 48.4369 29.2718 49.2343C29.3743 50.0316 29.2788 50.8423 28.9939 51.5929C29.8507 52.1935 30.4899 53.0612 30.814 54.0639C31.1382 55.0665 31.1296 56.1489 30.7894 57.1461Z" fill="#3DA6F4"/>
<path opacity="0.1" d="M30.7901 57.1461H21.7683C21.7488 57.0942 21.7311 57.0387 21.7152 56.985C21.3973 55.9502 21.4341 54.837 21.8196 53.826C20.9704 53.2314 28.9362 47.9038 29.0936 48.4231C29.4115 49.4586 29.3747 50.5723 28.9893 51.5839C29.8488 52.1843 30.4903 53.0532 30.8156 54.0578C31.1408 55.0624 31.1319 56.1472 30.7901 57.1461Z" fill="#3DA6F4"/>
<path opacity="0.1" d="M71.6094 50.6025C71.0615 51.5335 70.2195 52.2502 69.2195 52.6369C69.2623 52.9814 69.2688 53.3296 69.239 53.6755L65.4162 53.4427L69.1505 54.2629C69.0406 54.7782 68.8482 55.2718 68.5809 55.7242C68.2554 56.2782 67.8221 56.7596 67.3072 57.1389H62.1029V57.2768H56.7959C56.8065 57.2303 56.8171 57.1855 56.8295 57.1389C57.0231 56.398 57.388 55.7143 57.8939 55.1442C58.3999 54.5741 59.0325 54.1339 59.7395 53.86C59.6037 52.785 59.8287 51.695 60.3782 50.7649C60.9277 49.8348 61.77 49.1186 62.7698 48.7311C62.7418 48.5096 62.7288 48.2865 62.7309 48.0632L65.1986 49.0499L62.7574 47.5976C62.8294 46.943 63.0326 46.3103 63.3548 45.7381C63.6769 45.166 64.1111 44.6665 64.6308 44.2703L66.8791 47.9557L65.1933 43.8978C66.1116 43.3834 67.1717 43.1895 68.2098 43.3461C69.2478 43.5027 70.206 44.0011 70.9363 44.7642C71.6665 45.5273 72.1282 46.5126 72.2498 47.5679C72.3715 48.6232 72.1464 49.6897 71.6094 50.6025Z" fill="#3DA6F4"/>
<path opacity="0.1" d="M68.5809 55.7313C68.2554 56.2854 67.8221 56.7667 67.3072 57.1461H62.1029V57.284H56.7959C56.8065 57.2374 56.8171 57.1926 56.8295 57.1461C57.0231 56.4052 57.388 55.7215 57.8939 55.1514C58.3999 54.5813 59.0325 54.1411 59.7395 53.8671C59.6953 53.509 60.7231 53.5627 62.094 53.7955C64.7811 54.2521 68.7631 55.4233 68.5809 55.7313Z" fill="#3DA6F4"/>
<path d="M46.023 42.8358C46.023 42.8358 46.6776 46.4174 45.2164 47.5868C43.7552 48.7562 46.4547 55.7654 50.909 54.947C55.3633 54.1286 57.1783 48.2494 57.1783 48.2494C57.1783 48.2494 52.7169 47.3146 54.3709 42.5636L46.023 42.8358Z" fill="#EE8E9E"/>
<path opacity="0.1" d="M46.023 42.8358C46.023 42.8358 46.6776 46.4174 45.2164 47.5868C43.7552 48.7562 46.4547 55.7654 50.909 54.947C55.3633 54.1286 57.1783 48.2494 57.1783 48.2494C57.1783 48.2494 52.7169 47.3146 54.3709 42.5636L46.023 42.8358Z" fill="black"/>
<path d="M49.9656 45.4647C54.0445 45.4647 57.3512 42.1173 57.3512 37.9881C57.3512 33.8589 54.0445 30.5115 49.9656 30.5115C45.8867 30.5115 42.5801 33.8589 42.5801 37.9881C42.5801 42.1173 45.8867 45.4647 49.9656 45.4647Z" fill="#EE8E9E"/>
<path d="M62.1031 52.2017V57.284H37.7158V52.4328C37.7158 51.8176 37.8948 51.216 38.2305 50.7033C38.5662 50.1905 39.0437 49.7892 39.6033 49.5496L40.3021 49.2487C42.0711 48.4858 44.2204 47.5385 44.9227 47.1445C44.9996 47.1056 45.072 47.0582 45.1385 47.003C45.5224 46.6144 45.4463 47.1194 45.4463 47.1194C45.4463 47.1194 45.4357 47.2161 45.4286 47.3827C45.3861 48.527 45.5489 53.0237 50.755 52.6494C55.8338 52.2913 56.062 48.8135 56.0107 47.791C56.0078 47.6963 56.0001 47.6019 55.9877 47.508C56.3389 47.5926 56.6827 47.7064 57.0155 47.8483C58.0769 48.2459 59.6442 48.8834 60.0634 49.1842C60.1943 49.2774 60.3535 49.3741 60.5269 49.4726C60.7236 49.5836 60.9075 49.7163 61.0753 49.8683C61.3988 50.1624 61.6575 50.5222 61.8346 50.9243C62.0117 51.3263 62.1031 51.7616 62.1031 52.2017Z" fill="#3DA6F4"/>
<path opacity="0.1" d="M57.0147 47.8483C56.5848 49.8647 55.2351 53.6415 50.3704 53.74C45.1872 53.8439 44.8865 48.6255 44.9201 47.1445C44.9981 47.1067 45.0712 47.0591 45.1377 47.003C45.5233 46.6144 45.4455 47.1194 45.4455 47.1194C45.4455 47.1194 44.7927 53.0774 50.7525 52.6494C56.7122 52.2214 55.9798 47.5098 55.9798 47.5098C55.9798 47.4812 56.4238 47.637 57.0147 47.8483Z" fill="black"/>
<path d="M41.2233 38.3624C41.4686 38.3004 41.7265 38.3141 41.9639 38.4019C42.2014 38.4897 42.4074 38.6475 42.5554 38.8549C42.8243 39.2364 42.865 39.6966 42.8986 40.1371C43.2187 40.2052 43.3992 39.8381 43.4293 39.5605C43.5478 38.4305 43.5566 37.279 43.9317 36.1866C44.3067 35.0942 45.1257 34.0377 46.3835 33.6204C46.8132 33.4697 47.2725 33.4254 47.7226 33.4915C47.9897 33.5362 48.2409 33.6311 48.5063 33.6705C49.4261 33.8245 50.4256 33.384 51.2871 33.6902C51.8284 33.8836 52.1716 34.3296 52.4246 34.7755C52.5346 35.0159 52.6841 35.2357 52.8668 35.4255C53.233 35.7586 53.8061 35.8446 54.3315 35.9484C54.8569 36.0523 55.4301 36.2332 55.6547 36.6433C55.8564 37.014 55.7078 37.442 55.6406 37.8431C55.5366 38.4786 55.6417 39.131 55.9395 39.7002C56.0368 39.8792 56.235 40.0959 56.4702 40.0368C56.5756 40.0008 56.6647 39.9277 56.7214 39.8309C57.3247 38.9749 57.3087 37.861 58.0659 37.0892C58.3188 36.8313 58.6461 36.6307 58.892 36.3729C59.0781 36.1818 59.2146 35.947 59.2892 35.6895C59.3639 35.432 59.3745 35.1599 59.3201 34.8972C59.1839 34.3063 58.7169 33.8228 58.3401 33.3034C57.8507 32.6455 57.4942 31.8964 57.291 31.0989C57.2556 31.0062 57.2556 30.9034 57.291 30.8106C57.3625 30.7166 57.4546 30.6406 57.5599 30.5886C57.765 30.4494 57.9129 30.2394 57.9761 29.9978C58.0393 29.7562 58.0133 29.4995 57.9031 29.2759C57.6891 28.8336 57.2185 28.4969 56.6878 28.2963C56.1495 28.1173 55.5939 27.9972 55.0303 27.9382C54.6588 27.9919 54.2236 27.7788 54.1086 27.4779C54.0573 27.3436 54.0573 27.1986 54.006 27.0643C53.9364 26.9294 53.8358 26.8134 53.7127 26.7262C53.5895 26.6389 53.4475 26.5829 53.2984 26.5628C52.982 26.511 52.658 26.5343 52.352 26.6309C51.9982 26.7312 51.5967 26.8816 51.2906 26.7061C51.1297 26.6148 51.0412 26.4482 50.8679 26.373C50.5141 26.2226 50.1496 26.527 49.8967 26.7777C49.6529 27.0408 49.3536 27.2447 49.021 27.3741C48.8455 27.4418 48.6575 27.4703 48.47 27.4576C48.2825 27.4449 48.1 27.3914 47.9349 27.3007C47.6925 27.1449 47.5705 26.8941 47.3776 26.6954C47.0134 26.3666 46.5474 26.1766 46.0597 26.1581C45.5583 26.1312 45.0559 26.1868 44.572 26.3229C43.6486 26.5507 42.7666 26.9255 41.9592 27.4332C41.5531 27.6591 41.2085 27.9834 40.9562 28.3769C40.8069 28.6787 40.73 29.0118 40.7316 29.3493C40.6926 30.4077 41.0394 31.5216 41.9433 32.263C41.3914 32.4958 41.2056 33.067 41.0765 33.5738C40.8695 34.3833 40.6626 35.2053 40.7404 36.029C40.7793 36.4552 40.8943 36.8814 40.8324 37.3059C40.7828 37.5057 40.7555 37.7105 40.751 37.9165C40.777 38.03 40.8358 38.133 40.92 38.2124C41.0041 38.2919 41.1097 38.3441 41.2233 38.3624Z" fill="#454B69"/>
<g opacity="0.1">
<path opacity="0.1" d="M59.2055 34.5641C59.1261 34.7396 59.0185 34.9006 58.8871 35.0405C58.6412 35.302 58.314 35.5043 58.061 35.7568C57.3039 36.5233 57.3198 37.6443 56.7166 38.5003C56.6603 38.5971 56.5709 38.6697 56.4654 38.7045C56.2354 38.7653 56.0373 38.554 55.9347 38.3678C55.8178 38.141 55.7292 37.9004 55.6711 37.6515C55.6587 37.7142 55.6463 37.7768 55.6357 37.8306C55.5318 38.466 55.6368 39.1184 55.9347 39.6876C56.032 39.8667 56.2301 40.0834 56.4654 40.0243C56.5707 39.9882 56.6598 39.9152 56.7166 39.8183C57.3198 38.9623 57.3039 37.8485 58.061 37.0766C58.314 36.8188 58.6412 36.6182 58.8871 36.3603C59.0732 36.1692 59.2097 35.9345 59.2844 35.677C59.3591 35.4195 59.3697 35.1473 59.3152 34.8847C59.2881 34.7748 59.2514 34.6675 59.2055 34.5641Z" fill="black"/>
<path opacity="0.1" d="M57.5571 29.2634C57.4514 29.3148 57.3592 29.3909 57.2882 29.4854C57.2529 29.5776 57.2529 29.6798 57.2882 29.7719C57.358 30.0502 57.4473 30.3231 57.5554 30.5886C57.7604 30.4494 57.9084 30.2394 57.9715 29.9978C58.0347 29.7562 58.0088 29.4995 57.8986 29.2759C57.8641 29.2021 57.8226 29.132 57.7747 29.0664C57.7119 29.1423 57.6386 29.2086 57.5571 29.2634Z" fill="black"/>
<path opacity="0.1" d="M41.9561 30.9234C41.3294 30.4007 40.9165 29.6611 40.7974 28.8479C40.7657 29.0084 40.7479 29.1714 40.7443 29.335C40.7037 30.117 40.9074 30.892 41.3263 31.5502C41.453 31.27 41.6772 31.0469 41.9561 30.9234Z" fill="black"/>
<path opacity="0.1" d="M55.6414 36.5232C55.7086 36.1203 55.8572 35.6923 55.6556 35.3234C55.4309 34.9115 54.8577 34.7325 54.3324 34.6286C53.807 34.5247 53.2338 34.437 52.8676 34.1057C52.685 33.9159 52.5354 33.6961 52.4254 33.4556C52.176 33.0097 51.8292 32.5602 51.2879 32.3704C50.4264 32.0642 49.427 32.5029 48.5071 32.3507C48.2417 32.3059 47.9905 32.2128 47.7234 32.1716C47.2733 32.105 46.814 32.1493 46.3843 32.3006C45.1265 32.7196 44.3075 33.7762 43.9325 34.8668C43.5575 35.9574 43.5486 37.1088 43.4301 38.2406C43.4 38.5164 43.2196 38.8853 42.8994 38.8173C42.8658 38.3749 42.8251 37.9219 42.5562 37.5333C42.408 37.3261 42.2019 37.1687 41.9645 37.0813C41.727 36.9938 41.4692 36.9803 41.2242 37.0426C41.0755 37.0089 40.9434 36.9233 40.8509 36.8008C40.8704 36.965 40.8704 37.1309 40.8509 37.2951C40.8013 37.4949 40.774 37.6997 40.7695 37.9057C40.7923 38.0203 40.8485 38.1254 40.9308 38.2074C41.013 38.2895 41.1177 38.3447 41.2312 38.366C41.4765 38.3039 41.7344 38.3177 41.9718 38.4055C42.2093 38.4932 42.4153 38.651 42.5633 38.8584C42.8322 39.2399 42.8729 39.7001 42.9065 40.1407C43.2267 40.2087 43.4071 39.8416 43.4372 39.564C43.5557 38.434 43.5645 37.2825 43.9396 36.1902C44.3146 35.0978 45.1336 34.0412 46.3914 33.624C46.8211 33.4732 47.2804 33.429 47.7305 33.495C47.9976 33.5398 48.2488 33.6347 48.5142 33.6741C49.434 33.8281 50.4335 33.3876 51.295 33.6938C51.8363 33.8872 52.1795 34.3331 52.4325 34.779C52.5425 35.0195 52.692 35.2393 52.8747 35.4291C53.2409 35.7622 53.814 35.8481 54.3394 35.952C54.8648 36.0559 55.4008 36.2242 55.6361 36.6038C55.6273 36.577 55.6361 36.5501 55.6414 36.5232Z" fill="black"/>
<path opacity="0.1" d="M40.8434 35.9663C40.8725 35.6328 40.8529 35.2966 40.785 34.9689C40.7331 35.3149 40.7219 35.666 40.7514 36.0147C40.7514 36.1042 40.7708 36.1938 40.7832 36.2815C40.8027 36.1759 40.8292 36.072 40.8434 35.9663Z" fill="black"/>
</g>
<path d="M32.1855 64.5099V61.2775C32.1855 61.2533 32.1951 61.23 32.212 61.2129C32.2289 61.1958 32.2518 61.1862 32.2758 61.1862H32.6384C32.6623 61.1862 32.6853 61.1958 32.7022 61.2129C32.7191 61.23 32.7286 61.2533 32.7286 61.2775V62.6224L34.2004 61.2417C34.235 61.2125 34.277 61.1937 34.3217 61.1875C34.3663 61.1813 34.4118 61.1879 34.4529 61.2065C34.494 61.2252 34.5291 61.2552 34.5542 61.293C34.5793 61.3309 34.5934 61.3752 34.5949 61.4208V64.3487C34.5934 64.3943 34.5793 64.4385 34.5542 64.4764C34.5291 64.5143 34.494 64.5442 34.4529 64.5629C34.4118 64.5816 34.3663 64.5882 34.3217 64.582C34.277 64.5757 34.235 64.557 34.2004 64.5278L32.7286 63.156V64.4937C32.7286 64.518 32.7191 64.5412 32.7022 64.5583C32.6853 64.5754 32.6623 64.5851 32.6384 64.5851H32.2758C32.2544 64.5854 32.2335 64.578 32.217 64.5642C32.2005 64.5505 32.1893 64.5312 32.1855 64.5099Z" fill="#444053"/>
<path d="M67.7478 61.2775V64.5099C67.7478 64.5221 67.7454 64.5341 67.7408 64.5453C67.7361 64.5565 67.7294 64.5666 67.7208 64.5751C67.7122 64.5836 67.7021 64.5903 67.6909 64.5948C67.6798 64.5993 67.6678 64.6015 67.6558 64.6012H67.302C67.2781 64.6012 67.2552 64.5916 67.2383 64.5745C67.2213 64.5574 67.2118 64.5341 67.2118 64.5099V63.165L65.74 64.5439C65.7052 64.573 65.6631 64.5916 65.6184 64.5977C65.5738 64.6038 65.5283 64.5972 65.4871 64.5786C65.4459 64.56 65.4107 64.5301 65.3854 64.4924C65.36 64.4546 65.3456 64.4105 65.3438 64.3649V61.4261C65.3456 61.3805 65.36 61.3363 65.3854 61.2986C65.4107 61.2608 65.4459 61.231 65.4871 61.2124C65.5283 61.1937 65.5738 61.1871 65.6184 61.1933C65.6631 61.1994 65.7052 61.218 65.74 61.247L67.2118 62.6188V61.2829C67.2118 61.2586 67.2213 61.2354 67.2383 61.2183C67.2552 61.2011 67.2781 61.1915 67.302 61.1915H67.6558C67.6792 61.191 67.7018 61.1997 67.719 61.2157C67.7361 61.2318 67.7465 61.2539 67.7478 61.2775Z" fill="#444053"/>
<path d="M49.3658 64.6496H48.6458C48.552 64.6496 48.462 64.6119 48.3956 64.5447C48.3293 64.4775 48.292 64.3864 48.292 64.2914V61.616C48.292 61.521 48.3293 61.4299 48.3956 61.3627C48.462 61.2955 48.552 61.2578 48.6458 61.2578H49.3658C49.4596 61.2578 49.5496 61.2955 49.6159 61.3627C49.6823 61.4299 49.7196 61.521 49.7196 61.616V64.2914C49.7196 64.3864 49.6823 64.4775 49.6159 64.5447C49.5496 64.6119 49.4596 64.6496 49.3658 64.6496ZM51.6478 64.2914V61.616C51.6478 61.521 51.6105 61.4299 51.5441 61.3627C51.4778 61.2955 51.3878 61.2578 51.294 61.2578H50.5669C50.4731 61.2578 50.3831 61.2955 50.3167 61.3627C50.2504 61.4299 50.2131 61.521 50.2131 61.616V64.2914C50.2131 64.3864 50.2504 64.4775 50.3167 64.5447C50.3831 64.6119 50.4731 64.6496 50.5669 64.6496H51.2869C51.3339 64.6505 51.3807 64.642 51.4245 64.6244C51.4682 64.6068 51.508 64.5806 51.5417 64.5473C51.5753 64.5139 51.6019 64.4741 51.6202 64.4302C51.6384 64.3862 51.6478 64.3391 51.6478 64.2914Z" fill="#444053"/>
<path opacity="0.6" d="M71.194 56.9205H28.7383V57.3987H71.194V56.9205Z" fill="#444053"/>
<path d="M41.8483 58.2923C42.4667 58.2923 42.968 57.7847 42.968 57.1587C42.968 56.5326 42.4667 56.0251 41.8483 56.0251C41.2298 56.0251 40.7285 56.5326 40.7285 57.1587C40.7285 57.7847 41.2298 58.2923 41.8483 58.2923Z" fill="#444053"/>
<path d="M41.8482 56.9205H28.7383V57.3987H41.8482V56.9205Z" fill="#444053"/>
<path d="M158.326 63.8384H53.502V125.691H158.326V63.8384Z" fill="#E6E6E6"/>
<path d="M158.263 63.7534H53.4385V70.1461H158.263V63.7534Z" fill="#3DA6F4"/>
<path d="M155.805 72.1097H55.8555V122.614H155.805V72.1097Z" fill="white"/>
<path d="M63.3719 67.9909C63.9548 67.9909 64.4274 67.5175 64.4274 66.9334C64.4274 66.3494 63.9548 65.8759 63.3719 65.8759C62.789 65.8759 62.3164 66.3494 62.3164 66.9334C62.3164 67.5175 62.789 67.9909 63.3719 67.9909Z" fill="white"/>
<path d="M67.3787 67.9909C67.9617 67.9909 68.4342 67.5175 68.4342 66.9334C68.4342 66.3494 67.9617 65.8759 67.3787 65.8759C66.7958 65.8759 66.3232 66.3494 66.3232 66.9334C66.3232 67.5175 66.7958 67.9909 67.3787 67.9909Z" fill="white"/>
<path d="M59.3553 67.9909C59.9382 67.9909 60.4108 67.5175 60.4108 66.9334C60.4108 66.3494 59.9382 65.8759 59.3553 65.8759C58.7724 65.8759 58.2998 66.3494 58.2998 66.9334C58.2998 67.5175 58.7724 67.9909 59.3553 67.9909Z" fill="white"/>
<path d="M144.148 80.8312H67.5127V82.8366H144.148V80.8312Z" fill="#E6E6E6"/>
<path d="M119.493 85.8446H92.1689V87.85H119.493V85.8446Z" fill="#E6E6E6"/>
<path d="M119.493 96.014H92.1689V98.0194H119.493V96.014Z" fill="#E6E6E6"/>
<path d="M119.493 101.223H92.1689V103.228H119.493V101.223Z" fill="#E6E6E6"/>
<path d="M133.048 90.858H78.6133V92.8634H133.048V90.858Z" fill="#E6E6E6"/>
<path d="M144.148 110.331H129.771V113.893H144.148V110.331Z" fill="#3DA6F4"/>
</svg>
