<svg width="57" height="19" viewBox="0 0 57 19" fill="none" xmlns="http://www.w3.org/2000/svg">
<path d="M1.08 9.75445C1.368 8.09045 1.984 6.61045 2.928 5.31445C3.888 4.00245 5.08 2.98645 6.504 2.26645C7.928 1.53045 9.472 1.16245 11.136 1.16245C13.152 1.16245 14.768 1.65045 15.984 2.62645C17.216 3.60245 17.888 4.95445 18 6.68245H13.488C13.28 6.12245 12.912 5.69845 12.384 5.41045C11.872 5.10645 11.24 4.95445 10.488 4.95445C9.16 4.95445 8.016 5.39445 7.056 6.27445C6.112 7.13845 5.512 8.29845 5.256 9.75445C5.176 10.2345 5.136 10.6505 5.136 11.0025C5.136 12.1865 5.48 13.0985 6.168 13.7385C6.856 14.3785 7.832 14.6985 9.096 14.6985C10.12 14.6985 11.024 14.4425 11.808 13.9305C12.592 13.4025 13.224 12.6585 13.704 11.6985H8.52L9.024 8.69845H17.952L17.28 12.5145C16.8 13.5385 16.112 14.4905 15.216 15.3705C14.336 16.2505 13.288 16.9625 12.072 17.5065C10.856 18.0505 9.544 18.3225 8.136 18.3225C6.68 18.3225 5.4 18.0425 4.296 17.4825C3.208 16.9065 2.368 16.1065 1.776 15.0825C1.2 14.0585 0.912 12.8665 0.912 11.5065C0.912 11.0425 0.968 10.4585 1.08 9.75445ZM34.1213 4.81045L31.7693 18.2025H27.6653L27.9773 16.3785C27.4493 16.9705 26.8013 17.4505 26.0333 17.8185C25.2813 18.1705 24.4733 18.3465 23.6093 18.3465C22.2653 18.3465 21.2093 17.9705 20.4413 17.2185C19.6733 16.4505 19.2893 15.3865 19.2893 14.0265C19.2893 13.5145 19.3293 13.0505 19.4093 12.6345L20.8013 4.81045H24.8813L23.6093 12.0825C23.5613 12.3385 23.5373 12.5865 23.5373 12.8265C23.5373 13.4985 23.7213 14.0185 24.0893 14.3865C24.4733 14.7385 25.0013 14.9145 25.6733 14.9145C26.4413 14.9145 27.0893 14.6905 27.6173 14.2425C28.1613 13.7785 28.5213 13.1225 28.6973 12.2745L30.0173 4.81045H34.1213ZM40.2851 18.3945C39.2291 18.3945 38.2771 18.2265 37.4291 17.8905C36.5971 17.5545 35.9411 17.0905 35.4611 16.4985C34.9811 15.8905 34.7411 15.1945 34.7411 14.4105C34.7411 14.2985 34.7571 14.0985 34.7891 13.8105H38.7491C38.7171 14.3065 38.8611 14.7065 39.1811 15.0105C39.5171 15.2985 39.9891 15.4425 40.5971 15.4425C41.1091 15.4425 41.5331 15.3465 41.8691 15.1545C42.2051 14.9625 42.3731 14.6905 42.3731 14.3385C42.3731 14.0025 42.1891 13.7385 41.8211 13.5465C41.4691 13.3385 40.8771 13.0905 40.0451 12.8025C39.1811 12.5145 38.4531 12.2345 37.8611 11.9625C37.2851 11.6745 36.7891 11.2665 36.3731 10.7385C35.9571 10.2105 35.7491 9.54645 35.7491 8.74645C35.7491 7.96245 35.9811 7.25845 36.4451 6.63445C36.9091 5.99445 37.5571 5.49845 38.3891 5.14645C39.2371 4.79445 40.2131 4.61845 41.3171 4.61845C42.4211 4.61845 43.3811 4.80245 44.1971 5.17045C45.0131 5.52245 45.6451 6.01845 46.0931 6.65845C46.5411 7.29845 46.7651 8.01845 46.7651 8.81845L46.7411 9.17845H43.0211C43.0531 8.69845 42.9091 8.31445 42.5891 8.02645C42.2691 7.73845 41.8131 7.59445 41.2211 7.59445C40.7571 7.59445 40.3731 7.69045 40.0691 7.88245C39.7811 8.07445 39.6371 8.33845 39.6371 8.67445C39.6371 9.02645 39.8291 9.32245 40.2131 9.56245C40.6131 9.78645 41.2291 10.0425 42.0611 10.3305C42.9251 10.6185 43.6371 10.9065 44.1971 11.1945C44.7731 11.4665 45.2611 11.8585 45.6611 12.3705C46.0771 12.8665 46.2851 13.4905 46.2851 14.2425C46.2851 15.1065 46.0211 15.8505 45.4931 16.4745C44.9811 17.0985 44.2691 17.5785 43.3571 17.9145C42.4611 18.2345 41.4371 18.3945 40.2851 18.3945ZM56.5959 0.754452L54.0759 12.2505H50.5959L52.1559 0.754452H56.5959ZM51.3159 18.3945C50.6759 18.3945 50.1639 18.2265 49.7799 17.8905C49.4119 17.5385 49.2279 17.0985 49.2279 16.5705C49.2279 15.8345 49.4999 15.2105 50.0439 14.6985C50.6039 14.1865 51.2919 13.9305 52.1079 13.9305C52.7319 13.9305 53.2279 14.1065 53.5959 14.4585C53.9639 14.7945 54.1479 15.2345 54.1479 15.7785C54.1479 16.4985 53.8679 17.1145 53.3079 17.6265C52.7639 18.1385 52.0999 18.3945 51.3159 18.3945Z" fill="white"/>
</svg>
