<svg width="149" height="39" viewBox="0 0 149 39" fill="none" xmlns="http://www.w3.org/2000/svg">
<circle cx="19.2643" cy="19.2643" r="19.2643" fill="white"/>
<path d="M9.9229 9.59262C7.48174 10.2083 6.54238 11.2944 7.25978 13.2732L9.45781 19.2948C9.5324 19.4944 9.49848 19.6485 9.35604 19.7573L7.85843 21.3239C7.76161 21.4212 7.72769 21.5753 7.77947 21.7806L7.97509 22.5563C8.02688 22.7617 8.12984 22.8813 8.26117 22.921L10.3226 23.5901C10.4996 23.6183 10.6026 23.7379 10.6315 23.949L11.5519 30.2928C11.8587 32.3751 13.2008 32.886 15.6419 32.2703C16.2807 32.1092 16.8795 31.8854 17.4552 31.5704C17.6889 31.4386 17.7855 31.2444 17.7165 30.9707L17.2792 29.2367C17.2217 29.0086 17.0788 28.9233 16.8507 28.9808L15.9609 29.2052C15.1396 29.4123 14.7226 29.2021 14.6069 28.4547L13.9053 23.0748C13.8184 22.4416 13.5208 22.0313 12.9727 21.8784L11.1114 21.4257L11.0769 21.2888L12.5009 20.0076C12.911 19.613 12.9784 19.1107 12.7546 18.5119L10.8211 13.4427C10.5685 12.7299 10.8359 12.347 11.6572 12.1399L12.547 11.9155C12.7752 11.858 12.8605 11.7151 12.8029 11.487L12.3657 9.75309C12.2966 9.47931 12.1194 9.35413 11.8512 9.34898C11.195 9.34462 10.5617 9.43152 9.9229 9.59262Z" fill="#384D5C"/>
<path d="M23.6018 6.21475C22.9402 6.3816 22.3186 6.61115 21.7885 6.91469C21.5092 7.05793 21.441 7.1722 21.5273 7.51442L21.9645 9.24833C22.0221 9.47648 22.1649 9.56178 22.3931 9.50424L23.26 9.28561C24.1042 9.07273 24.5212 9.28301 24.614 10.0361L25.3384 15.4102C25.437 16.1861 25.6715 16.4424 26.2711 16.6067L28.1323 17.0594L28.1669 17.1963L26.7429 18.4775C26.2929 18.9064 26.208 19.2433 26.4891 19.9731L28.3999 25.0481C28.6752 25.7551 28.4078 26.138 27.5637 26.3509L26.6967 26.5696C26.4686 26.6271 26.3833 26.7699 26.4408 26.9981L26.8781 28.732C26.9644 29.0742 27.0787 29.1424 27.3925 29.1361C28.0032 29.152 28.6592 29.0593 29.3208 28.8924C31.762 28.2768 32.7014 27.1906 31.984 25.2119L29.7859 19.1903C29.7113 18.9907 29.7453 18.8365 29.8877 18.7278L31.3853 17.1611C31.4821 17.0639 31.5161 16.9098 31.4643 16.7044L31.2687 15.9287C31.2169 15.7234 31.1139 15.6038 30.9826 15.5641L28.9211 14.895C28.7441 14.8668 28.6412 14.7472 28.6122 14.5361L27.6918 8.19223C27.3851 6.10995 26.043 5.59912 23.6018 6.21475Z" fill="#384D5C"/>
<path d="M52.4654 9.76279C49.411 9.76279 47.3667 10.4121 46.3085 11.7349C45.2743 13.0336 44.7452 15.5348 44.7452 19.2145C44.7452 22.9664 45.13 25.1309 46.3085 26.6461C46.9098 27.3916 47.7034 27.9207 48.6654 28.2093C49.6274 28.4979 50.9021 28.6422 52.4654 28.6422C54.0286 28.6422 55.4235 28.522 56.6501 28.2574C57.8767 27.9929 58.6463 27.6321 58.9108 27.1752C58.983 27.0549 59.007 26.8385 59.007 26.5739V19.7436C59.007 19.4791 58.8868 19.3588 58.6463 19.3588H55.8324C55.5919 19.3588 55.4716 19.4791 55.4716 19.7436V25.3473H52.4654C50.854 25.3473 49.7958 24.9385 49.2907 24.0967C48.8097 23.255 48.5692 21.6436 48.5692 19.2145C48.5692 16.7855 48.8097 15.15 49.2907 14.3083C49.7958 13.4665 50.854 13.0577 52.4654 13.0577H57.8045C58.045 13.0577 58.1653 12.9374 58.1653 12.6969V10.7729C58.1653 10.4362 57.9729 10.2197 57.6121 10.1235C56.4336 9.88304 54.7261 9.76279 52.4654 9.76279ZM70.2276 15.0538C69.9871 15.0538 69.8668 15.1741 69.8668 15.4146V25.5638H67.7023C66.0669 25.5638 65.6099 25.4195 65.3213 24.4575C65.177 23.9524 65.1049 23.1107 65.1049 21.9322V15.4146C65.1049 15.1741 64.9846 15.0538 64.7682 15.0538H61.9303C61.6657 15.0538 61.5454 15.1741 61.5454 15.4146V22.8461C61.5454 25.3714 61.7859 26.7182 62.7239 27.584C63.6859 28.4498 64.9125 28.6422 67.3416 28.6422C69.7706 28.6422 71.6946 28.4979 73.1136 28.2334C73.3782 28.1612 73.4503 28.1131 73.4503 27.8245V15.4146C73.4503 15.1741 73.3301 15.0538 73.1136 15.0538H70.2276ZM81.5877 14.9336C77.9562 14.9336 76.1283 15.9196 76.1283 18.3968V18.8538C76.1283 20.7297 76.9461 21.9563 78.5815 22.5094L81.5396 23.5676C82.5738 23.9284 82.8624 24.217 82.8624 24.698V24.9144C82.8624 25.5638 82.4776 25.7321 81.2029 25.7321H76.2726C76.0081 25.7321 75.8638 25.8524 75.8638 26.0929V28.041C75.8638 28.2815 76.0081 28.4017 76.2726 28.4017C77.8119 28.5701 79.4713 28.6422 81.251 28.6422C84.594 28.6422 86.3737 27.7524 86.3737 25.1309V24.7461C86.3737 22.9423 85.7725 21.812 83.8485 21.1386L80.77 20.0563C80.0004 19.7917 79.6156 19.4069 79.6156 18.95V18.7095C79.6156 18.1323 80.0966 17.8437 81.0346 17.8437H85.3636C85.6282 17.8437 85.7725 17.7234 85.7725 17.4589V15.631C85.7725 15.4386 85.6522 15.3184 85.3877 15.2462C84.1852 15.0298 82.9105 14.9336 81.5877 14.9336ZM104.217 10.7488C102.798 10.6286 101.187 10.5805 99.3588 10.5805C97.531 10.5805 96.1361 10.8691 95.1981 11.4223C94.2602 11.9754 93.7791 12.9615 93.7791 14.4045V14.8614C93.7791 16.7614 94.2602 17.8677 96.2804 18.7095L102.101 21.1386C103.399 21.7398 104.049 22.774 104.049 24.2651V24.7942C104.049 26.2853 103.351 26.9347 102.245 27.2473C101.451 27.4397 100.826 27.4638 99.8398 27.4638H93.731C93.5867 27.4638 93.5146 27.5359 93.5146 27.6562V28.2574C93.5146 28.4017 93.5867 28.4739 93.707 28.4739C95.15 28.5941 97.0981 28.6422 99.5272 28.6422C100.249 28.6422 100.826 28.6182 101.235 28.5941C101.644 28.5701 102.149 28.4979 102.75 28.3777C103.351 28.2334 103.808 28.041 104.121 27.8005C104.794 27.2954 105.371 26.2613 105.371 24.8182V24.1689C105.371 22.2208 104.53 20.874 102.87 20.1284L97.2424 17.7234C95.5348 17.026 95.126 16.2804 95.126 14.7412V14.4285C95.126 12.5767 96.3525 11.759 99.0221 11.759H104.241C104.361 11.759 104.433 11.6868 104.433 11.5425V10.9413C104.433 10.821 104.361 10.7488 104.217 10.7488ZM112.007 15.4867C110.925 15.4867 109.939 15.5348 109.001 15.6551C108.881 15.6791 108.808 15.7753 108.808 15.8956V16.4247C108.808 16.569 108.881 16.6412 109.025 16.6412H112.007C114.484 16.6412 115.903 17.3627 115.903 19.4069V21.4753H111.454C108.736 21.4753 107.582 22.4854 107.582 24.8904C107.582 26.3094 107.895 27.2714 108.52 27.8245C109.169 28.3777 110.3 28.6422 111.911 28.6422C114.292 28.6422 115.903 28.522 116.745 28.2574C117.034 28.1853 117.178 27.9929 117.178 27.7043V19.2626C117.178 16.4728 115.254 15.4867 112.007 15.4867ZM115.903 27.2233C115.062 27.4157 113.787 27.5119 112.127 27.5119C109.626 27.5119 108.881 26.8385 108.881 24.8904C108.881 23.255 109.602 22.6056 111.454 22.6056H115.903V27.2233ZM121.162 10.7007C121.018 10.7007 120.946 10.7729 120.946 10.9172V28.3055C120.946 28.4498 121.018 28.522 121.162 28.522H121.98C122.148 28.522 122.221 28.4498 122.221 28.3055V10.9172C122.221 10.7729 122.148 10.7007 121.98 10.7007H121.162ZM130.758 15.4867C128.57 15.4867 127.415 15.7513 126.645 16.8095C125.876 17.8677 125.708 19.2867 125.708 22.0525C125.708 24.722 126.02 26.4777 126.67 27.3435C127.319 28.2093 128.666 28.6422 130.758 28.6422C132.369 28.6422 133.572 28.5941 134.366 28.4979C134.51 28.4739 134.582 28.4017 134.582 28.2815V27.7283C134.582 27.56 134.51 27.4878 134.342 27.4878H130.758C129.243 27.4878 128.233 27.1752 127.752 26.5499C127.271 25.9005 127.006 24.6258 126.982 22.7018H135.135C135.592 22.7018 135.664 22.6056 135.664 22.2449V21.5474C135.64 19.1183 135.304 17.4829 134.654 16.6893C134.005 15.8956 132.706 15.4867 130.758 15.4867ZM130.758 16.6412C132.225 16.6412 133.211 16.9538 133.668 17.5791C134.125 18.2044 134.366 19.5272 134.39 21.5234H126.982C127.006 19.5272 127.247 18.2285 127.728 17.6032C128.209 16.9538 129.219 16.6412 130.758 16.6412ZM142.384 15.4867C141.35 15.4867 140.676 15.5348 139.738 15.8956C138.848 16.2083 138.295 17.0019 138.295 18.1804V18.7095C138.295 20.2246 138.776 21.1867 140.484 21.8841L144.26 23.4233C145.342 23.9043 145.727 24.4575 145.727 25.3954V25.7562C145.727 27.103 144.957 27.4878 142.432 27.4878H138.391C138.247 27.4878 138.175 27.56 138.175 27.7283V28.2815C138.175 28.4017 138.247 28.4739 138.367 28.4979C139.161 28.5941 140.508 28.6422 142.408 28.6422C144.115 28.6422 145.318 28.4498 145.991 28.065C146.665 27.6562 147.001 26.8866 147.001 25.7562V25.4195C147.001 24.0005 146.568 23.0866 144.861 22.3892L141.205 20.874C139.883 20.3208 139.57 19.7917 139.57 18.7335V18.2766C139.57 17.1943 140.388 16.6412 141.999 16.6412H146.256C146.4 16.6412 146.472 16.569 146.472 16.4247V15.8475C146.472 15.7272 146.4 15.6551 146.28 15.631C145.438 15.5348 144.139 15.4867 142.384 15.4867Z" fill="white"/>
</svg>
