<svg width="56" height="42" viewBox="0 0 56 42" fill="none" xmlns="http://www.w3.org/2000/svg">
<path d="M30.9789 8.94127L30.2908 9.28977C29.4983 7.73207 28.4483 6.31888 27.1851 5.10962C20.9814 -0.84353 11.0822 -0.648898 5.11815 5.54348C-0.845898 11.7359 -0.650909 21.617 5.55281 27.5701C6.73355 28.7054 8.08623 29.6478 9.56104 30.3626L9.22446 31.0556C6.88681 29.9226 4.8528 28.2506 3.29048 26.1778C1.72816 24.1051 0.682387 21.6909 0.239557 19.135C-0.203273 16.579 -0.0304444 13.9546 0.743762 11.4784C1.51797 9.00234 2.87133 6.74565 4.69202 4.89483C6.51272 3.04402 8.74849 1.65222 11.2146 0.834409C13.6807 0.0166011 16.3064 -0.203731 18.8747 0.191616C21.443 0.586962 23.8802 1.58664 25.9849 3.10805C28.0896 4.62946 29.8014 6.62894 30.9789 8.94127Z" fill="#E6E6E6"/>
<path d="M7.70038 23.2694C6.68831 24.3202 6.13588 25.7293 6.16464 27.1867C6.1934 28.6441 6.80099 30.0303 7.85373 31.0406C8.90648 32.0508 10.3182 32.6022 11.7782 32.5735C13.2382 32.5448 14.6271 31.9383 15.6391 30.8875L16.5871 29.9033L8.64831 22.2852L7.70038 23.2694Z" fill="#E6E6E6"/>
<path d="M8.11644 21.7259C7.89116 21.9603 7.76824 22.2744 7.77465 22.5991C7.78106 22.9239 7.91627 23.2329 8.15062 23.4583L15.432 30.4456C15.6667 30.6708 15.9814 30.7937 16.3069 30.7873C16.6324 30.7809 16.942 30.6457 17.1676 30.4115C17.3933 30.1772 17.5164 29.8631 17.51 29.5382C17.5036 29.2133 17.3681 28.9043 17.1335 28.6791L9.85204 21.6917C9.61717 21.4669 9.30254 21.3442 8.97717 21.3506C8.65179 21.357 8.34225 21.4919 8.11644 21.7259Z" fill="#535461"/>
<path d="M29.9554 16.023L30.9033 15.0388C31.9154 13.988 32.4678 12.5789 32.439 11.1215C32.4103 9.66415 31.8027 8.27786 30.7499 7.26764C30.2287 6.76743 29.6138 6.3746 28.9405 6.11157C28.2671 5.84855 27.5484 5.72049 26.8255 5.73471C25.3654 5.76342 23.9766 6.36989 22.9645 7.42071L22.0166 8.40493L29.9554 16.023Z" fill="#E6E6E6"/>
<path d="M21.4358 7.89652C21.2105 8.13095 21.0876 8.44501 21.094 8.76979C21.1004 9.09457 21.2356 9.40355 21.47 9.62895L28.7514 16.6163C28.9861 16.8412 29.3007 16.9639 29.6261 16.9574C29.9514 16.9509 30.2608 16.8157 30.4864 16.5815C30.7119 16.3474 30.835 16.0334 30.8287 15.7087C30.8224 15.3839 30.6872 15.075 30.4528 14.8497L23.1714 7.86239C22.9365 7.63753 22.6219 7.51484 22.2965 7.52123C21.9711 7.52763 21.6616 7.6626 21.4358 7.89652Z" fill="#535461"/>
<path d="M22.9932 18.444V17.8763C22.9932 17.8763 25.475 16.4828 27.4915 17.8763V18.3924L22.9932 18.444Z" fill="#535461"/>
<path d="M45.5884 18.444V17.8763C45.5884 17.8763 48.0702 16.4828 50.0867 17.8763V18.3924L45.5884 18.444Z" fill="#535461"/>
<path d="M30.4386 18.3924H28.0084C28.0084 18.3924 27.388 17.6699 25.3198 17.7215C23.2516 17.7731 22.838 18.3924 22.838 18.3924C22.838 18.3924 20.7956 19.7601 20.3303 21.4633C20.3303 21.4633 17.8226 28.9726 17.7709 34.8561C17.7192 40.7397 19.9942 41.5655 21.1834 41.7203C22.3726 41.8751 24.4925 41.6687 26.5607 36.456L27.4397 33.411C27.4397 33.411 27.5948 31.6047 29.4562 32.7401C31.3175 33.8755 32.9721 32.1208 32.9721 32.1208H39.9522C39.9522 32.1208 42.2789 33.5659 44.3988 32.4304C44.3988 32.4304 45.2261 31.3466 46.0017 35.011C46.0017 35.011 48.3801 42.5461 52.0511 41.7719C55.7222 40.9977 55.3085 34.7013 55.3085 34.7013C55.3085 34.7013 54.8173 25.076 52.8009 21.6697C52.8009 21.6697 50.8619 18.1344 49.5693 17.9796C49.5693 17.9796 46.7773 17.4635 45.6915 17.928L45.071 18.4441L30.4386 18.3924Z" fill="#E6E6E6"/>
<path d="M24.803 27.9404C27.2873 27.9404 29.3013 25.9301 29.3013 23.4503C29.3013 20.9705 27.2873 18.9602 24.803 18.9602C22.3187 18.9602 20.3047 20.9705 20.3047 23.4503C20.3047 25.9301 22.3187 27.9404 24.803 27.9404Z" fill="#535461"/>
<path d="M48.2766 27.9404C50.761 27.9404 52.7749 25.9301 52.7749 23.4503C52.7749 20.9705 50.761 18.9602 48.2766 18.9602C45.7923 18.9602 43.7783 20.9705 43.7783 23.4503C43.7783 25.9301 45.7923 27.9404 48.2766 27.9404Z" fill="#535461"/>
<path d="M25.5866 22.4491L24.9868 22.9786C24.9361 23.0233 24.8707 23.0479 24.803 23.0479C24.7354 23.0479 24.67 23.0233 24.6192 22.9786L24.0184 22.4491C23.989 22.4233 23.9655 22.3915 23.9492 22.3559C23.933 22.3203 23.9245 22.2817 23.9243 22.2427V20.7857C23.9245 20.7121 23.9538 20.6417 24.006 20.5897C24.0581 20.5377 24.1288 20.5085 24.2025 20.5085H25.4046C25.4783 20.5084 25.5489 20.5375 25.6011 20.5894C25.6533 20.6412 25.6827 20.7117 25.6828 20.7852V22.2416C25.6825 22.281 25.6737 22.3199 25.6571 22.3557C25.6406 22.3915 25.6165 22.4233 25.5866 22.4491Z" fill="#E6E6E6"/>
<path d="M25.5866 24.4512L24.9868 23.9222C24.9361 23.8775 24.8707 23.8529 24.803 23.8529C24.7354 23.8529 24.67 23.8775 24.6192 23.9222L24.0184 24.4517C23.989 24.4775 23.9655 24.5093 23.9492 24.5449C23.933 24.5804 23.9245 24.619 23.9243 24.6581V26.1135C23.9242 26.187 23.9533 26.2576 24.0053 26.3097C24.0573 26.3617 24.1278 26.3911 24.2015 26.3912H25.4046C25.4783 26.3913 25.5489 26.3623 25.6011 26.3104C25.6533 26.2585 25.6827 26.1881 25.6828 26.1146V24.6586C25.6825 24.6192 25.6737 24.5803 25.6571 24.5445C25.6406 24.5088 25.6165 24.4769 25.5866 24.4512Z" fill="#E6E6E6"/>
<path d="M23.8005 24.2335L24.3309 23.6338C24.3757 23.5831 24.4003 23.5179 24.4003 23.4504C24.4003 23.3828 24.3757 23.3176 24.3309 23.2669L23.8005 22.6672C23.7745 22.6379 23.7427 22.6144 23.7071 22.5982C23.6715 22.582 23.6328 22.5735 23.5936 22.5732H22.1356C22.0619 22.5734 21.9913 22.6027 21.9392 22.6548C21.8871 22.7068 21.8579 22.7774 21.8579 22.8509V24.0508C21.8578 24.1243 21.8869 24.1949 21.9389 24.247C21.9908 24.299 22.0614 24.3284 22.135 24.3285H23.5942C23.6333 24.3281 23.6719 24.3194 23.7075 24.303C23.743 24.2867 23.7747 24.263 23.8005 24.2335Z" fill="#E6E6E6"/>
<path d="M25.806 24.2338L25.2766 23.6336C25.2318 23.5829 25.207 23.5177 25.207 23.4501C25.207 23.3825 25.2318 23.3173 25.2766 23.2666L25.8071 22.6669C25.833 22.6376 25.8648 22.6141 25.9004 22.5979C25.9361 22.5817 25.9747 22.5732 26.0139 22.573H27.472C27.5456 22.5729 27.6163 22.6019 27.6685 22.6538C27.7206 22.7057 27.75 22.7761 27.7501 22.8496V24.0506C27.7503 24.1241 27.7212 24.1947 27.6692 24.2467C27.6172 24.2988 27.5466 24.3281 27.473 24.3283H26.0144C25.975 24.3282 25.936 24.3197 25.9 24.3035C25.8641 24.2872 25.8321 24.2634 25.806 24.2338Z" fill="#E6E6E6"/>
<path d="M30.9039 31.6048C32.7029 31.6048 34.1613 30.1491 34.1613 28.3534C34.1613 26.5577 32.7029 25.1019 30.9039 25.1019C29.1049 25.1019 27.6465 26.5577 27.6465 28.3534C27.6465 30.1491 29.1049 31.6048 30.9039 31.6048Z" fill="#535461"/>
<path d="M42.1759 31.6048C43.9749 31.6048 45.4333 30.1491 45.4333 28.3534C45.4333 26.5577 43.9749 25.1019 42.1759 25.1019C40.3768 25.1019 38.9185 26.5577 38.9185 28.3534C38.9185 30.1491 40.3768 31.6048 42.1759 31.6048Z" fill="#535461"/>
<path d="M30.904 30.5209C32.1034 30.5209 33.0756 29.5504 33.0756 28.3533C33.0756 27.1561 32.1034 26.1857 30.904 26.1857C29.7047 26.1857 28.7324 27.1561 28.7324 28.3533C28.7324 29.5504 29.7047 30.5209 30.904 30.5209Z" fill="#E6E6E6"/>
<path d="M30.9042 29.85C30.6077 29.85 30.3178 29.7622 30.0712 29.5977C29.8246 29.4333 29.6324 29.1995 29.5189 28.926C29.4054 28.6525 29.3757 28.3516 29.4336 28.0613C29.4915 27.7709 29.6343 27.5043 29.844 27.2949C30.0537 27.0856 30.3208 26.9431 30.6117 26.8853C30.9026 26.8276 31.204 26.8572 31.478 26.9705C31.752 27.0838 31.9862 27.2756 32.151 27.5217C32.3157 27.7679 32.4037 28.0573 32.4037 28.3533C32.4032 28.7501 32.2451 29.1305 31.964 29.4111C31.6829 29.6917 31.3018 29.8495 30.9042 29.85ZM30.9042 26.9598C30.6281 26.9598 30.3582 27.0415 30.1286 27.1946C29.8991 27.3478 29.7201 27.5654 29.6145 27.82C29.5088 28.0746 29.4812 28.3548 29.535 28.6251C29.5889 28.8954 29.7218 29.1437 29.9171 29.3386C30.1123 29.5335 30.3611 29.6662 30.6319 29.72C30.9027 29.7737 31.1834 29.7461 31.4385 29.6407C31.6936 29.5352 31.9116 29.3566 32.065 29.1274C32.2184 28.8983 32.3003 28.6289 32.3003 28.3533C32.2998 27.9838 32.1526 27.6296 31.8909 27.3684C31.6292 27.1072 31.2743 26.9602 30.9042 26.9598Z" fill="#535461"/>
<path d="M42.1755 30.5209C43.3748 30.5209 44.3471 29.5504 44.3471 28.3533C44.3471 27.1561 43.3748 26.1857 42.1755 26.1857C40.9762 26.1857 40.0039 27.1561 40.0039 28.3533C40.0039 29.5504 40.9762 30.5209 42.1755 30.5209Z" fill="#E6E6E6"/>
<path d="M42.1757 29.85C41.8791 29.85 41.5892 29.7622 41.3427 29.5977C41.0961 29.4333 40.9039 29.1995 40.7904 28.926C40.6769 28.6525 40.6472 28.3516 40.7051 28.0613C40.7629 27.7709 40.9057 27.5043 41.1154 27.2949C41.3251 27.0856 41.5923 26.9431 41.8832 26.8853C42.174 26.8276 42.4755 26.8572 42.7495 26.9705C43.0235 27.0838 43.2577 27.2756 43.4224 27.5217C43.5872 27.7679 43.6751 28.0573 43.6751 28.3533C43.6747 28.7501 43.5166 29.1305 43.2355 29.4111C42.9544 29.6917 42.5732 29.8495 42.1757 29.85ZM42.1757 26.9598C41.8996 26.9598 41.6297 27.0415 41.4001 27.1946C41.1705 27.3478 40.9916 27.5654 40.8859 27.82C40.7803 28.0746 40.7526 28.3548 40.8065 28.6251C40.8604 28.8954 40.9933 29.1437 41.1886 29.3386C41.3838 29.5335 41.6326 29.6662 41.9034 29.72C42.1742 29.7737 42.4548 29.7461 42.7099 29.6407C42.965 29.5352 43.1831 29.3566 43.3365 29.1274C43.4899 28.8983 43.5717 28.6289 43.5717 28.3533C43.5713 27.9838 43.4241 27.6296 43.1624 27.3684C42.9007 27.1072 42.5458 26.9602 42.1757 26.9598Z" fill="#535461"/>
<path d="M36.6431 29.6435C37.1571 29.6435 37.5738 29.2276 37.5738 28.7145C37.5738 28.2014 37.1571 27.7855 36.6431 27.7855C36.1291 27.7855 35.7124 28.2014 35.7124 28.7145C35.7124 29.2276 36.1291 29.6435 36.6431 29.6435Z" fill="#535461"/>
<path d="M35.2208 25.8166C35.333 25.8166 35.424 25.7257 35.424 25.6137C35.424 25.5017 35.333 25.4109 35.2208 25.4109C35.1086 25.4109 35.0176 25.5017 35.0176 25.6137C35.0176 25.7257 35.1086 25.8166 35.2208 25.8166Z" fill="#535461"/>
<path d="M35.982 25.8166C36.0942 25.8166 36.1852 25.7257 36.1852 25.6137C36.1852 25.5017 36.0942 25.4109 35.982 25.4109C35.8698 25.4109 35.7788 25.5017 35.7788 25.6137C35.7788 25.7257 35.8698 25.8166 35.982 25.8166Z" fill="#535461"/>
<path d="M35.8804 26.7792C35.9927 26.7792 36.0836 26.6884 36.0836 26.5764C36.0836 26.4643 35.9927 26.3735 35.8804 26.3735C35.7682 26.3735 35.6772 26.4643 35.6772 26.5764C35.6772 26.6884 35.7682 26.7792 35.8804 26.7792Z" fill="#535461"/>
<path d="M36.5916 26.805C36.7058 26.805 36.7984 26.7125 36.7984 26.5985C36.7984 26.4845 36.7058 26.3921 36.5916 26.3921C36.4774 26.3921 36.3848 26.4845 36.3848 26.5985C36.3848 26.7125 36.4774 26.805 36.5916 26.805Z" fill="#535461"/>
<path d="M37.3013 26.7792C37.4136 26.7792 37.5045 26.6884 37.5045 26.5764C37.5045 26.4643 37.4136 26.3735 37.3013 26.3735C37.1891 26.3735 37.0981 26.4643 37.0981 26.5764C37.0981 26.6884 37.1891 26.7792 37.3013 26.7792Z" fill="#535461"/>
<path d="M35.5762 26.3233C35.6885 26.3233 35.7794 26.2324 35.7794 26.1204C35.7794 26.0084 35.6885 25.9176 35.5762 25.9176C35.464 25.9176 35.373 26.0084 35.373 26.1204C35.373 26.2324 35.464 26.3233 35.5762 26.3233Z" fill="#535461"/>
<path d="M36.2298 26.3405C36.344 26.3405 36.4366 26.2481 36.4366 26.1341C36.4366 26.02 36.344 25.9276 36.2298 25.9276C36.1155 25.9276 36.0229 26.02 36.0229 26.1341C36.0229 26.2481 36.1155 26.3405 36.2298 26.3405Z" fill="#535461"/>
<path d="M36.9016 26.3405C37.0159 26.3405 37.1085 26.2481 37.1085 26.1341C37.1085 26.02 37.0159 25.9276 36.9016 25.9276C36.7874 25.9276 36.6948 26.02 36.6948 26.1341C36.6948 26.2481 36.7874 26.3405 36.9016 26.3405Z" fill="#535461"/>
<path d="M37.606 26.3233C37.7183 26.3233 37.8092 26.2324 37.8092 26.1204C37.8092 26.0084 37.7183 25.9176 37.606 25.9176C37.4938 25.9176 37.4028 26.0084 37.4028 26.1204C37.4028 26.2324 37.4938 26.3233 37.606 26.3233Z" fill="#535461"/>
<path d="M36.5916 25.8245C36.7058 25.8245 36.7984 25.7321 36.7984 25.6181C36.7984 25.504 36.7058 25.4116 36.5916 25.4116C36.4774 25.4116 36.3848 25.504 36.3848 25.6181C36.3848 25.7321 36.4774 25.8245 36.5916 25.8245Z" fill="#535461"/>
<path d="M37.3152 25.8245C37.4294 25.8245 37.522 25.7321 37.522 25.6181C37.522 25.504 37.4294 25.4116 37.3152 25.4116C37.201 25.4116 37.1084 25.504 37.1084 25.6181C37.1084 25.7321 37.201 25.8245 37.3152 25.8245Z" fill="#535461"/>
<path d="M37.9107 25.8166C38.0229 25.8166 38.1139 25.7257 38.1139 25.6137C38.1139 25.5017 38.0229 25.4109 37.9107 25.4109C37.7985 25.4109 37.7075 25.5017 37.7075 25.6137C37.7075 25.7257 37.7985 25.8166 37.9107 25.8166Z" fill="#535461"/>
<path d="M28.9135 18.8322C28.8178 18.8323 28.7261 18.8702 28.6585 18.9377C28.5909 19.0052 28.5528 19.0968 28.5527 19.1922V20.2761C28.5528 20.3715 28.5909 20.4631 28.6585 20.5306C28.7261 20.5981 28.8178 20.6361 28.9135 20.6362H29.172C29.2677 20.6361 29.3593 20.5981 29.427 20.5306C29.4946 20.4631 29.5326 20.3715 29.5327 20.2761V19.1922C29.5326 19.0968 29.4946 19.0052 29.427 18.9377C29.3593 18.8702 29.2677 18.8323 29.172 18.8322H28.9135Z" fill="#535461"/>
<path d="M44.0111 18.8322C43.9155 18.8323 43.8238 18.8702 43.7562 18.9377C43.6885 19.0052 43.6505 19.0968 43.6504 19.1922V20.2761C43.6505 20.3715 43.6885 20.4631 43.7562 20.5306C43.8238 20.5981 43.9155 20.6361 44.0111 20.6362H44.2697C44.3653 20.6361 44.457 20.5981 44.5246 20.5306C44.5923 20.4631 44.6303 20.3715 44.6304 20.2761V19.1922C44.6303 19.0968 44.5923 19.0052 44.5246 18.9377C44.457 18.8702 44.3653 18.8323 44.2697 18.8322H44.0111Z" fill="#535461"/>
<path d="M48.3283 21.9535C49.0137 21.9535 49.5692 21.3989 49.5692 20.7148C49.5692 20.0308 49.0137 19.4762 48.3283 19.4762C47.643 19.4762 47.0874 20.0308 47.0874 20.7148C47.0874 21.3989 47.643 21.9535 48.3283 21.9535Z" fill="#E6E6E6"/>
<path d="M45.6916 24.5858C46.3769 24.5858 46.9325 24.0312 46.9325 23.3472C46.9325 22.6631 46.3769 22.1085 45.6916 22.1085C45.0063 22.1085 44.4507 22.6631 44.4507 23.3472C44.4507 24.0312 45.0063 24.5858 45.6916 24.5858Z" fill="#E6E6E6"/>
<path d="M51.069 24.431C51.7544 24.431 52.31 23.8765 52.31 23.1924C52.31 22.5083 51.7544 21.9537 51.069 21.9537C50.3837 21.9537 49.8281 22.5083 49.8281 23.1924C49.8281 23.8765 50.3837 24.431 51.069 24.431Z" fill="#E6E6E6"/>
<path d="M48.5353 27.166C49.2207 27.166 49.7763 26.6115 49.7763 25.9274C49.7763 25.2433 49.2207 24.6887 48.5353 24.6887C47.85 24.6887 47.2944 25.2433 47.2944 25.9274C47.2944 26.6115 47.85 27.166 48.5353 27.166Z" fill="#E6E6E6"/>
<path d="M31.2529 18.1099C30.9756 18.1102 30.7098 18.2203 30.5137 18.416C30.3176 18.6117 30.2073 18.877 30.207 19.1538V23.7729C30.2073 24.0497 30.3176 24.315 30.5137 24.5107C30.7098 24.7064 30.9756 24.8165 31.2529 24.8168H41.8782C42.1554 24.8165 42.4213 24.7064 42.6173 24.5107C42.8134 24.315 42.9237 24.0497 42.924 23.7729V19.1538C42.9237 18.877 42.8134 18.6117 42.6173 18.416C42.4213 18.2203 42.1554 18.1102 41.8782 18.1099H31.2529Z" fill="#535461"/>
<path d="M49.1715 21.2828H47.4888L48.3011 19.8927L49.1715 21.2828ZM47.6688 21.1796H48.9849L48.3042 20.0923L47.6688 21.1796Z" fill="#535461"/>
<path d="M46.3897 23.9664H44.9937V22.7278H46.3897V23.9664ZM45.0971 23.8632H46.2863V22.831H45.0971V23.8632Z" fill="#535461"/>
<path d="M51.069 23.9665C50.9156 23.9665 50.7657 23.9211 50.6381 23.836C50.5106 23.751 50.4112 23.6301 50.3525 23.4886C50.2938 23.3472 50.2784 23.1915 50.3084 23.0413C50.3383 22.8912 50.4122 22.7532 50.5206 22.645C50.6291 22.5367 50.7673 22.463 50.9177 22.4331C51.0682 22.4032 51.2241 22.4185 51.3658 22.4771C51.5075 22.5357 51.6287 22.635 51.7139 22.7623C51.7991 22.8896 51.8446 23.0392 51.8446 23.1924C51.8444 23.3976 51.7626 23.5944 51.6172 23.7395C51.4718 23.8846 51.2747 23.9663 51.069 23.9665ZM51.069 22.5214C50.9361 22.5214 50.8061 22.5608 50.6956 22.6345C50.5851 22.7082 50.4989 22.813 50.448 22.9356C50.3972 23.0582 50.3838 23.1931 50.4098 23.3233C50.4357 23.4534 50.4997 23.5729 50.5937 23.6668C50.6877 23.7606 50.8075 23.8245 50.9379 23.8504C51.0683 23.8763 51.2034 23.863 51.3263 23.8122C51.4491 23.7614 51.5541 23.6754 51.6279 23.5651C51.7018 23.4548 51.7412 23.3251 51.7412 23.1924C51.741 23.0145 51.6701 22.8439 51.5441 22.7182C51.4181 22.5924 51.2472 22.5216 51.069 22.5214Z" fill="#535461"/>
<path d="M47.9774 25.3106L47.9043 25.3835L49.0677 26.5448L49.1408 26.4718L47.9774 25.3106Z" fill="#535461"/>
<path d="M49.0943 25.3095L47.9053 26.4451L47.9768 26.5197L49.1658 25.3841L49.0943 25.3095Z" fill="#535461"/>
</svg>
