<svg width="164" height="127" viewBox="0 0 164 127" fill="none" xmlns="http://www.w3.org/2000/svg">
<path d="M143.498 94.343H4.34964C3.4686 94.3421 2.62413 93.9929 2.00143 93.3726C1.37881 92.7523 1.02875 91.9116 1.02771 91.0348V5.55667C1.02844 4.93292 1.27747 4.33472 1.7205 3.89335C2.16356 3.45195 2.76446 3.20346 3.39147 3.2027H144.411C145.05 3.20346 145.663 3.45672 146.114 3.90659C146.566 4.35647 146.82 4.96622 146.82 5.60201V91.0346C146.819 91.9115 146.469 92.7523 145.847 93.3726C145.224 93.9929 144.379 94.3421 143.498 94.343Z" fill="#F2F2F2" stroke="#FEFFFE" stroke-width="0.522222"/>
<path d="M139 89.8367H9.31625C7.54205 89.8367 6.12976 88.494 6.12976 86.8815V12.4458C6.12976 11.2914 7.14175 10.3217 8.4234 10.3217H139.85C141.155 10.3217 142.186 11.3091 142.186 12.4851V86.8815C142.186 88.494 140.774 89.8367 139 89.8367Z" fill="white" stroke="#FEFFFE" stroke-width="0.522222"/>
<path d="M146.77 5.74016H0.97742V4.18432C0.978744 3.30442 1.33033 2.46076 1.95537 1.83846C2.58049 1.21608 3.4281 0.865967 4.3123 0.865237L143.436 0.865237C144.32 0.86596 145.167 1.21607 145.792 1.83845C146.417 2.46079 146.769 3.30453 146.77 4.1845V5.74016Z" fill="#3F3D56" stroke="#FEFFFE" stroke-width="0.522222"/>
<path d="M7.92035 3.30805C7.92035 3.67464 7.62177 3.97351 7.25137 3.97351C6.88098 3.97351 6.5824 3.67464 6.5824 3.30805C6.5824 2.94145 6.88098 2.64258 7.25137 2.64258C7.62177 2.64258 7.92035 2.94145 7.92035 3.30805Z" fill="white" stroke="#FEFFFE" stroke-width="0.522222"/>
<path d="M11.4506 3.30805C11.4506 3.67464 11.152 3.97351 10.7816 3.97351C10.4113 3.97351 10.1127 3.67464 10.1127 3.30805C10.1127 2.94145 10.4113 2.64258 10.7816 2.64258C11.152 2.64258 11.4506 2.94145 11.4506 3.30805Z" fill="white" stroke="#FEFFFE" stroke-width="0.522222"/>
<path d="M14.9809 3.30805C14.9809 3.67464 14.6823 3.97351 14.3119 3.97351C13.9415 3.97351 13.6429 3.67464 13.6429 3.30805C13.6429 2.94145 13.9415 2.64258 14.3119 2.64258C14.6823 2.64258 14.9809 2.94145 14.9809 3.30805Z" fill="white" stroke="#FEFFFE" stroke-width="0.522222"/>
<path d="M71.0815 26.0749H45.7182C45.409 26.0749 45.1127 25.9525 44.8944 25.735C44.6761 25.5175 44.5536 25.2227 44.5536 24.9156C44.5536 24.6085 44.676 24.3137 44.8944 24.0962C45.1127 23.8787 45.409 23.7564 45.7182 23.7564H71.0815C71.3907 23.7564 71.687 23.8787 71.9054 24.0962C72.1237 24.3137 72.2461 24.6085 72.2461 24.9156C72.2461 25.2227 72.1237 25.5175 71.9054 25.735C71.687 25.9525 71.3907 26.0749 71.0815 26.0749Z" fill="#CCCCCC" stroke="#FEFFFE" stroke-width="0.522222"/>
<path d="M102.598 26.0749H77.2343C76.9251 26.0749 76.6288 25.9525 76.4105 25.735C76.1922 25.5175 76.0697 25.2227 76.0697 24.9156C76.0697 24.6085 76.1922 24.3137 76.4105 24.0962C76.6288 23.8787 76.9251 23.7564 77.2343 23.7564H102.598C102.907 23.7564 103.203 23.8787 103.421 24.0962C103.64 24.3137 103.762 24.6085 103.762 24.9156C103.762 25.2227 103.64 25.5175 103.421 25.735C103.203 25.9525 102.907 26.0749 102.598 26.0749Z" fill="#CCCCCC" stroke="#FEFFFE" stroke-width="0.522222"/>
<path d="M102.598 31.4573H58.4746C58.1654 31.4573 57.869 31.3349 57.6507 31.1174C57.4324 30.8999 57.3099 30.6052 57.3099 30.298C57.3099 29.9909 57.4324 29.6962 57.6507 29.4787C57.869 29.2612 58.1654 29.1388 58.4746 29.1388H102.598C102.907 29.1388 103.203 29.2612 103.422 29.4787C103.64 29.6962 103.762 29.9909 103.762 30.298C103.762 30.6052 103.64 30.8999 103.422 31.1174C103.203 31.3349 102.907 31.4573 102.598 31.4573Z" fill="#CCCCCC" stroke="#FEFFFE" stroke-width="0.522222"/>
<path d="M71.0815 20.6176H71.0812H45.7183C45.4093 20.6173 45.1133 20.4947 44.8953 20.2772C44.6773 20.0598 44.5551 19.7653 44.5551 19.4584C44.5551 19.1515 44.6773 18.857 44.8953 18.6395C45.1133 18.4221 45.4092 18.2996 45.7181 18.2991L71.0812 18.2991L71.0815 18.2991C71.2347 18.2989 71.3864 18.3288 71.528 18.3871L71.6274 18.1456L71.528 18.3871C71.6695 18.4454 71.7981 18.5308 71.9063 18.6385C72.0146 18.7462 72.1004 18.8741 72.159 19.0148C72.2175 19.1554 72.2476 19.3062 72.2476 19.4584C72.2476 19.6106 72.2175 19.7614 72.159 19.902C72.1004 20.0427 72.0146 20.1706 71.9063 20.2783C71.7981 20.386 71.6695 20.4714 71.528 20.5297C71.3864 20.5879 71.2347 20.6178 71.0815 20.6176Z" fill="#CCCCCC" stroke="#FEFFFE" stroke-width="0.522222"/>
<path d="M85.0387 20.6924H77.8349C77.5257 20.6924 77.2294 20.57 77.0111 20.3525C76.7927 20.135 76.6703 19.8403 76.6703 19.5332C76.6703 19.226 76.7927 18.9313 77.0111 18.7138C77.2294 18.4963 77.5257 18.3739 77.8349 18.3739H85.0387C85.3479 18.3739 85.6442 18.4963 85.8626 18.7138C86.0809 18.9313 86.2033 19.226 86.2033 19.5332C86.2033 19.8403 86.0809 20.135 85.8626 20.3525C85.6442 20.57 85.3479 20.6924 85.0387 20.6924Z" fill="#CCCCCC" stroke="#FEFFFE" stroke-width="0.522222"/>
<path d="M52.922 31.4573H52.9217H45.7183C45.4093 31.4569 45.1133 31.3344 44.8953 31.1169C44.6773 30.8995 44.5551 30.6049 44.5551 30.298C44.5551 29.9912 44.6773 29.6966 44.8953 29.4792C45.1133 29.2617 45.4092 29.1392 45.7181 29.1388L52.9217 29.1388L52.922 29.1388C53.0752 29.1386 53.2269 29.1685 53.3685 29.2268C53.51 29.285 53.6386 29.3705 53.7468 29.4782C53.8551 29.5859 53.9409 29.7137 53.9995 29.8544C54.058 29.9951 54.0881 30.1458 54.0881 30.298C54.0881 30.4503 54.058 30.601 53.9995 30.7417C53.9409 30.8823 53.8551 31.0102 53.7468 31.1179C53.6386 31.2256 53.51 31.3111 53.3685 31.3693C53.2269 31.4276 53.0752 31.4575 52.922 31.4573Z" fill="#CCCCCC" stroke="#FEFFFE" stroke-width="0.522222"/>
<path d="M71.0815 76.4767H45.7182C45.409 76.4767 45.1127 76.3543 44.8944 76.1368C44.6761 75.9194 44.5536 75.6246 44.5536 75.3175C44.5536 75.0103 44.676 74.7156 44.8944 74.4981C45.1127 74.2806 45.409 74.1582 45.7182 74.1582H71.0815C71.2346 74.1582 71.3861 74.1882 71.5275 74.2466C71.6689 74.3049 71.7973 74.3904 71.9054 74.4981C72.0135 74.6058 72.0992 74.7336 72.1576 74.8742L72.3987 74.7739L72.1576 74.8742C72.2161 75.0147 72.2461 75.1654 72.2461 75.3175C72.2461 75.4696 72.2161 75.6202 72.1576 75.7608L72.3987 75.861L72.1576 75.7608C72.0992 75.9013 72.0135 76.0291 71.9054 76.1368C71.7973 76.2445 71.6689 76.33 71.5275 76.3883C71.3861 76.4467 71.2346 76.4767 71.0815 76.4767Z" fill="#CCCCCC" stroke="#FEFFFE" stroke-width="0.522222"/>
<path d="M102.598 76.4767H77.2343C76.9251 76.4767 76.6288 76.3543 76.4105 76.1368C76.1922 75.9194 76.0697 75.6246 76.0697 75.3175C76.0697 75.0103 76.1922 74.7156 76.4105 74.4981C76.6288 74.2806 76.9251 74.1582 77.2343 74.1582H102.598C102.751 74.1582 102.902 74.1882 103.044 74.2466C103.185 74.3049 103.313 74.3904 103.421 74.4981C103.53 74.6058 103.615 74.7336 103.674 74.8742L103.915 74.7739L103.674 74.8742C103.732 75.0147 103.762 75.1654 103.762 75.3175C103.762 75.4696 103.732 75.6202 103.674 75.7608L103.915 75.861L103.674 75.7608C103.615 75.9013 103.53 76.0291 103.421 76.1368C103.313 76.2445 103.185 76.33 103.044 76.3883C102.902 76.4467 102.751 76.4767 102.598 76.4767Z" fill="#CCCCCC" stroke="#FEFFFE" stroke-width="0.522222"/>
<path d="M102.598 81.8592H102.598H58.4746C58.1654 81.8592 57.869 81.7368 57.6507 81.5193C57.4324 81.3018 57.3099 81.007 57.3099 80.6999C57.3099 80.3928 57.4324 80.098 57.6507 79.8805C57.869 79.663 58.1654 79.5407 58.4746 79.5407L102.598 79.5407L102.598 79.5407C102.751 79.5405 102.903 79.5704 103.044 79.6286C103.186 79.6869 103.315 79.7723 103.423 79.88C103.531 79.9877 103.617 80.1156 103.675 80.2563C103.734 80.3969 103.764 80.5477 103.764 80.6999C103.764 80.8521 103.734 81.0029 103.675 81.1435C103.617 81.2842 103.531 81.4121 103.423 81.5198C103.315 81.6275 103.186 81.7129 103.044 81.7712C102.903 81.8294 102.751 81.8594 102.598 81.8592Z" fill="#CCCCCC" stroke="#FEFFFE" stroke-width="0.522222"/>
<path d="M71.0815 71.0195H45.7182C45.409 71.0195 45.1127 70.8971 44.8944 70.6796C44.6761 70.4621 44.5536 70.1674 44.5536 69.8602C44.5536 69.5531 44.676 69.2584 44.8944 69.0409C45.1127 68.8234 45.409 68.701 45.7182 68.701H71.0815C71.3907 68.701 71.687 68.8234 71.9054 69.0409C72.1237 69.2584 72.2461 69.5531 72.2461 69.8602C72.2461 70.1674 72.1237 70.4621 71.9054 70.6796C71.687 70.8971 71.3907 71.0195 71.0815 71.0195Z" fill="#CCCCCC" stroke="#FEFFFE" stroke-width="0.522222"/>
<path d="M85.0387 71.0943H77.8349C77.5257 71.0943 77.2294 70.9719 77.0111 70.7544C76.7927 70.5369 76.6703 70.2422 76.6703 69.935C76.6703 69.6279 76.7927 69.3331 77.0111 69.1156C77.2294 68.8981 77.5257 68.7758 77.8349 68.7758H85.0387C85.3479 68.7758 85.6442 68.8981 85.8626 69.1156C86.0809 69.3331 86.2033 69.6279 86.2033 69.935C86.2033 70.2422 86.0809 70.5369 85.8626 70.7544C85.6442 70.9719 85.3479 71.0943 85.0387 71.0943Z" fill="#CCCCCC" stroke="#FEFFFE" stroke-width="0.522222"/>
<path d="M52.9223 81.8592H52.922H45.7182C45.409 81.8592 45.1127 81.7368 44.8944 81.5193C44.6761 81.3018 44.5536 81.007 44.5536 80.6999C44.5536 80.3928 44.676 80.098 44.8944 79.8805C45.1127 79.663 45.409 79.5407 45.7182 79.5407L52.922 79.5407L52.9223 79.5407C53.0755 79.5405 53.2272 79.5704 53.3688 79.6286C53.5103 79.6869 53.6389 79.7723 53.7471 79.88C53.8554 79.9877 53.9412 80.1156 53.9997 80.2563L54.2408 80.156L53.9997 80.2563C54.0583 80.3969 54.0884 80.5477 54.0884 80.6999C54.0884 80.8521 54.0583 81.0029 53.9997 81.1435L54.2408 81.2439L53.9997 81.1435C53.9412 81.2842 53.8554 81.4121 53.7471 81.5198C53.6389 81.6275 53.5103 81.7129 53.3688 81.7712C53.2272 81.8294 53.0755 81.8594 52.9223 81.8592Z" fill="#CCCCCC" stroke="#FEFFFE" stroke-width="0.522222"/>
<path d="M64.4567 61.2279L64.4728 61.2279C64.8209 61.2255 65.1608 61.1216 65.4504 60.9292C65.7443 60.7339 65.9732 60.4563 66.1083 60.1315C66.2434 59.8068 66.2787 59.4495 66.2097 59.1048C66.1408 58.7601 65.9706 58.4434 65.7207 58.195L65.7205 58.1948L58.7027 51.2034L58.7025 51.2032C58.4338 50.9348 58.2826 50.5709 58.2826 50.1914C58.2826 49.8118 58.4338 49.448 58.7025 49.1796L58.7027 49.1793L65.7586 42.15L65.7588 42.1498M64.4567 61.2279L65.9431 39.3741C66.3366 39.767 66.5576 40.2994 66.5576 40.8544C66.5576 41.4094 66.3366 41.9418 65.9431 42.3347L65.7588 42.1498M64.4567 61.2279C63.987 61.229 63.5361 61.0451 63.2022 60.7167L53.668 51.3373C53.5055 51.1774 53.3765 50.987 53.2885 50.7772C53.2005 50.5674 53.1552 50.3422 53.1552 50.1149C53.1552 49.8875 53.2005 49.6624 53.2885 49.4526C53.3765 49.2427 53.5055 49.0523 53.668 48.8924L63.1632 39.5514C63.1633 39.5513 63.1635 39.5511 63.1636 39.551C63.51 39.212 63.9769 39.0226 64.4629 39.0241C64.949 39.0256 65.4146 39.218 65.759 39.5593M64.4567 61.2279L65.759 39.5593M65.7588 42.1498C66.1032 41.8057 66.2965 41.3399 66.2965 40.8544C66.2965 40.369 66.1033 39.9033 65.759 39.5593M65.7588 42.1498L65.759 39.5593" fill="#3DA6F4" stroke="#FEFFFE" stroke-width="0.522222"/>
<path d="M79.6497 61.2279L79.6488 61.2279C79.2954 61.2284 78.9498 61.1244 78.656 60.9292C78.3622 60.7339 78.1333 60.4563 77.9981 60.1315C77.863 59.8068 77.8278 59.4495 77.8967 59.1048C77.9657 58.7601 78.1358 58.4434 78.3857 58.1949L78.3859 58.1948L85.4037 51.2034L85.4039 51.2032C85.6727 50.9348 85.8238 50.5709 85.8238 50.1914C85.8238 49.8118 85.6727 49.448 85.4039 49.1796L85.4037 49.1793L78.3476 42.1498L78.3476 42.1498C78.1768 41.9796 78.0413 41.7776 77.9489 41.5553C77.8565 41.3331 77.809 41.0949 77.809 40.8544C77.809 40.6139 77.8565 40.3758 77.9489 40.1535C78.0413 39.9314 78.1767 39.7295 78.3474 39.5593C78.6918 39.2181 79.1574 39.0256 79.6435 39.0241C80.1296 39.0226 80.5965 39.2121 80.943 39.5512C80.9431 39.5512 80.9432 39.5513 80.9432 39.5514L90.4384 48.8924C90.6009 49.0523 90.7299 49.2427 90.818 49.4526C90.906 49.6624 90.9513 49.8875 90.9513 50.1149C90.9513 50.3422 90.906 50.5674 90.818 50.7772C90.7299 50.987 90.6009 51.1774 90.4384 51.3373L80.9043 60.7166C80.5703 61.0451 80.1194 61.229 79.6497 61.2279Z" fill="#3DA6F4" stroke="#FEFFFE" stroke-width="0.522222"/>
<path d="M162.26 54.2738V54.7738H162.76H162.783L162.783 63.9948H162.759H162.259V64.4948V118.689C162.259 120.761 161.437 122.748 159.972 124.212C158.507 125.677 156.52 126.5 154.449 126.5H124.027C121.955 126.5 119.969 125.677 118.504 124.212C117.039 122.748 116.216 120.761 116.216 118.689V39.9148C116.216 38.8891 116.418 37.8734 116.811 36.9258C117.203 35.9781 117.779 35.1171 118.504 34.3918C119.229 33.6665 120.09 33.0912 121.038 32.6986C121.986 32.3061 123.001 32.1041 124.027 32.1041H154.449C155.475 32.1041 156.49 32.3061 157.438 32.6986C158.386 33.0911 159.247 33.6664 159.972 34.3917C160.697 35.1169 161.273 35.978 161.665 36.9256C162.058 37.8733 162.26 38.889 162.26 39.9147V54.2738Z" fill="#3F3D56" stroke="#FEFFFE"/>
<path d="M126.82 33.5559H123.717H123.717C122.178 33.5557 120.702 34.1669 119.613 35.255C118.525 36.343 117.913 37.8189 117.913 39.3579C117.913 39.358 117.913 39.358 117.913 39.3581M126.82 33.5559L117.413 39.3579L117.913 39.3581M126.82 33.5559C126.76 33.8804 126.747 34.2129 126.781 34.5435C126.84 35.1133 127.038 35.6599 127.357 36.1354C127.677 36.6108 128.108 37.0005 128.613 37.2702C129.119 37.5399 129.683 37.6813 130.255 37.682H130.256L147.956 37.682L147.957 37.682C148.529 37.6813 149.093 37.5399 149.599 37.2702C150.104 37.0005 150.535 36.6108 150.855 36.1354C151.174 35.6599 151.372 35.1133 151.431 34.5435C151.465 34.2129 151.452 33.8804 151.392 33.5559H154.763C154.763 33.5559 154.763 33.5559 154.763 33.5559C156.301 33.5562 157.777 34.1674 158.865 35.2552C159.953 36.343 160.564 37.8183 160.565 39.3567L126.82 33.5559ZM117.913 39.3581V119.246V39.3581ZM119.613 123.349C118.525 122.261 117.913 120.785 117.913 119.246L160.565 39.3569V39.3579V119.246C160.565 120.784 159.953 122.26 158.866 123.348C157.778 124.436 156.302 125.047 154.764 125.048V125.548L154.764 125.048H123.718C122.178 125.048 120.702 124.437 119.613 123.349Z" fill="white" stroke="#FEFFFE"/>
<mask id="path-23-inside-1" fill="white">
<path d="M139.572 71.318C136.037 71.3193 132.647 69.9165 130.146 67.4181C127.646 64.9197 126.24 61.5303 126.238 57.9956V57.9838C126.238 57.9558 126.238 57.9264 126.24 57.8985C126.28 50.5966 132.262 44.6505 139.572 44.6505C141.323 44.6504 143.057 44.9951 144.674 45.6651C146.292 46.3351 147.762 47.3172 149 48.5552C150.239 49.7933 151.221 51.2631 151.891 52.8808C152.561 54.4985 152.906 56.2323 152.906 57.9833C152.906 59.7343 152.561 61.4681 151.891 63.0859C151.222 64.7036 150.239 66.1736 149.001 67.4118C147.763 68.65 146.293 69.6322 144.676 70.3024C143.058 70.9725 141.324 71.3175 139.573 71.3176H139.572V71.318ZM139.572 44.931C136.126 44.9387 132.822 46.306 130.378 48.7358C127.934 51.1655 126.548 54.4615 126.521 57.9075C126.519 57.9373 126.519 57.9612 126.519 57.9839C126.519 60.5659 127.284 63.09 128.719 65.237C130.153 67.384 132.191 69.0575 134.577 70.0458C136.962 71.0341 139.587 71.2929 142.12 70.7894C144.652 70.2859 146.978 69.0427 148.804 67.2171C150.63 65.3914 151.873 63.0653 152.377 60.533C152.881 58.0006 152.623 55.3757 151.635 52.9902C150.647 50.6047 148.974 48.5658 146.827 47.1312C144.68 45.6967 142.156 44.931 139.574 44.931H139.572Z"/>
</mask>
<path d="M139.572 71.318C136.037 71.3193 132.647 69.9165 130.146 67.4181C127.646 64.9197 126.24 61.5303 126.238 57.9956V57.9838C126.238 57.9558 126.238 57.9264 126.24 57.8985C126.28 50.5966 132.262 44.6505 139.572 44.6505C141.323 44.6504 143.057 44.9951 144.674 45.6651C146.292 46.3351 147.762 47.3172 149 48.5552C150.239 49.7933 151.221 51.2631 151.891 52.8808C152.561 54.4985 152.906 56.2323 152.906 57.9833C152.906 59.7343 152.561 61.4681 151.891 63.0859C151.222 64.7036 150.239 66.1736 149.001 67.4118C147.763 68.65 146.293 69.6322 144.676 70.3024C143.058 70.9725 141.324 71.3175 139.573 71.3176H139.572V71.318ZM139.572 44.931C136.126 44.9387 132.822 46.306 130.378 48.7358C127.934 51.1655 126.548 54.4615 126.521 57.9075C126.519 57.9373 126.519 57.9612 126.519 57.9839C126.519 60.5659 127.284 63.09 128.719 65.237C130.153 67.384 132.191 69.0575 134.577 70.0458C136.962 71.0341 139.587 71.2929 142.12 70.7894C144.652 70.2859 146.978 69.0427 148.804 67.2171C150.63 65.3914 151.873 63.0653 152.377 60.533C152.881 58.0006 152.623 55.3757 151.635 52.9902C150.647 50.6047 148.974 48.5658 146.827 47.1312C144.68 45.6967 142.156 44.931 139.574 44.931H139.572Z" fill="#E6E6E6"/>
<path d="M139.572 71.318L139.572 72.318L140.572 72.3176V71.318H139.572ZM126.238 57.9956H125.238L125.238 57.996L126.238 57.9956ZM126.24 57.8985L127.238 57.9561L127.24 57.9301L127.24 57.904L126.24 57.8985ZM139.572 44.6505V45.6505H139.572L139.572 44.6505ZM139.573 71.3176V72.3176H139.573L139.573 71.3176ZM139.572 71.3176V70.3176H138.572V71.3176H139.572ZM139.572 44.931V43.931L139.57 43.931L139.572 44.931ZM126.521 57.9075L127.519 57.957L127.52 57.9363L127.521 57.9155L126.521 57.9075ZM126.519 57.9839L127.519 57.984V57.9839H126.519ZM139.574 44.931L139.574 43.931H139.574V44.931ZM139.571 70.318C136.302 70.3192 133.166 69.0216 130.853 66.7107L129.439 68.1255C132.127 70.8113 135.772 72.3194 139.572 72.318L139.571 70.318ZM130.853 66.7107C128.54 64.3997 127.24 61.2647 127.238 57.9951L125.238 57.996C125.24 61.796 126.751 65.4396 129.439 68.1255L130.853 66.7107ZM127.238 57.9956V57.9838H125.238V57.9956H127.238ZM127.238 57.9838C127.238 57.9765 127.238 57.9712 127.238 57.9662C127.238 57.9613 127.238 57.9578 127.238 57.9552C127.238 57.9496 127.239 57.9507 127.238 57.9561L125.242 57.8409C125.238 57.9026 125.238 57.9612 125.238 57.9838H127.238ZM127.24 57.904C127.277 51.1529 132.811 45.6505 139.572 45.6505V43.6505C131.712 43.6505 125.283 50.0404 125.24 57.893L127.24 57.904ZM139.572 45.6505C141.192 45.6504 142.795 45.9693 144.292 46.589L145.057 44.7412C143.318 44.021 141.454 43.6503 139.572 43.6505L139.572 45.6505ZM144.292 46.589C145.788 47.2088 147.148 48.1172 148.293 49.2624L149.707 47.8481C148.376 46.5172 146.796 45.4615 145.057 44.7412L144.292 46.589ZM148.293 49.2624C149.439 50.4076 150.347 51.7672 150.967 53.2635L152.815 52.4981C152.094 50.7591 151.038 49.179 149.707 47.8481L148.293 49.2624ZM150.967 53.2635C151.587 54.7599 151.906 56.3637 151.906 57.9833L153.906 57.9832C153.906 56.1009 153.535 54.2371 152.815 52.4981L150.967 53.2635ZM151.906 57.9833C151.906 59.603 151.587 61.2068 150.968 62.7033L152.815 63.4685C153.536 61.7294 153.906 59.8655 153.906 57.9832L151.906 57.9833ZM150.968 62.7033C150.348 64.1997 149.439 65.5594 148.294 66.7047L149.709 68.1188C151.039 66.7878 152.095 65.2076 152.815 63.4685L150.968 62.7033ZM148.294 66.7047C147.149 67.85 145.789 68.7586 144.293 69.3785L145.059 71.2262C146.798 70.5058 148.378 69.4499 149.709 68.1188L148.294 66.7047ZM144.293 69.3785C142.797 69.9984 141.193 70.3175 139.573 70.3176L139.573 72.3176C141.456 72.3175 143.32 71.9466 145.059 71.2262L144.293 69.3785ZM139.573 70.3176H139.572V72.3176H139.573V70.3176ZM138.572 71.3176V71.318H140.572V71.3176H138.572ZM139.57 43.931C135.86 43.9393 132.304 45.4111 129.673 48.0266L131.083 49.4449C133.34 47.2009 136.391 45.9381 139.574 45.931L139.57 43.931ZM129.673 48.0266C127.042 50.6422 125.55 54.1901 125.521 57.8995L127.521 57.9155C127.546 54.7329 128.826 51.6889 131.083 49.4449L129.673 48.0266ZM125.522 57.858C125.519 57.915 125.519 57.9609 125.519 57.9839H127.519C127.519 57.9616 127.519 57.9596 127.519 57.957L125.522 57.858ZM125.519 57.9838C125.519 60.7636 126.343 63.481 127.887 65.7925L129.55 64.6815C128.226 62.699 127.519 60.3682 127.519 57.984L125.519 57.9838ZM127.887 65.7925C129.431 68.104 131.626 69.9056 134.194 70.9697L134.96 69.122C132.757 68.2094 130.874 66.6641 129.55 64.6815L127.887 65.7925ZM134.194 70.9697C136.762 72.0337 139.588 72.3123 142.315 71.7702L141.924 69.8086C139.586 70.2735 137.162 70.0346 134.96 69.122L134.194 70.9697ZM142.315 71.7702C145.041 71.2281 147.545 69.8897 149.511 67.9242L148.097 66.5099C146.411 68.1957 144.263 69.3436 141.924 69.8086L142.315 71.7702ZM149.511 67.9242C151.477 65.9587 152.816 63.4545 153.358 60.7281L151.397 60.3378C150.931 62.6762 149.783 64.8241 148.097 66.5099L149.511 67.9242ZM153.358 60.7281C153.901 58.0018 153.622 55.1758 152.559 52.6076L150.711 53.3729C151.623 55.5756 151.862 57.9995 151.397 60.3378L153.358 60.7281ZM152.559 52.6076C151.495 50.0393 149.694 47.8442 147.382 46.2998L146.271 47.9627C148.253 49.2873 149.799 51.1701 150.711 53.3729L152.559 52.6076ZM147.382 46.2998C145.071 44.7554 142.354 43.931 139.574 43.931L139.574 45.931C141.958 45.931 144.289 46.6381 146.271 47.9627L147.382 46.2998ZM139.574 43.931H139.572V45.931H139.574V43.931Z" fill="#FEFFFE" mask="url(#path-23-inside-1)"/>
<path d="M136.102 55.0085C136.102 56.313 135.045 57.3705 133.74 57.3705C132.436 57.3705 131.378 56.313 131.378 55.0085C131.378 53.704 132.436 52.6465 133.74 52.6465C135.045 52.6465 136.102 53.704 136.102 55.0085Z" fill="#3F3D56" stroke="#FEFFFE"/>
<path d="M141.849 63.3275H129.486L135.668 52.6213L140.096 60.2901L140.096 60.2903L140.309 60.6593L140.309 60.6595L141.849 63.3275Z" fill="#3DA6F4" stroke="#FEFFFE"/>
<path d="M149.581 63.3276H139.34L141.153 60.6932L141.154 60.6929L141.323 60.4469L141.323 60.4466L144.375 56.0126C144.385 56.0029 144.395 55.9948 144.407 55.9887C144.422 55.9809 144.439 55.9763 144.455 55.9753C144.472 55.9743 144.489 55.9769 144.505 55.9828C144.516 55.987 144.527 55.9928 144.536 56.0001L149.581 63.3276Z" fill="#3DA6F4" stroke="#FEFFFE"/>
<mask id="path-28-inside-2" fill="white">
<path d="M153.359 85.3368H125.771C125.636 85.3366 125.506 85.2828 125.41 85.187C125.314 85.0912 125.26 84.9614 125.26 84.8259V77.9825C125.26 77.8471 125.314 77.7173 125.41 77.6215C125.506 77.5257 125.636 77.4719 125.771 77.4717H153.359C153.495 77.4719 153.625 77.5257 153.72 77.6215C153.816 77.7173 153.87 77.8471 153.87 77.9825V84.826C153.87 84.9615 153.816 85.0913 153.72 85.1871C153.625 85.2828 153.495 85.3367 153.359 85.3369V85.3368ZM125.771 77.676C125.69 77.676 125.612 77.7084 125.554 77.7658C125.497 77.8233 125.465 77.9013 125.465 77.9825V84.826C125.465 84.9073 125.497 84.9853 125.554 85.0427C125.612 85.1002 125.69 85.1325 125.771 85.1326H153.359C153.441 85.1325 153.519 85.1002 153.576 85.0427C153.634 84.9853 153.666 84.9073 153.666 84.826V77.9825C153.666 77.9013 153.634 77.8233 153.576 77.7658C153.519 77.7084 153.441 77.676 153.359 77.676H125.771Z"/>
</mask>
<path d="M153.359 85.3368H125.771C125.636 85.3366 125.506 85.2828 125.41 85.187C125.314 85.0912 125.26 84.9614 125.26 84.8259V77.9825C125.26 77.8471 125.314 77.7173 125.41 77.6215C125.506 77.5257 125.636 77.4719 125.771 77.4717H153.359C153.495 77.4719 153.625 77.5257 153.72 77.6215C153.816 77.7173 153.87 77.8471 153.87 77.9825V84.826C153.87 84.9615 153.816 85.0913 153.72 85.1871C153.625 85.2828 153.495 85.3367 153.359 85.3369V85.3368ZM125.771 77.676C125.69 77.676 125.612 77.7084 125.554 77.7658C125.497 77.8233 125.465 77.9013 125.465 77.9825V84.826C125.465 84.9073 125.497 84.9853 125.554 85.0427C125.612 85.1002 125.69 85.1325 125.771 85.1326H153.359C153.441 85.1325 153.519 85.1002 153.576 85.0427C153.634 84.9853 153.666 84.9073 153.666 84.826V77.9825C153.666 77.9013 153.634 77.8233 153.576 77.7658C153.519 77.7084 153.441 77.676 153.359 77.676H125.771Z" fill="#E6E6E6"/>
<path d="M153.359 85.3368H154.359V84.3368H153.359V85.3368ZM125.771 85.3368L125.77 86.3368H125.771V85.3368ZM125.26 84.8259H124.26L124.26 84.827L125.26 84.8259ZM125.26 77.9825L124.26 77.9812V77.9825H125.26ZM125.771 77.4717V76.4717L125.77 76.4717L125.771 77.4717ZM153.359 77.4717L153.361 76.4717H153.359V77.4717ZM153.87 77.9825H154.87L154.87 77.9812L153.87 77.9825ZM153.87 84.826L154.87 84.8274V84.826H153.87ZM153.359 85.3369H152.359V86.3382L153.361 86.3369L153.359 85.3369ZM125.771 77.676V76.676L125.77 76.676L125.771 77.676ZM125.465 77.9825L124.465 77.9817V77.9825H125.465ZM125.465 84.826H124.465L124.465 84.8269L125.465 84.826ZM125.771 85.1326L125.77 86.1326H125.771V85.1326ZM153.359 85.1326V86.1326H153.36L153.359 85.1326ZM153.666 84.826L154.666 84.8269V84.826H153.666ZM153.666 77.9825H154.666V77.9817L153.666 77.9825ZM153.359 77.676L153.36 76.676H153.359V77.676ZM153.359 84.3368H125.771V86.3368H153.359V84.3368ZM125.772 84.3368C125.902 84.3369 126.026 84.3884 126.117 84.4799L124.703 85.8941C124.986 86.1772 125.37 86.3363 125.77 86.3368L125.772 84.3368ZM126.117 84.4799C126.209 84.5714 126.26 84.6955 126.26 84.8249L124.26 84.827C124.261 85.2273 124.42 85.611 124.703 85.8941L126.117 84.4799ZM126.26 84.8259V77.9825H124.26V84.8259H126.26ZM126.26 77.9839C126.26 78.1132 126.209 78.2372 126.117 78.3286L124.703 76.9144C124.42 77.1974 124.261 77.581 124.26 77.9812L126.26 77.9839ZM126.117 78.3286C126.026 78.4201 125.902 78.4715 125.772 78.4717L125.77 76.4717C125.37 76.4722 124.986 76.6314 124.703 76.9144L126.117 78.3286ZM125.771 78.4717H153.359V76.4717H125.771V78.4717ZM153.358 78.4717C153.229 78.4715 153.105 78.4201 153.013 78.3286L154.428 76.9144C154.145 76.6314 153.761 76.4722 153.361 76.4717L153.358 78.4717ZM153.013 78.3286C152.922 78.2372 152.87 78.1132 152.87 77.9839L154.87 77.9812C154.87 77.581 154.711 77.1974 154.428 76.9144L153.013 78.3286ZM152.87 77.9825V84.826H154.87V77.9825H152.87ZM152.87 84.8247C152.87 84.6954 152.922 84.5714 153.013 84.48L154.428 85.8942C154.711 85.6112 154.87 85.2275 154.87 84.8274L152.87 84.8247ZM153.013 84.48C153.105 84.3885 153.229 84.3371 153.358 84.3369L153.361 86.3369C153.761 86.3364 154.145 86.1772 154.428 85.8942L153.013 84.48ZM154.359 85.3369V85.3368H152.359V85.3369H154.359ZM125.77 76.676C125.424 76.6763 125.092 76.8139 124.847 77.0587L126.262 78.473C126.132 78.6028 125.956 78.6758 125.772 78.676L125.77 76.676ZM124.847 77.0587C124.603 77.3035 124.465 77.6355 124.465 77.9817L126.465 77.9834C126.464 78.1671 126.391 78.3431 126.262 78.473L124.847 77.0587ZM124.465 77.9825V84.826H126.465V77.9825H124.465ZM124.465 84.8269C124.465 85.1731 124.603 85.505 124.847 85.7498L126.262 84.3356C126.391 84.4655 126.464 84.6415 126.465 84.8252L124.465 84.8269ZM124.847 85.7498C125.092 85.9947 125.424 86.1323 125.77 86.1326L125.772 84.1326C125.956 84.1328 126.132 84.2058 126.262 84.3356L124.847 85.7498ZM125.771 86.1326H153.359V84.1326H125.771V86.1326ZM153.36 86.1326C153.707 86.1323 154.038 85.9946 154.283 85.7498L152.869 84.3356C152.999 84.2058 153.175 84.1328 153.359 84.1326L153.36 86.1326ZM154.283 85.7498C154.528 85.505 154.666 85.1731 154.666 84.8269L152.666 84.8252C152.666 84.6415 152.739 84.4655 152.869 84.3356L154.283 85.7498ZM154.666 84.826V77.9825H152.666V84.826H154.666ZM154.666 77.9817C154.666 77.6355 154.528 77.3035 154.283 77.0587L152.869 78.473C152.739 78.3431 152.666 78.1671 152.666 77.9834L154.666 77.9817ZM154.283 77.0587C154.038 76.8139 153.707 76.6763 153.36 76.676L153.359 78.676C153.175 78.6758 152.999 78.6028 152.869 78.473L154.283 77.0587ZM153.359 76.676H125.771V78.676H153.359V76.676Z" fill="#FEFFFE" mask="url(#path-28-inside-2)"/>
<path d="M130.993 81.4043C130.993 82.3132 130.256 83.05 129.347 83.05C128.438 83.05 127.702 82.3132 127.702 81.4043C127.702 80.4954 128.438 79.7585 129.347 79.7585C130.256 79.7585 130.993 80.4954 130.993 81.4043Z" fill="#3DA6F4" stroke="#FEFFFE"/>
<path d="M151.176 80.3315L151.176 80.3315L151.176 80.3315Z" fill="#E6E6E6" stroke="#FEFFFE"/>
<path d="M151.176 82.4772L151.176 82.4772L151.176 82.4772ZM133.975 82.6195C133.993 82.6603 134.018 82.6979 134.05 82.7299C134.117 82.797 134.208 82.8347 134.303 82.8347H151.162L133.975 82.6195Z" fill="#E6E6E6" stroke="#FEFFFE"/>
<mask id="path-33-inside-3" fill="white">
<path d="M153.359 96.7809H125.771C125.636 96.7807 125.506 96.7269 125.41 96.6311C125.314 96.5353 125.26 96.4054 125.26 96.27V89.4266C125.26 89.2912 125.314 89.1614 125.41 89.0656C125.506 88.9698 125.636 88.9159 125.771 88.9158H153.359C153.495 88.9159 153.625 88.9698 153.72 89.0656C153.816 89.1614 153.87 89.2912 153.87 89.4266V96.2701C153.87 96.4055 153.816 96.5353 153.72 96.6311C153.625 96.7268 153.495 96.7807 153.359 96.7809ZM125.771 89.1201C125.69 89.1201 125.612 89.1525 125.554 89.2099C125.497 89.2674 125.465 89.3454 125.465 89.4266V96.2701C125.465 96.3514 125.497 96.4294 125.554 96.4868C125.612 96.5443 125.69 96.5766 125.771 96.5767H153.359C153.441 96.5766 153.519 96.5443 153.576 96.4868C153.634 96.4294 153.666 96.3514 153.666 96.2701V89.4266C153.666 89.3454 153.634 89.2674 153.576 89.2099C153.519 89.1525 153.441 89.1201 153.359 89.1201H125.771Z"/>
</mask>
<path d="M153.359 96.7809H125.771C125.636 96.7807 125.506 96.7269 125.41 96.6311C125.314 96.5353 125.26 96.4054 125.26 96.27V89.4266C125.26 89.2912 125.314 89.1614 125.41 89.0656C125.506 88.9698 125.636 88.9159 125.771 88.9158H153.359C153.495 88.9159 153.625 88.9698 153.72 89.0656C153.816 89.1614 153.87 89.2912 153.87 89.4266V96.2701C153.87 96.4055 153.816 96.5353 153.72 96.6311C153.625 96.7268 153.495 96.7807 153.359 96.7809ZM125.771 89.1201C125.69 89.1201 125.612 89.1525 125.554 89.2099C125.497 89.2674 125.465 89.3454 125.465 89.4266V96.2701C125.465 96.3514 125.497 96.4294 125.554 96.4868C125.612 96.5443 125.69 96.5766 125.771 96.5767H153.359C153.441 96.5766 153.519 96.5443 153.576 96.4868C153.634 96.4294 153.666 96.3514 153.666 96.2701V89.4266C153.666 89.3454 153.634 89.2674 153.576 89.2099C153.519 89.1525 153.441 89.1201 153.359 89.1201H125.771Z" fill="#E6E6E6"/>
<path d="M125.771 96.7809L125.77 97.7809H125.771V96.7809ZM125.26 96.27H124.26L124.26 96.271L125.26 96.27ZM125.26 89.4266L124.26 89.4253V89.4266H125.26ZM125.771 88.9158V87.9158L125.77 87.9158L125.771 88.9158ZM153.359 88.9158L153.361 87.9158H153.359V88.9158ZM153.87 89.4266H154.87L154.87 89.4253L153.87 89.4266ZM153.87 96.2701L154.87 96.2717V96.2701H153.87ZM125.771 89.1201V88.1201L125.77 88.1201L125.771 89.1201ZM125.465 89.4266L124.465 89.4258V89.4266H125.465ZM125.465 96.2701H124.465L124.465 96.271L125.465 96.2701ZM125.771 96.5767L125.77 97.5767H125.771V96.5767ZM153.359 96.5767V97.5767H153.36L153.359 96.5767ZM153.666 96.2701L154.666 96.271V96.2701H153.666ZM153.666 89.4266H154.666V89.4258L153.666 89.4266ZM153.359 89.1201L153.36 88.1201H153.359V89.1201ZM153.359 95.7809H125.771V97.7809H153.359V95.7809ZM125.772 95.7809C125.902 95.781 126.026 95.8325 126.117 95.924L124.703 97.3382C124.986 97.6212 125.37 97.7804 125.77 97.7809L125.772 95.7809ZM126.117 95.924C126.209 96.0155 126.26 96.1395 126.26 96.269L124.26 96.271C124.261 96.6713 124.42 97.0551 124.703 97.3382L126.117 95.924ZM126.26 96.27V89.4266H124.26V96.27H126.26ZM126.26 89.4279C126.26 89.5573 126.209 89.6813 126.117 89.7727L124.703 88.3585C124.42 88.6415 124.261 89.0251 124.26 89.4253L126.26 89.4279ZM126.117 89.7727C126.026 89.8641 125.902 89.9156 125.772 89.9158L125.77 87.9158C125.37 87.9163 124.986 88.0755 124.703 88.3585L126.117 89.7727ZM125.771 89.9158H153.359V87.9158H125.771V89.9158ZM153.358 89.9158C153.229 89.9156 153.105 89.8641 153.013 89.7727L154.428 88.3585C154.145 88.0755 153.761 87.9163 153.361 87.9158L153.358 89.9158ZM153.013 89.7727C152.922 89.6813 152.87 89.5573 152.87 89.4279L154.87 89.4253C154.87 89.0251 154.711 88.6415 154.428 88.3585L153.013 89.7727ZM152.87 89.4266V96.2701H154.87V89.4266H152.87ZM152.87 96.2686C152.871 96.1393 152.922 96.0153 153.013 95.9239L154.427 97.3383C154.71 97.0554 154.87 96.6718 154.87 96.2717L152.87 96.2686ZM153.013 95.9239C153.105 95.8325 153.229 95.781 153.358 95.7809L153.361 97.7809C153.761 97.7803 154.144 97.6212 154.427 97.3383L153.013 95.9239ZM125.77 88.1201C125.424 88.1204 125.092 88.258 124.847 88.5028L126.262 89.917C126.132 90.0469 125.956 90.1199 125.772 90.1201L125.77 88.1201ZM124.847 88.5028C124.603 88.7476 124.465 89.0796 124.465 89.4258L126.465 89.4275C126.464 89.6111 126.391 89.7872 126.262 89.917L124.847 88.5028ZM124.465 89.4266V96.2701H126.465V89.4266H124.465ZM124.465 96.271C124.465 96.6172 124.603 96.9491 124.847 97.1939L126.262 95.7797C126.391 95.9096 126.464 96.0856 126.465 96.2693L124.465 96.271ZM124.847 97.1939C125.092 97.4387 125.424 97.5764 125.77 97.5767L125.772 95.5767C125.956 95.5769 126.132 95.6499 126.262 95.7797L124.847 97.1939ZM125.771 97.5767H153.359V95.5767H125.771V97.5767ZM153.36 97.5767C153.707 97.5764 154.038 97.4387 154.283 97.1939L152.869 95.7797C152.999 95.6499 153.175 95.5769 153.359 95.5767L153.36 97.5767ZM154.283 97.1939C154.528 96.9491 154.666 96.6172 154.666 96.271L152.666 96.2693C152.666 96.0856 152.739 95.9096 152.869 95.7797L154.283 97.1939ZM154.666 96.2701V89.4266H152.666V96.2701H154.666ZM154.666 89.4258C154.666 89.0796 154.528 88.7476 154.283 88.5028L152.869 89.917C152.739 89.7872 152.666 89.6111 152.666 89.4275L154.666 89.4258ZM154.283 88.5028C154.038 88.258 153.707 88.1204 153.36 88.1201L153.359 90.1201C153.175 90.1199 152.999 90.0469 152.869 89.917L154.283 88.5028ZM153.359 88.1201H125.771V90.1201H153.359V88.1201Z" fill="#FEFFFE" mask="url(#path-33-inside-3)"/>
<path d="M130.993 92.8482C130.993 93.7571 130.256 94.4939 129.347 94.4939C128.438 94.4939 127.702 93.7571 127.702 92.8482C127.702 91.9393 128.438 91.2025 129.347 91.2025C130.256 91.2025 130.993 91.9393 130.993 92.8482Z" fill="#3DA6F4" stroke="#FEFFFE"/>
<mask id="path-36-inside-4" fill="white">
<path d="M134.303 91.4174C134.208 91.4174 134.117 91.455 134.05 91.5221C133.983 91.5892 133.945 91.6801 133.945 91.775C133.945 91.8699 133.983 91.9608 134.05 92.0279C134.117 92.095 134.208 92.1327 134.303 92.1327H151.162C151.256 92.1321 151.345 92.095 151.412 92.0292C151.478 91.9635 151.516 91.8743 151.518 91.7808C151.52 91.6873 151.484 91.5969 151.42 91.529C151.356 91.4611 151.267 91.4211 151.174 91.4175H134.303V91.4174Z"/>
</mask>
<path d="M134.303 91.4174C134.208 91.4174 134.117 91.455 134.05 91.5221C133.983 91.5892 133.945 91.6801 133.945 91.775C133.945 91.8699 133.983 91.9608 134.05 92.0279C134.117 92.095 134.208 92.1327 134.303 92.1327H151.162C151.256 92.1321 151.345 92.095 151.412 92.0292C151.478 91.9635 151.516 91.8743 151.518 91.7808C151.52 91.6873 151.484 91.5969 151.42 91.529C151.356 91.4611 151.267 91.4211 151.174 91.4175H134.303V91.4174Z" fill="#E6E6E6"/>
<path d="M134.303 91.4174H135.303V90.4174H134.303V91.4174ZM151.162 92.1327V93.1327L151.168 93.1326L151.162 92.1327ZM151.174 91.4175L151.212 90.4182L151.193 90.4175H151.174V91.4175ZM134.303 91.4175H133.303V92.4175H134.303V91.4175ZM134.303 90.4174C133.943 90.4174 133.598 90.5604 133.343 90.815L134.757 92.2292C134.637 92.3497 134.473 92.4174 134.303 92.4174V90.4174ZM133.343 90.815C133.088 91.0696 132.945 91.4149 132.945 91.775H134.945C134.945 91.9454 134.878 92.1088 134.757 92.2292L133.343 90.815ZM132.945 91.775C132.945 92.135 133.088 92.4804 133.343 92.735L134.757 91.3208C134.878 91.4413 134.945 91.6047 134.945 91.775H132.945ZM133.343 92.735C133.598 92.9896 133.943 93.1327 134.303 93.1327V91.1327C134.473 91.1327 134.637 91.2003 134.757 91.3208L133.343 92.735ZM134.303 93.1327H151.162V91.1327H134.303V93.1327ZM151.168 93.1326C151.523 93.1306 151.863 92.9897 152.115 92.7401L150.709 91.3184C150.828 91.2003 150.989 91.1336 151.157 91.1327L151.168 93.1326ZM152.115 92.7401C152.368 92.4905 152.512 92.152 152.518 91.7971L150.518 91.7645C150.521 91.5966 150.589 91.4364 150.709 91.3184L152.115 92.7401ZM152.518 91.7971C152.524 91.4422 152.39 91.0992 152.146 90.8415L150.694 92.2165C150.578 92.0946 150.515 91.9323 150.518 91.7645L152.518 91.7971ZM152.146 90.8415C151.902 90.5837 151.567 90.4318 151.212 90.4182L151.136 92.4168C150.968 92.4103 150.809 92.3385 150.694 92.2165L152.146 90.8415ZM151.174 90.4175H134.303V92.4175H151.174V90.4175ZM135.303 91.4175V91.4174H133.303V91.4175H135.303Z" fill="#FEFFFE" mask="url(#path-36-inside-4)"/>
<mask id="path-38-inside-5" fill="white">
<path d="M134.303 93.5635C134.208 93.5635 134.117 93.6012 134.05 93.6682C133.983 93.7353 133.945 93.8263 133.945 93.9211C133.945 94.016 133.983 94.1069 134.05 94.174C134.117 94.2411 134.208 94.2788 134.303 94.2788H151.162C151.256 94.2782 151.345 94.2411 151.412 94.1753C151.478 94.1096 151.516 94.0204 151.518 93.9269C151.52 93.8334 151.484 93.743 151.42 93.6751C151.356 93.6072 151.267 93.5672 151.174 93.5636H134.303V93.5635Z"/>
</mask>
<path d="M134.303 93.5635C134.208 93.5635 134.117 93.6012 134.05 93.6682C133.983 93.7353 133.945 93.8263 133.945 93.9211C133.945 94.016 133.983 94.1069 134.05 94.174C134.117 94.2411 134.208 94.2788 134.303 94.2788H151.162C151.256 94.2782 151.345 94.2411 151.412 94.1753C151.478 94.1096 151.516 94.0204 151.518 93.9269C151.52 93.8334 151.484 93.743 151.42 93.6751C151.356 93.6072 151.267 93.5672 151.174 93.5636H134.303V93.5635Z" fill="#E6E6E6"/>
<path d="M134.303 93.5635H135.303V92.5635H134.303V93.5635ZM151.162 94.2788V95.2788L151.168 95.2787L151.162 94.2788ZM151.174 93.5636L151.212 92.5643L151.193 92.5636H151.174V93.5636ZM134.303 93.5636H133.303V94.5636H134.303V93.5636ZM134.303 92.5635C133.943 92.5635 133.598 92.7065 133.343 92.9611L134.757 94.3753C134.637 94.4958 134.473 94.5635 134.303 94.5635V92.5635ZM133.343 92.9611C133.088 93.2157 132.945 93.5611 132.945 93.9211H134.945C134.945 94.0915 134.878 94.2549 134.757 94.3753L133.343 92.9611ZM132.945 93.9211C132.945 94.2812 133.088 94.6265 133.343 94.8811L134.757 93.4669C134.878 93.5874 134.945 93.7508 134.945 93.9211H132.945ZM133.343 94.8811C133.598 95.1357 133.943 95.2788 134.303 95.2788V93.2788C134.473 93.2788 134.637 93.3464 134.757 93.4669L133.343 94.8811ZM134.303 95.2788H151.162V93.2788H134.303V95.2788ZM151.168 95.2787C151.523 95.2767 151.863 95.1358 152.115 94.8862L150.709 93.4645C150.828 93.3464 150.989 93.2797 151.157 93.2788L151.168 95.2787ZM152.115 94.8862C152.368 94.6366 152.512 94.2981 152.518 93.9432L150.518 93.9106C150.521 93.7427 150.589 93.5826 150.709 93.4645L152.115 94.8862ZM152.518 93.9432C152.524 93.5883 152.39 93.2453 152.146 92.9876L150.694 94.3626C150.579 94.2407 150.515 94.0785 150.518 93.9106L152.518 93.9432ZM152.146 92.9876C151.902 92.7299 151.567 92.5779 151.212 92.5643L151.136 94.5629C150.968 94.5564 150.809 94.4845 150.694 94.3626L152.146 92.9876ZM151.174 92.5636H134.303V94.5636H151.174V92.5636ZM135.303 93.5636V93.5635H133.303V93.5636H135.303Z" fill="#FEFFFE" mask="url(#path-38-inside-5)"/>
<mask id="path-40-inside-6" fill="white">
<path d="M153.359 108.225H125.771C125.636 108.225 125.506 108.171 125.41 108.075C125.314 107.979 125.26 107.849 125.26 107.714V100.871C125.26 100.735 125.314 100.605 125.41 100.51C125.506 100.414 125.636 100.36 125.771 100.36H153.359C153.495 100.36 153.625 100.414 153.72 100.51C153.816 100.605 153.87 100.735 153.87 100.871V107.714C153.87 107.85 153.816 107.979 153.72 108.075C153.625 108.171 153.495 108.225 153.359 108.225V108.225ZM125.771 100.564C125.69 100.564 125.612 100.596 125.554 100.654C125.497 100.711 125.465 100.789 125.465 100.871V107.714C125.465 107.795 125.497 107.873 125.554 107.931C125.612 107.988 125.69 108.021 125.771 108.021H153.359C153.441 108.021 153.519 107.988 153.576 107.931C153.634 107.873 153.666 107.795 153.666 107.714V100.871C153.666 100.789 153.634 100.711 153.576 100.654C153.519 100.596 153.441 100.564 153.359 100.564H125.771Z"/>
</mask>
<path d="M153.359 108.225H125.771C125.636 108.225 125.506 108.171 125.41 108.075C125.314 107.979 125.26 107.849 125.26 107.714V100.871C125.26 100.735 125.314 100.605 125.41 100.51C125.506 100.414 125.636 100.36 125.771 100.36H153.359C153.495 100.36 153.625 100.414 153.72 100.51C153.816 100.605 153.87 100.735 153.87 100.871V107.714C153.87 107.85 153.816 107.979 153.72 108.075C153.625 108.171 153.495 108.225 153.359 108.225V108.225ZM125.771 100.564C125.69 100.564 125.612 100.596 125.554 100.654C125.497 100.711 125.465 100.789 125.465 100.871V107.714C125.465 107.795 125.497 107.873 125.554 107.931C125.612 107.988 125.69 108.021 125.771 108.021H153.359C153.441 108.021 153.519 107.988 153.576 107.931C153.634 107.873 153.666 107.795 153.666 107.714V100.871C153.666 100.789 153.634 100.711 153.576 100.654C153.519 100.596 153.441 100.564 153.359 100.564H125.771Z" fill="#E6E6E6"/>
<path d="M153.359 108.225H154.359V107.225H153.359V108.225ZM125.771 108.225L125.77 109.225H125.771V108.225ZM125.26 107.714H124.26L124.26 107.715L125.26 107.714ZM125.26 100.871L124.26 100.869V100.871H125.26ZM125.771 100.36V99.3597L125.77 99.3597L125.771 100.36ZM153.359 100.36L153.361 99.3597H153.359V100.36ZM153.87 100.871H154.87L154.87 100.869L153.87 100.871ZM153.87 107.714L154.87 107.715V107.714H153.87ZM153.359 108.225H152.359V109.226L153.361 109.225L153.359 108.225ZM125.771 100.564V99.564L125.77 99.564L125.771 100.564ZM125.465 100.871L124.465 100.87V100.871H125.465ZM125.465 107.714H124.465L124.465 107.715L125.465 107.714ZM125.771 108.021L125.77 109.021H125.771V108.021ZM153.359 108.021V109.021H153.36L153.359 108.021ZM153.666 107.714L154.666 107.715V107.714H153.666ZM153.666 100.871H154.666V100.87L153.666 100.871ZM153.359 100.564L153.36 99.564H153.359V100.564ZM153.359 107.225H125.771V109.225H153.359V107.225ZM125.772 107.225C125.902 107.225 126.026 107.276 126.117 107.368L124.703 108.782C124.986 109.065 125.37 109.224 125.77 109.225L125.772 107.225ZM126.117 107.368C126.209 107.459 126.26 107.584 126.26 107.713L124.26 107.715C124.261 108.115 124.42 108.499 124.703 108.782L126.117 107.368ZM126.26 107.714V100.871H124.26V107.714H126.26ZM126.26 100.872C126.26 101.001 126.209 101.125 126.117 101.217L124.703 99.8025C124.42 100.085 124.261 100.469 124.26 100.869L126.26 100.872ZM126.117 101.217C126.026 101.308 125.902 101.36 125.772 101.36L125.77 99.3597C125.37 99.3603 124.986 99.5195 124.703 99.8025L126.117 101.217ZM125.771 101.36H153.359V99.3597H125.771V101.36ZM153.358 101.36C153.229 101.36 153.105 101.308 153.013 101.217L154.428 99.8025C154.145 99.5195 153.761 99.3603 153.361 99.3597L153.358 101.36ZM153.013 101.217C152.922 101.125 152.87 101.001 152.87 100.872L154.87 100.869C154.87 100.469 154.711 100.085 154.428 99.8025L153.013 101.217ZM152.87 100.871V107.714H154.87V100.871H152.87ZM152.87 107.713C152.87 107.583 152.922 107.459 153.013 107.368L154.428 108.782C154.711 108.499 154.87 108.116 154.87 107.715L152.87 107.713ZM153.013 107.368C153.105 107.277 153.229 107.225 153.358 107.225L153.361 109.225C153.761 109.224 154.145 109.065 154.428 108.782L153.013 107.368ZM154.359 108.225V108.225H152.359V108.225H154.359ZM125.77 99.564C125.424 99.5643 125.092 99.702 124.847 99.9468L126.262 101.361C126.132 101.491 125.956 101.564 125.772 101.564L125.77 99.564ZM124.847 99.9468C124.603 100.192 124.465 100.524 124.465 100.87L126.465 100.871C126.464 101.055 126.391 101.231 126.262 101.361L124.847 99.9468ZM124.465 100.871V107.714H126.465V100.871H124.465ZM124.465 107.715C124.465 108.061 124.603 108.393 124.847 108.638L126.262 107.224C126.391 107.354 126.464 107.53 126.465 107.713L124.465 107.715ZM124.847 108.638C125.092 108.883 125.424 109.02 125.77 109.021L125.772 107.021C125.956 107.021 126.132 107.094 126.262 107.224L124.847 108.638ZM125.771 109.021H153.359V107.021H125.771V109.021ZM153.36 109.021C153.707 109.02 154.038 108.883 154.283 108.638L152.869 107.224C152.999 107.094 153.175 107.021 153.359 107.021L153.36 109.021ZM154.283 108.638C154.528 108.393 154.666 108.061 154.666 107.715L152.666 107.713C152.666 107.53 152.739 107.354 152.869 107.224L154.283 108.638ZM154.666 107.714V100.871H152.666V107.714H154.666ZM154.666 100.87C154.666 100.524 154.528 100.192 154.283 99.9468L152.869 101.361C152.739 101.231 152.666 101.055 152.666 100.871L154.666 100.87ZM154.283 99.9468C154.038 99.702 153.707 99.5643 153.36 99.564L153.359 101.564C153.175 101.564 152.999 101.491 152.869 101.361L154.283 99.9468ZM153.359 99.564H125.771V101.564H153.359V99.564Z" fill="#FEFFFE" mask="url(#path-40-inside-6)"/>
<path d="M130.993 104.292C130.993 105.201 130.256 105.938 129.347 105.938C128.438 105.938 127.702 105.201 127.702 104.292C127.702 103.383 128.438 102.647 129.347 102.647C130.256 102.647 130.993 103.383 130.993 104.292Z" fill="#3DA6F4" stroke="#FEFFFE"/>
<path d="M151.176 103.22L151.176 103.22L151.176 103.22Z" fill="#E6E6E6" stroke="#FEFFFE"/>
<path d="M151.176 105.365L151.176 105.365L151.176 105.365ZM133.975 105.508C133.993 105.548 134.018 105.586 134.05 105.618C134.117 105.685 134.208 105.723 134.303 105.723H151.162L133.975 105.508Z" fill="#E6E6E6" stroke="#FEFFFE"/>
</svg>
