<svg width="91" height="42" viewBox="0 0 91 42" fill="none" xmlns="http://www.w3.org/2000/svg">
<path d="M42.3336 0.000493789L34.5703 27.4535L83.237 41.2157L91.0003 13.7627L42.3336 0.000493789Z" fill="#3F3D56"/>
<path d="M43.1741 1.55185C43.3967 1.55185 43.5771 1.37139 43.5771 1.14879C43.5771 0.926183 43.3967 0.745728 43.1741 0.745728C42.9515 0.745728 42.771 0.926183 42.771 1.14879C42.771 1.37139 42.9515 1.55185 43.1741 1.55185Z" fill="#3DA6F4"/>
<path d="M44.4153 1.9028C44.6379 1.9028 44.8183 1.72234 44.8183 1.49974C44.8183 1.27714 44.6379 1.09668 44.4153 1.09668C44.1927 1.09668 44.0122 1.27714 44.0122 1.49974C44.0122 1.72234 44.1927 1.9028 44.4153 1.9028Z" fill="#3DA6F4"/>
<path d="M45.6565 2.25399C45.8791 2.25399 46.0595 2.07354 46.0595 1.85093C46.0595 1.62833 45.8791 1.44788 45.6565 1.44788C45.4339 1.44788 45.2534 1.62833 45.2534 1.85093C45.2534 2.07354 45.4339 2.25399 45.6565 2.25399Z" fill="#3DA6F4"/>
<path d="M68.1613 17.4206C67.5098 17.2975 66.8396 17.3133 66.1947 17.4671C66.3825 16.8222 66.4299 16.1446 66.3337 15.4799C65.6695 15.7203 65.0685 16.1082 64.5758 16.6143C64.4211 15.9251 64.1122 15.2799 63.6723 14.7273C63.2423 15.2432 62.9278 15.8453 62.7501 16.493C62.2812 16.0242 61.7185 15.6598 61.099 15.4235C61.099 15.4235 60.8055 16.9164 61.5122 18.1413C62.1411 19.2316 63.3496 19.7418 63.6079 19.8409L63.614 19.8482L63.6172 19.8445C63.6434 19.8544 63.6581 19.8595 63.6581 19.8595C63.6581 19.8595 63.6637 19.8308 63.6713 19.7797C63.6759 19.7739 63.6806 19.7681 63.6858 19.7617C63.6868 19.7698 63.6877 19.7772 63.6887 19.7846C63.6684 19.8322 63.6581 19.8595 63.6581 19.8595C63.6581 19.8595 63.6733 19.8629 63.7008 19.8681L63.7016 19.873L63.7106 19.87C63.9826 19.9208 65.2793 20.119 66.386 19.5196C67.6296 18.8461 68.1613 17.4206 68.1613 17.4206Z" fill="#3DA6F4"/>
<path d="M65.7496 13.607C66.3284 13.607 66.7976 13.1378 66.7976 12.5591C66.7976 11.9803 66.3284 11.5111 65.7496 11.5111C65.1708 11.5111 64.7017 11.9803 64.7017 12.5591C64.7017 13.1378 65.1708 13.607 65.7496 13.607Z" fill="#3DA6F4"/>
<path d="M78.9079 26.1656L47.4146 17.2598L47.2208 17.945L78.7142 26.8508L78.9079 26.1656Z" fill="#3DA6F4"/>
<path d="M54.8269 23.0417L49.397 21.5062L47.8615 26.9361L53.2914 28.4716L54.8269 23.0417Z" fill="#3DA6F4"/>
<path d="M64.9109 25.8935L59.481 24.358L57.9455 29.7879L63.3754 31.3234L64.9109 25.8935Z" fill="#3DA6F4"/>
<path d="M74.9948 28.7448L69.5649 27.2094L68.0295 32.6392L73.4593 34.1747L74.9948 28.7448Z" fill="#3DA6F4"/>
<path d="M52.2861 29.3603L48.2524 28.2196L48.1208 28.685L52.1545 29.8257L52.2861 29.3603Z" fill="#3DA6F4"/>
<path d="M62.3701 32.2118L58.3364 31.0712L58.2048 31.5366L62.2384 32.6772L62.3701 32.2118Z" fill="#3DA6F4"/>
<path d="M72.454 35.0636L68.4204 33.923L68.2888 34.3884L72.3224 35.529L72.454 35.0636Z" fill="#3DA6F4"/>
<path d="M27.7547 38.0779C42.6536 38.0779 54.7315 37.6314 54.7315 37.0805C54.7315 36.5297 42.6536 36.0831 27.7547 36.0831C12.8558 36.0831 0.777832 36.5297 0.777832 37.0805C0.777832 37.6314 12.8558 38.0779 27.7547 38.0779Z" fill="#D0CDE1"/>
<path d="M12.4512 29.0538H14.9496V31.5222H17.2351V29.0538H19.7337V36.5288H17.2353V34.0257H14.9497V36.5288H12.4513V29.0538H12.4512ZM23.0191 31.5327H20.8199V29.0538H27.7185V31.5327H25.5179V36.5288H23.0195V31.5327H23.0191ZM28.8133 29.0538H31.4184L33.0209 31.6803L34.6219 29.0538H37.2281V36.5288H34.7398V32.8238L33.0209 35.4815H32.9778L31.2579 32.8238V36.5288H28.8133V29.0538ZM38.4714 29.0538H40.9706V34.0581H44.4841V36.5288H38.4713V29.0538H38.4714Z" fill="#3F3D56"/>
</svg>
