<svg width="55" height="42" viewBox="0 0 55 42" fill="none" xmlns="http://www.w3.org/2000/svg">
<g clip-path="url(#clip0)">
<path opacity="0.1" d="M27.5 42.0005C41.031 42.0005 52 41.3289 52 40.5005C52 39.6721 41.031 39.0005 27.5 39.0005C13.969 39.0005 3 39.6721 3 40.5005C3 41.3289 13.969 42.0005 27.5 42.0005Z" fill="#3DA6F4"/>
<path opacity="0.1" d="M54.3581 33.4847C54.1301 33.838 53.8503 34.1546 53.5283 34.4237C53.4397 34.4974 53.3478 34.5691 53.2544 34.636C52.0588 35.5004 50.458 35.8803 48.9029 36.1264C45.8836 36.6042 42.8013 36.6972 39.7319 36.7883C37.1478 36.8659 34.5622 36.9434 31.977 36.9948C28.282 37.0694 24.5865 37.0917 20.8972 36.9948C18.8805 36.9415 16.8655 36.8475 14.852 36.7127C11.116 36.4554 7.28382 36.0009 4.03159 34.4135C3.43647 34.1272 2.86774 33.7883 2.33208 33.4008C1.44887 32.753 0.721608 31.969 0.332708 31.0406C-0.292998 29.5482 0.0376633 27.8711 0.752412 26.4078C1.18559 25.523 1.74825 24.6944 2.33208 23.8731C2.67766 23.3856 3.03094 22.9011 3.3669 22.4093C3.40203 22.3608 3.43621 22.309 3.4699 22.2586C3.53488 22.1616 3.59937 22.0647 3.66242 21.9678C3.92618 21.5594 4.17598 21.1378 4.40509 20.708C4.63347 20.2793 4.8399 19.839 5.02357 19.389C5.19204 18.9779 5.33668 18.5572 5.45676 18.1292C5.53665 17.8409 5.60404 17.5516 5.65602 17.2623C5.94047 15.6871 5.7903 14.1128 4.94801 12.6877C4.93983 12.6736 4.93116 12.6586 4.9225 12.6446L4.91191 12.6276C4.67414 12.2346 4.38728 11.8644 4.10523 11.4928C3.76831 11.047 3.43669 10.5983 3.20325 10.1074C2.5891 8.8103 2.72194 7.3518 2.94527 5.96647C3.2432 4.12517 3.79767 2.13851 5.51451 0.990603C7.29777 -0.204303 9.82948 -0.143734 12.043 0.283641C15.4825 0.946024 18.6587 2.33523 21.8656 3.58877C25.0726 4.84231 28.4303 5.98876 31.9564 6.11135C35.07 6.22037 38.7015 5.40633 40.7677 3.28883C42.7748 1.23288 46.5478 1.07637 49.2682 2.31973C51.8634 3.50446 53.5418 6.0125 53.4157 8.51666C53.2318 12.1639 49.7404 14.9612 47.6572 18.1525C47.5639 18.2949 47.4729 18.4408 47.3863 18.5886C46.568 19.9807 46.0641 21.5792 46.6677 23.0285C47.4772 24.9701 49.8809 25.9174 51.9082 27.137C52.8872 27.7258 53.7805 28.3785 54.3581 29.239C54.3797 29.27 54.3995 29.3006 54.4192 29.3311C55.234 30.6006 55.1724 32.2219 54.3581 33.4847Z" fill="#3DA6F4"/>
<path opacity="0.3" d="M3.66139 21.9657C3.92515 21.5572 4.17495 21.1356 4.40406 20.7058C4.63257 20.2774 4.83916 19.8375 5.02303 19.3879C5.19149 18.9767 5.33613 18.556 5.45621 18.128C5.53611 17.8397 5.60349 17.5504 5.65547 17.2612C5.93993 15.6859 5.78976 14.1116 4.94746 12.6865C4.93928 12.6724 4.93061 12.6574 4.92195 12.6434L4.10372 11.4916H10.1755V15.5502H11.8644V27.7246H14.0438V23.7755H16.6587V27.7246H18.8367V20.9782H18.9455V17.4681H21.0151V20.9782H25.8095V26.2433H28.4793V24.5958H30.1158V26.2433H32.7851V10.6669H36.2717V8.19858H36.871V10.6669H37.8514V15.5483H39.5952V11.4897H41.0661V7.32251H44.1166V11.4897H45.588V15.5483H47.3857V18.5869C46.5675 19.979 46.0635 21.5775 46.6671 23.0268C47.4767 24.9684 49.8804 25.9157 51.9076 27.1354C52.8866 27.7246 53.7799 28.3773 54.3575 29.2378V33.4849C54.1294 33.8377 53.8497 34.1538 53.5277 34.4225C53.4392 34.4962 53.3472 34.5679 53.2539 34.6348C52.0583 35.4992 50.4575 35.8791 48.9023 36.1252C45.8831 36.603 42.8007 36.696 39.7314 36.7871C37.1472 36.8647 34.5616 36.9422 31.9765 36.9936H20.8957C18.879 36.9403 16.8639 36.8463 14.8505 36.7116C11.1145 36.4543 7.28231 35.9997 4.03008 34.4124C3.43496 34.126 2.86623 33.7871 2.33057 33.3996V23.8719C2.67615 23.3844 3.02943 22.8999 3.36539 22.4081L3.66139 21.9657Z" fill="#3DA6F4"/>
<path opacity="0.4" d="M5.65339 17.2593V18.1261H5.45605C5.53403 17.8378 5.60045 17.5486 5.65339 17.2593Z" fill="white"/>
<path opacity="0.4" d="M8.48626 18.1262H10.7744V16.8097H8.48626V18.1262Z" fill="white"/>
<path opacity="0.4" d="M5.65327 19.3879V20.704H4.40186C4.63096 20.2762 4.8382 19.837 5.02275 19.3879H5.65327Z" fill="white"/>
<path opacity="0.4" d="M8.48626 20.704H10.7744V19.3875H8.48626V20.704Z" fill="white"/>
<path opacity="0.4" d="M3.66124 21.9652H5.65339V23.2817H3.36523V22.4081L3.66124 21.9652Z" fill="white"/>
<path opacity="0.4" d="M8.48626 23.2819H10.7744V21.9653H8.48626V23.2819Z" fill="white"/>
<path opacity="0.4" d="M5.65339 24.5435H3.36523V25.86H5.65339V24.5435Z" fill="white"/>
<path opacity="0.4" d="M8.48626 25.8596H10.7744V24.5431H8.48626V25.8596Z" fill="white"/>
<path opacity="0.4" d="M5.65339 27.1213H3.36523V28.4379H5.65339V27.1213Z" fill="white"/>
<path opacity="0.4" d="M8.48626 28.4374H10.7744V27.1209H8.48626V28.4374Z" fill="white"/>
<path opacity="0.4" d="M5.65339 29.6991H3.36523V31.0156H5.65339V29.6991Z" fill="white"/>
<path opacity="0.4" d="M8.48626 31.0151H10.7744V29.6986H8.48626V31.0151Z" fill="white"/>
<path opacity="0.4" d="M5.65339 32.277H3.36523V33.5935H5.65339V32.277Z" fill="white"/>
<path opacity="0.4" d="M8.48626 33.593H10.7744V32.2765H8.48626V33.593Z" fill="white"/>
<path opacity="0.4" d="M18.0208 29.0406H12.6816V29.6987H18.0208V29.0406Z" fill="white"/>
<path opacity="0.4" d="M18.0208 30.0282H12.6816V30.6862H18.0208V30.0282Z" fill="white"/>
<path opacity="0.4" d="M18.0208 31.0151H12.6816V31.6732H18.0208V31.0151Z" fill="white"/>
<path opacity="0.4" d="M31.9676 29.3702H26.6284V30.0283H31.9676V29.3702Z" fill="white"/>
<path opacity="0.4" d="M31.9676 30.3572H26.6284V31.0152H31.9676V30.3572Z" fill="white"/>
<path opacity="0.4" d="M31.9676 31.3442H26.6284V32.0023H31.9676V31.3442Z" fill="white"/>
<path opacity="0.4" d="M18.0208 32.0027H12.6816V32.6607H18.0208V32.0027Z" fill="white"/>
<path opacity="0.4" d="M18.0208 32.9897H12.6816V33.6478H18.0208V32.9897Z" fill="white"/>
<path opacity="0.4" d="M18.0208 33.9773H12.6816V34.6353H18.0208V33.9773Z" fill="white"/>
<path opacity="0.4" d="M21.4523 22.24H19.9814V24.1598H21.4523V22.24Z" fill="white"/>
<path opacity="0.4" d="M23.1966 24.1593H24.6675V22.2395H23.1966V24.1593Z" fill="white"/>
<path opacity="0.4" d="M21.4523 25.311H19.9814V27.2308H21.4523V25.311Z" fill="white"/>
<path opacity="0.4" d="M23.1966 27.2308H24.6675V25.311H23.1966V27.2308Z" fill="white"/>
<path opacity="0.4" d="M21.4523 28.3827H19.9814V30.3025H21.4523V28.3827Z" fill="white"/>
<path opacity="0.4" d="M23.1966 30.3024H24.6675V28.3826H23.1966V30.3024Z" fill="white"/>
<path opacity="0.4" d="M21.4523 31.4542H19.9814V33.374H21.4523V31.4542Z" fill="white"/>
<path opacity="0.4" d="M23.1966 33.374H24.6675V31.4542H23.1966V33.374Z" fill="white"/>
<path opacity="0.4" d="M34.746 11.9287H32.7847V14.4518H34.746V11.9287Z" fill="white"/>
<path opacity="0.4" d="M34.746 15.5483H32.7847V18.0714H34.746V15.5483Z" fill="white"/>
<path opacity="0.4" d="M34.746 19.1683H32.7847V21.6914H34.746V19.1683Z" fill="white"/>
<path opacity="0.4" d="M34.746 22.7885H32.7847V25.3115H34.746V22.7885Z" fill="white"/>
<path opacity="0.4" d="M34.746 26.408H32.7847V28.931H34.746V26.408Z" fill="white"/>
<path opacity="0.4" d="M34.746 30.0282H32.7847V32.5513H34.746V30.0282Z" fill="white"/>
<path opacity="0.4" d="M46.2688 17.0844H38.9683V19.2232H46.2688V17.0844Z" fill="white"/>
<path opacity="0.4" d="M46.2962 21.6914H38.9956V23.8302H46.2962V21.6914Z" fill="white"/>
<path opacity="0.4" d="M46.3235 26.2986H39.0229V28.4374H46.3235V26.2986Z" fill="white"/>
<path opacity="0.4" d="M46.3504 30.9058H39.0498V33.0446H46.3504V30.9058Z" fill="white"/>
<path opacity="0.4" d="M4.94579 12.6416V12.6847C4.93749 12.6707 4.92871 12.6557 4.91992 12.6416H4.94579Z" fill="white"/>
<path opacity="0.4" d="M54.3576 29.2379V30.0296H51.9077V27.1368C52.8867 27.7246 53.78 28.3773 54.3576 29.2379Z" fill="white"/>
<path opacity="0.4" d="M54.3576 31.4542V33.4835C54.1296 33.8369 53.8498 34.1535 53.5278 34.4226C53.4392 34.4962 53.3473 34.568 53.2539 34.6348H51.9062V31.4542H54.3576Z" fill="white"/>
<path opacity="0.1" d="M16.7508 9.93673H16.3758C16.4454 9.93673 16.5121 9.90891 16.5613 9.85938C16.6105 9.80986 16.6382 9.74269 16.6382 9.67265C16.6382 9.60261 16.6105 9.53544 16.5613 9.48592C16.5121 9.43639 16.4454 9.40857 16.3758 9.40857H13.3392C13.2697 9.40857 13.203 9.43639 13.1538 9.48592C13.1046 9.53544 13.0769 9.60261 13.0769 9.67265C13.0769 9.74269 13.1046 9.80986 13.1538 9.85938C13.203 9.90891 13.2697 9.93673 13.3392 9.93673H13.7142C13.6465 9.93965 13.5825 9.96877 13.5357 10.018C13.4888 10.0673 13.4626 10.1328 13.4626 10.2011C13.4626 10.2693 13.4888 10.3348 13.5357 10.3841C13.5825 10.4333 13.6465 10.4625 13.7142 10.4654H13.1896C13.12 10.4654 13.0533 10.4932 13.0041 10.5427C12.9549 10.5923 12.9272 10.6594 12.9272 10.7295C12.9272 10.7995 12.9549 10.8667 13.0041 10.9162C13.0533 10.9657 13.12 10.9935 13.1896 10.9935H16.2257C16.2952 10.9935 16.362 10.9657 16.4112 10.9162C16.4604 10.8667 16.488 10.7995 16.488 10.7295C16.488 10.6594 16.4604 10.5923 16.4112 10.5427C16.362 10.4932 16.2952 10.4654 16.2257 10.4654H16.7508C16.8185 10.4625 16.8824 10.4333 16.9293 10.3841C16.9762 10.3348 17.0023 10.2693 17.0023 10.2011C17.0023 10.1328 16.9762 10.0673 16.9293 10.018C16.8824 9.96877 16.8185 9.93965 16.7508 9.93673Z" fill="#3DA6F4"/>
<path opacity="0.1" d="M30.1526 16.5731H29.7777C29.8473 16.5731 29.914 16.5453 29.9632 16.4957C30.0124 16.4462 30.04 16.379 30.04 16.309C30.04 16.239 30.0124 16.1718 29.9632 16.1223C29.914 16.0727 29.8473 16.0449 29.7777 16.0449H26.7411C26.6715 16.0449 26.6048 16.0727 26.5556 16.1223C26.5064 16.1718 26.4788 16.239 26.4788 16.309C26.4788 16.379 26.5064 16.4462 26.5556 16.4957C26.6048 16.5453 26.6715 16.5731 26.7411 16.5731H27.1151C27.0474 16.576 26.9834 16.6051 26.9366 16.6544C26.8897 16.7036 26.8635 16.7692 26.8635 16.8374C26.8635 16.9056 26.8897 16.9712 26.9366 17.0204C26.9834 17.0697 27.0474 17.0988 27.1151 17.1017H26.5904C26.556 17.1017 26.5219 17.1086 26.4901 17.1218C26.4582 17.1351 26.4293 17.1546 26.405 17.1791C26.3806 17.2036 26.3613 17.2327 26.3481 17.2648C26.3349 17.2968 26.3281 17.3311 26.3281 17.3658C26.3281 17.4005 26.3349 17.4348 26.3481 17.4669C26.3613 17.4989 26.3806 17.528 26.405 17.5525C26.4293 17.5771 26.4582 17.5965 26.4901 17.6098C26.5219 17.6231 26.556 17.6299 26.5904 17.6299H29.6275C29.6971 17.6299 29.7638 17.6021 29.813 17.5525C29.8622 17.503 29.8898 17.4358 29.8898 17.3658C29.8898 17.2958 29.8622 17.2286 29.813 17.1791C29.7638 17.1296 29.6971 17.1017 29.6275 17.1017H30.1526C30.2203 17.0988 30.2843 17.0697 30.3311 17.0204C30.378 16.9712 30.4042 16.9056 30.4042 16.8374C30.4042 16.7692 30.378 16.7036 30.3311 16.6544C30.2843 16.6051 30.2203 16.576 30.1526 16.5731Z" fill="#3DA6F4"/>
<path opacity="0.1" d="M52.9798 7.90743H52.6048C52.6744 7.90743 52.7411 7.87961 52.7903 7.83009C52.8395 7.78056 52.8672 7.71339 52.8672 7.64335C52.8672 7.57331 52.8395 7.50614 52.7903 7.45662C52.7411 7.4071 52.6744 7.37927 52.6048 7.37927H49.5682C49.4987 7.37927 49.4319 7.4071 49.3827 7.45662C49.3336 7.50614 49.3059 7.57331 49.3059 7.64335C49.3059 7.71339 49.3336 7.78056 49.3827 7.83009C49.4319 7.87961 49.4987 7.90743 49.5682 7.90743H49.9432C49.8736 7.90743 49.8069 7.93526 49.7577 7.98478C49.7085 8.03431 49.6809 8.10148 49.6809 8.17152C49.6809 8.24155 49.7085 8.30872 49.7577 8.35825C49.8069 8.40777 49.8736 8.4356 49.9432 8.4356H49.4185C49.3509 8.43851 49.2869 8.46764 49.24 8.51689C49.1932 8.56614 49.167 8.63171 49.167 8.69992C49.167 8.76813 49.1932 8.8337 49.24 8.88295C49.2869 8.9322 49.3509 8.96132 49.4185 8.96424H52.4547C52.4901 8.96577 52.5255 8.96006 52.5586 8.94747C52.5918 8.93487 52.6221 8.91565 52.6477 8.89096C52.6733 8.86626 52.6937 8.8366 52.7076 8.80377C52.7215 8.77094 52.7287 8.73562 52.7287 8.69992C52.7287 8.66422 52.7215 8.6289 52.7076 8.59606C52.6937 8.56323 52.6733 8.53358 52.6477 8.50888C52.6221 8.48419 52.5918 8.46496 52.5586 8.45237C52.5255 8.43977 52.4901 8.43407 52.4547 8.4356H52.9798C53.0493 8.4356 53.1161 8.40777 53.1653 8.35825C53.2145 8.30872 53.2421 8.24155 53.2421 8.17152C53.2421 8.10148 53.2145 8.03431 53.1653 7.98478C53.1161 7.93526 53.0493 7.90743 52.9798 7.90743Z" fill="#3DA6F4"/>
<path d="M27.2566 39.0726H27.2704C27.2704 39.0726 25.0768 33.0838 24.4626 32.27C24.4626 32.27 23.8192 31.8917 23.8485 31.2524L23.0594 27.4407C23.0594 27.4407 23.0713 27.4293 23.091 27.4076L23.1078 27.389C23.1137 27.3823 23.1203 27.3751 23.1269 27.3667C23.2322 27.2436 23.3205 27.1066 23.3891 26.9596C23.3933 26.9499 23.3981 26.9409 23.4023 26.9313C23.4316 26.8646 23.4562 26.7958 23.4757 26.7256C23.5309 26.7449 23.5914 26.7416 23.6442 26.7166C23.6442 26.7166 23.6442 26.6961 23.6442 26.6594C23.6442 26.6594 23.6364 26.4339 23.6358 26.0815C23.6358 25.9829 23.6358 25.8758 23.6358 25.7621C23.6614 25.6706 23.6823 25.5779 23.6986 25.4843L23.6663 25.4692C23.6663 25.4644 23.6663 25.4602 23.6693 25.4554L23.6424 25.4428C23.6639 24.6068 23.7356 23.5387 23.9411 22.811C23.9483 22.7851 23.9555 22.7599 23.9632 22.7346C24.207 21.9401 24.2123 20.9701 24.2751 20.1485C24.3243 20.2514 24.3666 20.3575 24.4017 20.4661C24.4327 20.4316 24.4685 20.4018 24.508 20.3777L24.753 22.3269V24.6231C24.753 24.6231 24.3432 27.5886 25.6299 27.0365C26.9167 26.4844 25.9812 24.4505 25.9812 24.4505C25.9812 24.4505 25.9812 23.3168 26.1568 22.7352C26.2721 22.3527 26.1975 21.1114 26.1329 20.3121C26.256 20.3344 26.3319 20.3518 26.3319 20.3518C26.3604 20.2352 26.3733 20.1152 26.3701 19.9952C26.3964 18.6552 24.7339 16.4949 24.0558 15.671C23.8617 15.3767 23.5919 15.1409 23.275 14.989L21.9745 14.3629C21.9745 14.3629 21.3622 14.2096 21.1232 13.7405C21.1232 13.7326 21.119 13.7242 21.1172 13.7158C21.1441 13.7038 21.171 13.6911 21.1973 13.6773C21.3952 13.5824 21.5691 13.4434 21.7057 13.2708C21.9829 12.9207 22.1149 12.4823 22.2433 12.0553C22.3921 11.5537 22.542 11.0407 22.5223 10.5175C22.5026 9.99425 22.2834 9.45057 21.8347 9.17272C21.453 8.93576 20.9213 8.89066 20.6847 8.51117C20.6208 8.40892 20.582 8.28744 20.4966 8.20444C20.4972 8.18691 20.4915 8.16973 20.4805 8.15611C20.4695 8.1425 20.454 8.13338 20.4368 8.13047L19.7737 8.00177C19.7551 7.99821 19.7359 8.00214 19.7201 8.01271C19.7044 8.02328 19.6934 8.03965 19.6895 8.0583V8.06732C19.1044 8.08348 18.5299 8.22862 18.0066 8.49252C17.821 8.58239 17.6429 8.68697 17.4737 8.80526C17.2348 8.97486 16.9958 9.19858 16.9624 9.48967C16.9451 9.63461 16.9803 9.78316 16.9504 9.92509C16.8716 10.3052 16.3596 10.5524 16.4343 10.9331C16.4845 11.1917 16.779 11.3029 17.0544 11.3035C17.0034 11.4845 16.9775 11.6717 16.9773 11.8598C16.9797 12.3372 17.1458 12.799 17.4474 13.1673C17.749 13.5357 18.1677 13.7878 18.6327 13.8812C18.8332 14.1614 19.0089 14.4589 19.1578 14.7701C18.8209 15.0882 18.1153 15.8268 18.5479 16.0752L17.6518 18.2847L17.739 20.5635L17.3596 20.9009L17.4427 21.0043C17.0179 21.4963 16.0334 22.5722 15.3142 22.8585C15.2111 22.8998 15.1112 22.9489 15.0155 23.0053C14.8836 23.0882 14.7372 23.1451 14.5842 23.173C14.5173 23.1799 14.4511 23.1926 14.3864 23.2109L14.215 22.8567C14.1851 22.7952 14.1323 22.7481 14.0681 22.7256C14.0039 22.7031 13.9334 22.707 13.8721 22.7364L13.7669 22.7869L13.5166 22.9072L13.4127 22.9571L13.3332 22.995C13.303 23.0094 13.2759 23.0296 13.2536 23.0546C13.2312 23.0795 13.2139 23.1087 13.2028 23.1404C13.1917 23.1721 13.187 23.2058 13.1888 23.2393C13.1907 23.2729 13.1992 23.3058 13.2137 23.336L13.4216 23.7648C13.1259 24.024 12.9814 24.3338 13.384 24.6213C13.5403 24.7347 13.729 24.7938 13.9216 24.7896L14.0483 25.0501C14.0781 25.1115 14.1307 25.1586 14.1949 25.1811C14.259 25.2037 14.3293 25.1998 14.3906 25.1703L14.574 25.0825L14.9324 24.9123C14.9627 24.8981 14.9898 24.8779 15.0122 24.8531C15.0346 24.8282 15.0519 24.799 15.063 24.7673C15.0741 24.7357 15.0789 24.7021 15.077 24.6685C15.0751 24.635 15.0666 24.6021 15.0519 24.5719L14.948 24.3572C15.1802 24.178 15.3932 23.9748 15.5836 23.751C15.5836 23.751 16.1171 23.4184 16.4313 23.3444C16.6398 23.2951 17.3716 22.8182 17.822 22.5163L17.9505 25.8734C17.9217 25.9169 17.8884 25.9572 17.8513 25.9937L17.9523 25.9227V25.9474C17.9373 25.9642 17.923 25.9798 17.9086 25.9937L17.9523 25.9624V26.0027C17.9383 26.0201 17.9232 26.0363 17.9069 26.0514L17.9529 26.0189L17.966 26.3678L18.1864 26.0069L18.2002 26.3678L18.2515 26.283C17.6338 27.3264 16.8292 28.8624 16.3996 30.4087C16.3996 30.4087 15.7276 31.5712 15.8148 32.7632L14.5782 38.6631L14.6021 38.6721C14.2012 38.959 13.3589 39.4852 12.5315 39.5063C12.5315 39.5063 10.5428 39.4461 11.0978 39.8839C11.6527 40.3218 16.5938 40.9599 16.5938 40.9599L16.7838 39.49L16.828 39.5063C16.828 39.5063 16.828 39.4978 16.825 39.4834L16.8847 39.5063C16.8847 39.5063 16.7652 38.7791 17.2061 38.3726C17.647 37.966 18.6685 33.8373 18.5801 33.2004C18.5801 33.2004 19.3651 31.25 20.3478 29.6948L21.5044 32.6483L22.7911 34.8579C22.7911 34.8579 24.5027 38.6408 24.4477 39.484C24.0893 39.9206 23.4453 40.6044 22.9668 40.5846C22.9668 40.5846 21.0073 40.9629 22.3526 41.3117C23.698 41.6605 27.6455 40.3494 27.6455 40.3494L27.2566 39.0726ZM18.6894 25.5462L18.7014 25.5396C18.6416 25.6328 18.5753 25.7369 18.5048 25.8505L18.6894 25.5462Z" fill="url(#paint0_linear)"/>
<path d="M17.8403 25.9922C17.7919 26.0265 17.7656 26.0463 17.7656 26.0463C17.793 26.0321 17.8182 26.0138 17.8403 25.9922Z" fill="url(#paint1_linear)"/>
<path d="M17.8989 26.0498L17.8242 26.1045C17.8516 26.0901 17.8768 26.0716 17.8989 26.0498Z" fill="url(#paint2_linear)"/>
<path d="M17.8989 25.9922C17.8505 26.0265 17.8242 26.0463 17.8242 26.0463C17.8516 26.0321 17.8768 26.0138 17.8989 25.9922Z" fill="url(#paint3_linear)"/>
<path d="M24.5903 39.1572C24.5903 39.1572 23.564 40.621 22.88 40.5922C22.88 40.5922 20.9683 40.965 22.2826 41.3096C23.5969 41.6543 27.4435 40.3624 27.4435 40.3624L26.9859 38.8589L24.5903 39.1572Z" fill="#333333"/>
<path d="M20 28.9963L21.4535 32.7563L22.708 34.9376C22.708 34.9376 24.4333 38.7981 24.3209 39.5445L27.0689 39.0994C27.0689 39.0994 24.9309 33.1869 24.3323 32.3834C24.3323 32.3834 23.705 32.0099 23.7349 31.3785L22.9655 27.6214C22.9655 27.6214 23.714 26.8943 23.2958 25.9832C23.2736 25.9348 23.2489 25.8876 23.2217 25.8418C22.6518 24.8664 20.4851 25.4112 20.4851 25.4112L20 28.9963Z" fill="#535461"/>
<path opacity="0.03" d="M20 28.9963L21.4535 32.7563L22.708 34.9376C22.708 34.9376 24.4333 38.7981 24.3209 39.5445L27.0689 39.0994C27.0689 39.0994 24.9309 33.1869 24.3323 32.3834C24.3323 32.3834 23.705 32.0099 23.7349 31.3785L22.9655 27.6214C22.9655 27.6214 23.714 26.8943 23.2958 25.9832C23.2736 25.9348 23.2489 25.8876 23.2217 25.8418C22.6518 24.8664 20.4851 25.4112 20.4851 25.4112L20 28.9963Z" fill="black"/>
<g opacity="0.1">
<path opacity="0.1" d="M24.3341 32.3833C24.3341 32.3833 23.7068 32.0098 23.7367 31.3783L22.9655 27.6213C22.9655 27.6213 23.714 26.8942 23.2958 25.983C23.2736 25.9347 23.2489 25.8875 23.2218 25.8417C22.9452 25.3684 22.2934 25.2529 21.6948 25.2595C22.2689 25.265 22.8729 25.3913 23.1363 25.8417C23.1635 25.8874 23.188 25.9346 23.2098 25.983C23.628 26.8942 22.8801 27.6213 22.8801 27.6213L23.6495 31.3813C23.6214 32.0128 24.2469 32.3863 24.2469 32.3863C24.8443 33.1898 26.9835 39.1023 26.9835 39.1023L24.321 39.5293C24.321 39.5335 24.321 39.5389 24.321 39.5431L27.069 39.0981C27.069 39.0981 24.9327 33.1868 24.3341 32.3833Z" fill="black"/>
</g>
<path d="M14.9538 38.5254C14.9538 38.5254 13.8134 39.5009 12.7017 39.5298C12.7017 39.5298 10.7631 39.4696 11.3044 39.9032C11.8456 40.3368 16.6648 40.9647 16.6648 40.9647L16.8792 39.2886L14.9538 38.5254Z" fill="#333333"/>
<g opacity="0.1">
<path opacity="0.1" d="M19.1452 25.179C19.1452 25.179 17.2634 27.848 16.5221 30.546C16.5221 30.546 15.8649 31.6941 15.9522 32.8711L14.7544 38.6976L16.9498 39.5293C16.9498 39.5293 16.8357 38.8118 17.2634 38.4101C17.6912 38.0083 18.6888 33.9326 18.6034 33.3011C18.6034 33.3011 19.972 29.8568 21.3406 28.5078C22.7093 27.1588 23.3897 26.8473 23.591 25.6812C23.591 25.683 20.3711 24.1169 19.1452 25.179Z" fill="black"/>
</g>
<path d="M19.088 25.179C19.088 25.179 17.2063 27.848 16.4655 30.546C16.4655 30.546 15.8084 31.6941 15.895 32.8711L14.7002 38.6976L16.8926 39.5293C16.8926 39.5293 16.7791 38.8118 17.2063 38.4101C17.6334 38.0083 18.6322 33.9326 18.5462 33.3011C18.5462 33.3011 19.9148 29.8568 21.2835 28.5078C22.6521 27.1588 23.3331 26.8473 23.5344 25.6812C23.5344 25.683 20.3139 24.1169 19.088 25.179Z" fill="#535461"/>
<g opacity="0.1">
<path opacity="0.1" d="M20.3038 24.7815C21.7172 24.7984 23.4771 25.6548 23.4771 25.6548C23.2758 26.8191 22.5948 27.1306 21.2268 28.4814C19.8587 29.8322 18.4895 33.2747 18.4895 33.2747C18.5749 33.9062 17.5773 37.982 17.1496 38.3837C16.7774 38.7337 16.8156 39.3225 16.8317 39.4693L16.9214 39.5029C16.9214 39.5029 16.8073 38.7855 17.235 38.3837C17.6627 37.982 18.6604 33.9062 18.5749 33.2747C18.5749 33.2747 19.9436 29.8304 21.3122 28.4814C22.6808 27.1324 23.3618 26.8209 23.5626 25.6548C23.5626 25.6548 21.7304 24.7635 20.3038 24.7815Z" fill="black"/>
</g>
<path d="M17.69 21.0166C17.69 21.0166 16.3291 22.7228 15.4103 23.0933C15.3093 23.1341 15.2115 23.1823 15.1176 23.2376C14.99 23.3193 14.848 23.3756 14.6994 23.4036C14.5894 23.414 14.4819 23.4424 14.381 23.4878C13.9031 23.7091 12.8021 24.3081 13.5291 24.8344C14.4413 25.4959 15.6672 23.9732 15.6672 23.9732C15.6672 23.9732 16.1875 23.6448 16.494 23.5714C16.8004 23.498 18.2043 22.5093 18.2043 22.5093L17.69 21.0166Z" fill="#ECB4B6"/>
<path d="M17.9476 20.6724L17.4058 21.1601L18.2039 22.1645L17.9476 20.6724Z" fill="#3DA6F4"/>
<g opacity="0.1">
<path opacity="0.1" d="M17.9476 20.6724L17.4058 21.1601L18.2039 22.1645L17.9476 20.6724Z" fill="black"/>
</g>
<path d="M19.3202 14.9604C19.3202 14.9604 18.0227 16.0803 18.5663 16.396L17.6899 18.5774L17.9916 26.5563L19.2288 24.4899L18.3835 20.0123C18.3835 20.0123 18.1446 17.3433 18.8363 16.7118L19.5 15.3887L19.3202 14.9604Z" fill="#3DA6F4"/>
<g opacity="0.1">
<path opacity="0.1" d="M19.4915 14.5603C19.4915 14.5603 18.194 15.6801 18.737 15.9959L17.8618 18.179L18.1635 26.158L19.4007 24.0915L18.556 19.6122C18.556 19.6122 18.317 16.9431 19.0082 16.3116L19.6725 14.9885L19.4915 14.5603Z" fill="black"/>
</g>
<path d="M18.3184 13.7839C18.3184 13.7839 19.3734 15.0752 19.3447 15.8215C19.316 16.5679 21.3406 14.5303 21.3406 14.5303C21.3406 14.5303 20.5705 13.5831 20.7701 12.5781C20.9696 11.5731 18.3184 13.7839 18.3184 13.7839Z" fill="#ECB4B6"/>
<path d="M24.334 20.2708L24.6195 22.5694V24.8367C24.6195 24.8367 24.2205 27.7644 25.475 27.2189C26.7295 26.6734 25.8143 24.6623 25.8143 24.6623C25.8143 24.6623 25.8143 23.5425 25.9858 22.9687C26.1572 22.395 25.9004 19.8684 25.9004 19.8684L24.334 20.2708Z" fill="#ECB4B6"/>
<path d="M20.4276 14.8459C20.4276 14.8459 19.6612 15.5929 19.2591 15.3337L18.7119 16.7031C18.3774 17.5407 18.2257 18.4409 18.2669 19.3427L18.4604 24.5185L19.3159 24.4036L19.6014 19.4955L20.0292 16.5107L20.4276 14.8459Z" fill="#F2F2F2"/>
<g opacity="0.1">
<path opacity="0.1" d="M21.0693 14.0564C21.0693 14.0564 20.0573 14.7594 19.7724 15.3627C19.7724 15.3627 19.7437 16.0242 19.5155 16.3099C19.2873 16.5956 19.0597 18.0317 19.0024 19.7542C18.945 21.4766 18.6887 23.7722 18.6887 23.7722C18.6887 23.7722 18.261 26.0113 17.8052 26.238C17.8052 26.238 19.9146 24.6311 20.9409 25.1765C21.9672 25.722 23.1363 27.0409 23.4786 26.8413C23.4786 26.8413 23.3962 24.3255 23.7701 22.9838C23.7773 22.9585 23.7845 22.9333 23.7922 22.9086C24.1913 21.5885 23.935 19.7813 24.3896 19.0054C24.3896 19.0054 24.3896 17.6023 24.1268 16.5547C24.0587 16.2871 23.9333 16.0378 23.7594 15.8242C23.5856 15.6106 23.3674 15.4379 23.1202 15.3182L21.8537 14.7023C21.8537 14.7023 21.1834 14.6019 21.0693 14.0564Z" fill="black"/>
</g>
<g opacity="0.1">
<path opacity="0.1" d="M21.0692 14.0564C21.0692 14.0564 20.1134 14.8172 19.829 15.4198C19.829 15.4198 19.8004 16.0814 19.5727 16.367C19.3451 16.6527 19.1163 18.0895 19.0596 19.8113C19.0028 21.5332 18.746 23.8324 18.746 23.8324C18.746 23.8324 18.3182 26.0709 17.8618 26.2982C17.8618 26.2982 19.9718 24.6906 20.9981 25.2361C22.0245 25.7816 23.1935 27.1005 23.5353 26.9008C23.5353 26.9008 23.4534 24.3857 23.8274 23.0439C23.8346 23.0181 23.8417 22.9934 23.8489 22.9688C24.2485 21.6456 23.9917 19.8414 24.4463 19.065C24.4463 19.065 24.4463 17.6619 24.1828 16.6148C24.115 16.3472 23.9897 16.0978 23.816 15.8841C23.6422 15.6704 23.424 15.4975 23.1768 15.3777L21.9086 14.7595C21.9086 14.7595 21.1833 14.6019 21.0692 14.0564Z" fill="black"/>
</g>
<path d="M21.0549 14.042C21.0549 14.042 20.114 14.7595 19.829 15.3651C19.829 15.3651 19.8004 16.0267 19.5727 16.3123C19.3451 16.598 19.1163 18.0342 19.0596 19.7566C19.0028 21.4791 18.746 23.7723 18.746 23.7723C18.746 23.7723 18.3182 26.0113 17.8618 26.2381C17.8618 26.2381 19.9718 24.6311 20.9981 25.1766C22.0245 25.7221 23.1935 27.041 23.5353 26.8413C23.5353 26.8413 23.4534 24.3256 23.8274 22.9838L23.8489 22.9086C24.2485 21.5885 23.9917 19.7813 24.4463 19.0055C24.4463 19.0055 24.4463 17.6024 24.1828 16.5547C24.115 16.2872 23.9897 16.0378 23.8159 15.8242C23.6421 15.6106 23.424 15.4379 23.1768 15.3182L21.9086 14.6999C21.9086 14.6999 21.2687 14.5442 21.0549 14.042Z" fill="#3DA6F4"/>
<g opacity="0.1">
<path opacity="0.1" d="M23.6638 15.7209C23.6638 15.7209 26.5576 19.0359 26.1585 20.6146C26.1585 20.6146 24.6758 20.2706 24.2768 20.7295C24.2768 20.7295 23.9631 19.6674 23.0222 19.0648C22.0813 18.4622 21.2145 14.6017 23.6638 15.7209Z" fill="black"/>
</g>
<path d="M23.6638 15.6637C23.6638 15.6637 26.5576 18.9787 26.1585 20.5574C26.1585 20.5574 24.6758 20.2128 24.2768 20.6723C24.2768 20.6723 23.9631 19.6102 23.0222 19.0076C22.0813 18.405 21.2145 14.5439 23.6638 15.6637Z" fill="#3DA6F4"/>
<g opacity="0.1">
<path opacity="0.1" d="M20.8414 13.2241C20.7966 12.9926 20.8342 12.9751 20.8844 12.7219C21.0839 11.7176 18.4351 13.9248 18.4351 13.9248C18.4351 13.9248 18.5826 14.1052 18.7654 14.371C18.9004 14.3991 19.038 14.4132 19.1758 14.4131C19.9005 14.4155 20.4841 13.7997 20.8414 13.2241Z" fill="black"/>
</g>
<path d="M19.0591 14.2712C20.1769 14.2712 21.0831 13.359 21.0831 12.2336C21.0831 11.1083 20.1769 10.196 19.0591 10.196C17.9413 10.196 17.0352 11.1083 17.0352 12.2336C17.0352 13.359 17.9413 14.2712 19.0591 14.2712Z" fill="#ECB4B6"/>
<g opacity="0.1">
<path opacity="0.1" d="M17.2406 11.676C16.9419 11.7163 16.5625 11.6158 16.5052 11.3187C16.4329 10.9434 16.9317 10.6987 17.0088 10.324C17.0381 10.1833 17.0034 10.0365 17.0201 9.89398C17.0536 9.6065 17.2842 9.38518 17.519 9.21859C18.2627 8.69318 19.1674 8.45044 20.0722 8.53358C20.1851 8.5348 20.2951 8.56976 20.3882 8.63401C20.4868 8.71581 20.5244 8.84751 20.5914 8.95637C20.8225 9.33225 21.3405 9.37736 21.7127 9.61071C22.1482 9.88435 22.3632 10.4214 22.3829 10.938C22.4027 11.4546 22.2563 11.9604 22.1111 12.4566C21.9881 12.8776 21.859 13.3106 21.589 13.6558C21.319 14.001 20.8721 14.2428 20.4462 14.137C20.6409 13.9956 20.5 13.6685 20.2891 13.5536C20.0782 13.4387 19.8171 13.4189 19.6373 13.2607C19.4575 13.1025 19.4031 12.8427 19.344 12.607C19.2699 12.3062 19.1648 12.0055 18.9473 11.7896C18.5262 11.365 17.7603 11.6056 17.2406 11.676Z" fill="black"/>
</g>
<path d="M17.2983 11.6471C16.9996 11.688 16.6203 11.5869 16.5623 11.2904C16.49 10.9146 16.9889 10.6704 17.0665 10.2951C17.0952 10.1544 17.0605 10.0082 17.0773 9.86508C17.1107 9.57761 17.3419 9.35689 17.5767 9.18969C18.3203 8.66452 19.2248 8.4218 20.1293 8.50468C20.2423 8.50612 20.3523 8.54129 20.4454 8.60572C20.5439 8.68691 20.5822 8.81862 20.6491 8.92748C20.8797 9.30336 21.3982 9.34847 21.7704 9.58182C22.2053 9.85546 22.4209 10.3931 22.4401 10.9091C22.4592 11.4252 22.3134 11.9315 22.1688 12.4277C22.0452 12.8487 21.9167 13.2823 21.6461 13.6275C21.3755 13.9727 20.9293 14.2139 20.5039 14.1087C20.6981 13.9679 20.5571 13.6402 20.3468 13.5253C20.1365 13.4104 19.8749 13.3912 19.6944 13.2324C19.514 13.0736 19.4603 12.8144 19.4017 12.5787C19.3276 12.281 19.2225 11.9772 19.0051 11.7619C18.5815 11.3361 17.8174 11.5767 17.2983 11.6471Z" fill="#464353"/>
<path d="M20.2815 9.57871L20.4649 8.63329C20.4667 8.62421 20.4666 8.61487 20.4647 8.60581C20.4629 8.59675 20.4593 8.58815 20.4541 8.5805C20.449 8.57285 20.4424 8.56629 20.4347 8.56121C20.427 8.55613 20.4184 8.55263 20.4094 8.5509L19.763 8.424C19.754 8.42216 19.7448 8.42214 19.7358 8.42394C19.7268 8.42573 19.7182 8.42931 19.7106 8.43446C19.703 8.4396 19.6965 8.44622 19.6914 8.45392C19.6864 8.46162 19.6829 8.47026 19.6812 8.47933L19.4978 9.42415L18.8711 11.7576L20.0199 11.9844L20.2815 9.57871Z" fill="#3DA6F4"/>
<g opacity="0.1">
<path opacity="0.1" d="M17.0439 10.3702C17.0861 10.3058 17.1164 10.2343 17.1336 10.1591C17.1622 10.0184 17.1276 9.87165 17.1443 9.72912C17.1506 9.67832 17.1628 9.62846 17.1807 9.58057C17.1255 9.66642 17.09 9.76361 17.0768 9.86504C17.0601 10.0082 17.0947 10.1543 17.0655 10.295C17.0605 10.3207 17.0533 10.3458 17.0439 10.3702Z" fill="black"/>
<path opacity="0.1" d="M21.7131 13.4909C21.4473 13.8313 21.0082 14.0695 20.59 13.9775C20.5786 14.0309 20.5477 14.0781 20.5034 14.1098C20.9276 14.2138 21.3756 13.9727 21.6456 13.6287C21.747 13.4968 21.8325 13.3533 21.9001 13.201C21.8466 13.3032 21.784 13.4002 21.7131 13.4909Z" fill="black"/>
<path opacity="0.1" d="M20.5932 13.9543C20.7527 13.8051 20.6153 13.5008 20.4139 13.3908C20.2031 13.2759 19.942 13.256 19.7616 13.0979C19.5812 12.9397 19.5274 12.6799 19.4689 12.4435C19.3948 12.1458 19.2896 11.8421 19.0722 11.6268C18.6486 11.2004 17.8846 11.441 17.3654 11.5113C17.0667 11.5516 16.6874 11.4512 16.63 11.1541C16.6165 11.0839 16.6223 11.0113 16.6468 10.9442C16.6107 10.9935 16.5846 11.0495 16.5701 11.1089C16.5555 11.1684 16.5528 11.2301 16.5619 11.2906C16.6217 11.5877 16.9998 11.6882 17.2979 11.6473C17.8171 11.5769 18.5811 11.3363 19.0047 11.7633C19.2197 11.9804 19.3273 12.2824 19.4014 12.5801C19.4611 12.8158 19.5119 13.0738 19.6941 13.2338C19.8763 13.3938 20.1355 13.4142 20.3464 13.5267C20.4976 13.6085 20.6117 13.8009 20.5932 13.9543Z" fill="black"/>
</g>
<g opacity="0.1">
<path opacity="0.1" d="M19.3307 13.2809C19.8816 13.2809 20.3283 12.8313 20.3283 12.2766C20.3283 11.7219 19.8816 11.2722 19.3307 11.2722C18.7797 11.2722 18.333 11.7219 18.333 12.2766C18.333 12.8313 18.7797 13.2809 19.3307 13.2809Z" fill="black"/>
</g>
<path d="M19.3307 13.3102C19.8816 13.3102 20.3283 12.8606 20.3283 12.3059C20.3283 11.7512 19.8816 11.3015 19.3307 11.3015C18.7797 11.3015 18.333 11.7512 18.333 12.3059C18.333 12.8606 18.7797 13.3102 19.3307 13.3102Z" fill="#3DA6F4"/>
<path d="M19.3303 12.9636C19.6913 12.9636 19.9839 12.669 19.9839 12.3057C19.9839 11.9423 19.6913 11.6477 19.3303 11.6477C18.9694 11.6477 18.6768 11.9423 18.6768 12.3057C18.6768 12.669 18.9694 12.9636 19.3303 12.9636Z" fill="#333333"/>
<path d="M19.3304 12.5065C19.4406 12.5065 19.5299 12.4165 19.5299 12.3056C19.5299 12.1947 19.4406 12.1047 19.3304 12.1047C19.2202 12.1047 19.1309 12.1947 19.1309 12.3056C19.1309 12.4165 19.2202 12.5065 19.3304 12.5065Z" fill="#3DA6F4"/>
<path opacity="0.05" d="M20.298 9.49482L19.5146 9.34082L19.5092 9.36915L20.2925 9.52316L20.298 9.49482Z" fill="black"/>
<path d="M13.7841 23.0818L13.5931 23.1745C13.4047 23.2659 13.3256 23.4939 13.4164 23.6836L14.1151 25.1425C14.206 25.3322 14.4323 25.4118 14.6208 25.3203L14.8118 25.2276C15.0002 25.1362 15.0793 24.9082 14.9885 24.7186L14.2898 23.2596C14.199 23.07 13.9726 22.9903 13.7841 23.0818Z" fill="#CBDAE3"/>
<path d="M14.0473 22.9541L13.33 23.3022C13.2869 23.3231 13.2688 23.3753 13.2896 23.4186L14.242 25.4074C14.2628 25.4508 14.3145 25.469 14.3576 25.4481L15.0749 25.0999C15.118 25.079 15.1361 25.0269 15.1153 24.9835L14.1629 22.9947C14.1422 22.9513 14.0904 22.9331 14.0473 22.9541Z" fill="#535461"/>
<path d="M14.139 22.9099L13.4169 23.2604C13.3681 23.284 13.3477 23.343 13.3712 23.3921L14.3137 25.3602C14.3372 25.4093 14.3958 25.4299 14.4445 25.4062L15.1667 25.0557C15.2154 25.032 15.2359 24.9731 15.2124 24.924L14.2698 22.9559C14.2463 22.9068 14.1878 22.8862 14.139 22.9099Z" fill="#3DA6F4"/>
<path d="M14.1918 23.0752L13.5127 23.4048L14.2928 25.0338L14.9719 24.7042L14.1918 23.0752Z" fill="#F2F2F2"/>
<path d="M14.7815 25.1474C14.824 25.1267 14.8363 25.0637 14.8089 25.0066C14.7816 24.9494 14.7249 24.9198 14.6824 24.9404C14.6399 24.9611 14.6277 25.0241 14.655 25.0813C14.6824 25.1384 14.739 25.168 14.7815 25.1474Z" fill="#F2F2F2"/>
<g opacity="0.1">
<path opacity="0.1" d="M19.9839 23.3447C20.385 23.3492 20.7819 23.4279 21.1548 23.5769C21.7522 23.821 22.3848 23.5769 22.3848 23.5769C22.3848 23.5769 20.5831 23.0506 19.9839 23.3447Z" fill="black"/>
</g>
<path d="M42.5481 35.1904C42.5481 35.1904 42.9197 35.6794 42.3767 36.4179C41.8337 37.1565 41.3862 37.7795 41.5672 38.2396C41.5672 38.2396 42.3863 36.8684 43.0529 36.8491C43.7196 36.8299 43.2817 36.015 42.5481 35.1904Z" fill="#3DA6F4"/>
<path opacity="0.1" d="M42.548 35.1904C42.5804 35.2376 42.606 35.2893 42.6239 35.3438C43.2744 36.113 43.6215 36.8311 42.996 36.8473C42.4136 36.8642 41.7146 37.913 41.5474 38.1777C41.5528 38.1981 41.5593 38.2182 41.5671 38.2378C41.5671 38.2378 42.3861 36.8666 43.0528 36.8473C43.7195 36.8281 43.2816 36.015 42.548 35.1904Z" fill="black"/>
<path d="M43.2387 35.8135C43.2387 35.9862 43.2196 36.1257 43.1963 36.1257C43.173 36.1257 43.1533 35.9862 43.1533 35.8135C43.1533 35.6409 43.1772 35.7227 43.2011 35.7227C43.225 35.7227 43.2387 35.6415 43.2387 35.8135Z" fill="#FFD037"/>
<path d="M43.476 36.0185C43.3261 36.1009 43.1952 36.1508 43.1839 36.1298C43.1725 36.1087 43.2849 36.0251 43.4348 35.9427C43.5847 35.8603 43.5262 35.9205 43.5376 35.9427C43.5489 35.965 43.626 35.9367 43.476 36.0185Z" fill="#FFD037"/>
<path d="M40.5861 35.1904C40.5861 35.1904 40.2145 35.6794 40.7575 36.4179C41.3005 37.1565 41.748 37.7795 41.567 38.2396C41.567 38.2396 40.748 36.8684 40.0813 36.8491C39.4146 36.8299 39.8525 36.015 40.5861 35.1904Z" fill="#3DA6F4"/>
<path opacity="0.1" d="M40.5861 35.1904C40.5536 35.2376 40.5281 35.2893 40.5102 35.3438C39.8596 36.113 39.5131 36.8311 40.1386 36.8473C40.7211 36.8642 41.4194 37.913 41.5867 38.1777C41.5813 38.1981 41.5747 38.2182 41.567 38.2378C41.567 38.2378 40.748 36.8666 40.0813 36.8473C39.4146 36.8281 39.8525 36.015 40.5861 35.1904Z" fill="black"/>
<path d="M39.8955 35.8135C39.8955 35.9862 39.9146 36.1257 39.9385 36.1257C39.9624 36.1257 39.9815 35.9862 39.9815 35.8135C39.9815 35.6409 39.957 35.7227 39.9337 35.7227C39.9104 35.7227 39.8955 35.6415 39.8955 35.8135Z" fill="#FFD037"/>
<path d="M39.6585 36.0185C39.809 36.1009 39.9399 36.1508 39.9512 36.1298C39.9626 36.1087 39.8497 36.0251 39.6997 35.9427C39.5498 35.8603 39.6089 35.9205 39.5976 35.9427C39.5862 35.965 39.5085 35.9367 39.6585 36.0185Z" fill="#FFD037"/>
<path d="M40.0137 38.1761C40.0137 38.1761 41.0525 38.1436 41.3656 37.9193C41.6786 37.6949 42.963 37.4273 43.0383 37.787C43.1135 38.1466 44.5987 39.5768 43.4266 39.5864C42.2545 39.596 40.7019 39.4023 40.3894 39.2105C40.077 39.0186 40.0137 38.1761 40.0137 38.1761Z" fill="#A8A8A8"/>
<path opacity="0.2" d="M43.4499 39.4606C42.2772 39.4702 40.7252 39.2772 40.4127 39.0853C40.1738 38.9398 40.08 38.416 40.0483 38.1748H40.0137C40.0137 38.1748 40.0794 39.0168 40.3918 39.2092C40.7043 39.4017 42.2563 39.5947 43.429 39.5851C43.7671 39.5821 43.8842 39.4612 43.8776 39.2814C43.831 39.3909 43.7014 39.4588 43.4499 39.4606Z" fill="black"/>
<path d="M38.0114 38.9435C38.0974 38.872 38.1598 38.7759 38.1906 38.668C38.2139 38.5592 38.1673 38.4275 38.064 38.3884C37.9445 38.3433 37.825 38.4245 37.7294 38.5087C37.6339 38.5929 37.5269 38.6843 37.4039 38.6668C37.4673 38.609 37.5147 38.5356 37.5415 38.4538C37.5683 38.372 37.5736 38.2846 37.5568 38.2001C37.5514 38.1652 37.5368 38.1324 37.5144 38.1051C37.4499 38.0359 37.3352 38.066 37.2557 38.1207C37.0102 38.2946 36.9415 38.6301 36.9403 38.9327C36.9152 38.8238 36.9361 38.7101 36.9355 38.5983C36.9349 38.4864 36.9044 38.3625 36.8107 38.3024C36.7525 38.2705 36.6869 38.2549 36.6207 38.2573C36.5102 38.2531 36.3871 38.2639 36.3118 38.3457C36.218 38.4467 36.2425 38.6163 36.3238 38.727C36.405 38.8376 36.5293 38.9074 36.6434 38.985C36.7351 39.0397 36.8131 39.1148 36.8716 39.2045C36.8789 39.2168 36.8847 39.2299 36.8889 39.2436H37.5813C37.7376 39.1637 37.8823 39.0628 38.0114 38.9435Z" fill="#3DA6F4"/>
<path d="M33.3182 38.553C33.3182 38.553 32.6539 36.2839 33.4425 34.6137C33.7771 33.9151 33.8775 33.126 33.7287 32.3651C33.6552 32.0043 33.5495 31.6511 33.4126 31.3096" stroke="#535461" stroke-width="2.48235" stroke-miterlimit="10"/>
<path d="M33.9079 30.2542C33.9079 30.532 33.4072 31.3367 33.4072 31.3367C33.4072 31.3367 32.9072 30.5302 32.9072 30.2542C32.9117 30.1236 32.9664 29.9999 33.0597 29.9091C33.1531 29.8183 33.2778 29.7676 33.4075 29.7676C33.5373 29.7676 33.662 29.8183 33.7554 29.9091C33.8487 29.9999 33.9034 30.1236 33.9079 30.2542Z" fill="#3DA6F4"/>
<path d="M34.732 31.7946C34.5814 32.0286 33.7266 32.4315 33.7266 32.4315C33.7266 32.4315 33.7421 31.4807 33.892 31.2473C33.9641 31.1352 34.0775 31.0565 34.2072 31.0285C34.337 31.0005 34.4724 31.0256 34.5838 31.0982C34.6952 31.1707 34.7734 31.2849 34.8012 31.4155C34.8289 31.5461 34.8041 31.6825 34.732 31.7946Z" fill="#3DA6F4"/>
<path d="M34.6953 34.4269C34.4486 34.5526 33.5083 34.466 33.5083 34.466C33.5083 34.466 33.9982 33.6529 34.2449 33.5278C34.3035 33.498 34.3674 33.4802 34.4329 33.4753C34.4984 33.4704 34.5642 33.4785 34.6266 33.4992C34.689 33.5199 34.7467 33.5527 34.7965 33.5959C34.8462 33.639 34.8871 33.6916 34.9167 33.7506C34.9462 33.8097 34.964 33.874 34.9689 33.9399C34.9737 34.0059 34.9657 34.0721 34.9451 34.1349C34.9246 34.1977 34.8919 34.2558 34.8491 34.3059C34.8062 34.356 34.754 34.3972 34.6953 34.4269Z" fill="#3DA6F4"/>
<path d="M34.2228 36.4126C34.0006 36.578 33.0591 36.6532 33.0591 36.6532C33.0591 36.6532 33.4056 35.7685 33.6278 35.6031C33.7345 35.5233 33.8683 35.4895 33.9998 35.5091C34.1313 35.5287 34.2496 35.6 34.3288 35.7074C34.4081 35.8149 34.4416 35.9496 34.4222 36.0819C34.4028 36.2143 34.3319 36.3334 34.2252 36.4132L34.2228 36.4126Z" fill="#3DA6F4"/>
<path d="M32.6762 32.4857C32.8739 32.6793 33.7975 32.8802 33.7975 32.8802C33.7975 32.8802 33.5711 31.957 33.3733 31.7634C33.3264 31.7164 33.2708 31.6792 33.2095 31.654C33.1483 31.6289 33.0827 31.6162 33.0165 31.6167C32.9503 31.6173 32.8849 31.631 32.8241 31.6572C32.7633 31.6833 32.7082 31.7214 32.6621 31.7691C32.6159 31.8169 32.5797 31.8734 32.5554 31.9353C32.5311 31.9973 32.5193 32.0635 32.5206 32.1301C32.5219 32.1967 32.5363 32.2623 32.563 32.3233C32.5897 32.3842 32.6282 32.4392 32.6762 32.4851V32.4857Z" fill="#3DA6F4"/>
<path d="M32.1522 34.8157C32.3989 34.9414 33.3392 34.8548 33.3392 34.8548C33.3392 34.8548 32.8494 34.0417 32.6027 33.9166C32.5438 33.8868 32.4797 33.869 32.4141 33.8641C32.3484 33.8593 32.2824 33.8675 32.2199 33.8884C32.1574 33.9092 32.0995 33.9422 32.0497 33.9855C31.9998 34.0289 31.959 34.0817 31.9294 34.1409C31.8998 34.2001 31.8821 34.2647 31.8773 34.3308C31.8725 34.3969 31.8807 34.4633 31.9014 34.5263C31.9221 34.5892 31.9549 34.6474 31.9979 34.6976C32.041 34.7478 32.0934 34.7889 32.1522 34.8187V34.8157Z" fill="#3DA6F4"/>
<path d="M31.9516 37.1482C32.1739 37.3136 33.1154 37.3888 33.1154 37.3888C33.1154 37.3888 32.7689 36.5041 32.5466 36.3387C32.4938 36.2992 32.4338 36.2706 32.37 36.2545C32.3063 36.2383 32.2399 36.235 32.1749 36.2447C32.1098 36.2543 32.0472 36.2768 31.9908 36.3108C31.9344 36.3448 31.8851 36.3896 31.8459 36.4428C31.8067 36.4959 31.7782 36.5563 31.7622 36.6206C31.7461 36.6848 31.7428 36.7516 31.7524 36.8171C31.762 36.8826 31.7843 36.9455 31.8181 37.0024C31.8519 37.0592 31.8964 37.1088 31.9492 37.1482H31.9516Z" fill="#3DA6F4"/>
<path d="M33.9079 30.2542C33.9079 30.532 33.4072 31.3367 33.4072 31.3367C33.4072 31.3367 32.9072 30.5302 32.9072 30.2542C32.9117 30.1236 32.9664 29.9999 33.0597 29.9091C33.1531 29.8183 33.2778 29.7676 33.4075 29.7676C33.5373 29.7676 33.662 29.8183 33.7554 29.9091C33.8487 29.9999 33.9034 30.1236 33.9079 30.2542Z" fill="#3DA6F4"/>
<path d="M34.732 31.7946C34.5814 32.0286 33.7266 32.4315 33.7266 32.4315C33.7266 32.4315 33.7421 31.4807 33.892 31.2473C33.9641 31.1352 34.0775 31.0565 34.2072 31.0285C34.337 31.0005 34.4724 31.0256 34.5838 31.0982C34.6952 31.1707 34.7734 31.2849 34.8012 31.4155C34.8289 31.5461 34.8041 31.6825 34.732 31.7946Z" fill="#3DA6F4"/>
<path d="M34.6953 34.4269C34.4486 34.5526 33.5083 34.466 33.5083 34.466C33.5083 34.466 33.9982 33.6529 34.2449 33.5278C34.3035 33.498 34.3674 33.4802 34.4329 33.4753C34.4984 33.4704 34.5642 33.4785 34.6266 33.4992C34.689 33.5199 34.7467 33.5527 34.7965 33.5959C34.8462 33.639 34.8871 33.6916 34.9167 33.7506C34.9462 33.8097 34.964 33.874 34.9689 33.9399C34.9737 34.0059 34.9657 34.0721 34.9451 34.1349C34.9246 34.1977 34.8919 34.2558 34.8491 34.3059C34.8062 34.356 34.754 34.3972 34.6953 34.4269Z" fill="#3DA6F4"/>
<path d="M34.2228 36.4126C34.0006 36.578 33.0591 36.6532 33.0591 36.6532C33.0591 36.6532 33.4056 35.7685 33.6278 35.6031C33.7345 35.5233 33.8683 35.4895 33.9998 35.5091C34.1313 35.5287 34.2496 35.6 34.3288 35.7074C34.4081 35.8149 34.4416 35.9496 34.4222 36.0819C34.4028 36.2143 34.3319 36.3334 34.2252 36.4132L34.2228 36.4126Z" fill="#3DA6F4"/>
<path d="M32.6762 32.4857C32.8739 32.6793 33.7975 32.8802 33.7975 32.8802C33.7975 32.8802 33.5711 31.957 33.3733 31.7634C33.3264 31.7164 33.2708 31.6792 33.2095 31.654C33.1483 31.6289 33.0827 31.6162 33.0165 31.6167C32.9503 31.6173 32.8849 31.631 32.8241 31.6572C32.7633 31.6833 32.7082 31.7214 32.6621 31.7691C32.6159 31.8169 32.5797 31.8734 32.5554 31.9353C32.5311 31.9973 32.5193 32.0635 32.5206 32.1301C32.5219 32.1967 32.5363 32.2623 32.563 32.3233C32.5897 32.3842 32.6282 32.4392 32.6762 32.4851V32.4857Z" fill="#3DA6F4"/>
<path d="M32.1522 34.8157C32.3989 34.9414 33.3392 34.8548 33.3392 34.8548C33.3392 34.8548 32.8494 34.0417 32.6027 33.9166C32.5438 33.8868 32.4797 33.869 32.4141 33.8641C32.3484 33.8593 32.2824 33.8675 32.2199 33.8884C32.1574 33.9092 32.0995 33.9422 32.0497 33.9855C31.9998 34.0289 31.959 34.0817 31.9294 34.1409C31.8998 34.2001 31.8821 34.2647 31.8773 34.3308C31.8725 34.3969 31.8807 34.4633 31.9014 34.5263C31.9221 34.5892 31.9549 34.6474 31.9979 34.6976C32.041 34.7478 32.0934 34.7889 32.1522 34.8187V34.8157Z" fill="#3DA6F4"/>
<path d="M31.9516 37.1482C32.1739 37.3136 33.1154 37.3888 33.1154 37.3888C33.1154 37.3888 32.7689 36.5041 32.5466 36.3387C32.4938 36.2992 32.4338 36.2706 32.37 36.2545C32.3063 36.2383 32.2399 36.235 32.1749 36.2447C32.1098 36.2543 32.0472 36.2768 31.9908 36.3108C31.9344 36.3448 31.8851 36.3896 31.8459 36.4428C31.8067 36.4959 31.7782 36.5563 31.7622 36.6206C31.7461 36.6848 31.7428 36.7516 31.7524 36.8171C31.762 36.8826 31.7843 36.9455 31.8181 37.0024C31.8519 37.0592 31.8964 37.1088 31.9492 37.1482H31.9516Z" fill="#3DA6F4"/>
<path d="M31.749 38.41C31.749 38.41 32.5573 38.2482 32.773 38.0329C32.9886 37.8176 33.9588 37.4405 34.0663 37.7094C34.1738 37.9782 35.5216 38.8948 34.604 39.0565C33.6864 39.2183 32.4486 39.2719 32.1791 39.1642C31.9097 39.0565 31.749 38.41 31.749 38.41Z" fill="#A8A8A8"/>
<path opacity="0.2" d="M34.6058 38.956C33.6894 39.1178 32.4498 39.1713 32.1803 39.0637C31.9748 38.9819 31.8327 38.5873 31.7759 38.4021L31.749 38.4081C31.749 38.4081 31.9109 39.0546 32.1803 39.1623C32.4498 39.2699 33.6894 39.2158 34.6058 39.0546C34.8698 39.0077 34.9457 38.8983 34.917 38.7593C34.8943 38.852 34.8041 38.9211 34.6058 38.956Z" fill="black"/>
</g>
<defs>
<linearGradient id="paint0_linear" x1="3540.19" y1="19902" x2="8179.47" y2="19902" gradientUnits="userSpaceOnUse">
<stop stop-color="#808080" stop-opacity="0.25"/>
<stop offset="0.54" stop-color="#808080" stop-opacity="0.12"/>
<stop offset="1" stop-color="#808080" stop-opacity="0.1"/>
</linearGradient>
<linearGradient id="paint1_linear" x1="42.052" y1="59.4623" x2="42.1453" y2="59.4623" gradientUnits="userSpaceOnUse">
<stop stop-color="#808080" stop-opacity="0.25"/>
<stop offset="0.54" stop-color="#808080" stop-opacity="0.12"/>
<stop offset="1" stop-color="#808080" stop-opacity="0.1"/>
</linearGradient>
<linearGradient id="paint2_linear" x1="42.1872" y1="59.9477" x2="42.2806" y2="59.9477" gradientUnits="userSpaceOnUse">
<stop stop-color="#808080" stop-opacity="0.25"/>
<stop offset="0.54" stop-color="#808080" stop-opacity="0.12"/>
<stop offset="1" stop-color="#808080" stop-opacity="0.1"/>
</linearGradient>
<linearGradient id="paint3_linear" x1="42.1872" y1="59.4623" x2="42.2806" y2="59.4623" gradientUnits="userSpaceOnUse">
<stop stop-color="#808080" stop-opacity="0.25"/>
<stop offset="0.54" stop-color="#808080" stop-opacity="0.12"/>
<stop offset="1" stop-color="#808080" stop-opacity="0.1"/>
</linearGradient>
<clipPath id="clip0">
<rect width="55" height="42" fill="white" transform="translate(0 0.000488281)"/>
</clipPath>
</defs>
</svg>
